<?xml version="1.0" encoding="UTF-8" standalone="no"?>
<!DOCTYPE svg PUBLIC "-//W3C//DTD SVG 1.1//EN"
 "http://www.w3.org/Graphics/SVG/1.1/DTD/svg11.dtd">
<!-- Generated by graphviz version 14.0.1 (20251006.0113)
 -->
<!-- Title: AnimatePacket Pages: 1 -->
<svg width="990pt" height="260pt"
 viewBox="0.00 0.00 990.00 260.00" xmlns="http://www.w3.org/2000/svg" xmlns:xlink="http://www.w3.org/1999/xlink">
<g id="graph0" class="graph" transform="scale(1 1) rotate(0) translate(4 256)">
<title>AnimatePacket</title>
<polygon fill="white" stroke="none" points="-4,4 -4,-256 986.5,-256 986.5,4 -4,4"/>
<!-- 0 -->
<!-- name: &quot;AnimatePacket&quot;, typeName: &quot;&quot;, id: 0, branchId: 44, recurseId: &#45;1, attributes: 0, notes: &quot;&quot; -->
<g id="node1" class="node">
<title>0</title>
<ellipse fill="none" stroke="black" cx="67.73" cy="-149" rx="67.73" ry="18"/>
<text xml:space="preserve" text-anchor="middle" x="67.73" y="-143.95" font-family="Times New Roman,serif" font-size="14.00">AnimatePacket</text>
</g>
<!-- 1 -->
<!-- name: &quot;Action&quot;, typeName: &quot;&quot;, id: 1, branchId: 0, recurseId: &#45;1, attributes: 0, notes: &quot;&quot; -->
<g id="node2" class="node">
<title>1</title>
<ellipse fill="none" stroke="black" cx="736.65" cy="-230" rx="36" ry="18"/>
<text xml:space="preserve" text-anchor="middle" x="736.65" y="-224.95" font-family="Times New Roman,serif" font-size="14.00">Action</text>
</g>
<!-- 0&#45;&gt;1 -->
<g id="edge1" class="edge">
<title>0&#45;&gt;1</title>
<path fill="none" stroke="black" d="M113.89,-162.56C131.69,-167.45 152.4,-172.61 171.46,-176 361.63,-209.86 591.91,-223.55 688.96,-228.08"/>
<polygon fill="black" stroke="black" points="688.73,-231.58 698.88,-228.54 689.05,-224.59 688.73,-231.58"/>
</g>
<!-- 3 -->
<!-- name: &quot;Target Runtime ID&quot;, typeName: &quot;ActorRuntimeID&quot;, id: 3, branchId: 0, recurseId: &#45;1, attributes: 256, notes: &quot;&quot; -->
<g id="node4" class="node">
<title>3</title>
<ellipse fill="none" stroke="black" cx="557.01" cy="-176" rx="81.55" ry="18"/>
<text xml:space="preserve" text-anchor="middle" x="557.01" y="-170.95" font-family="Times New Roman,serif" font-size="14.00">Target Runtime ID</text>
</g>
<!-- 0&#45;&gt;3 -->
<g id="edge3" class="edge">
<title>0&#45;&gt;3</title>
<path fill="none" stroke="black" d="M134.45,-152.64C220.07,-157.39 370.15,-165.7 466.22,-171.03"/>
<polygon fill="black" stroke="black" points="465.97,-174.52 476.15,-171.58 466.36,-167.53 465.97,-174.52"/>
</g>
<!-- 5 -->
<!-- name: &quot;Data&quot;, typeName: &quot;float&quot;, id: 5, branchId: 0, recurseId: &#45;1, attributes: 256, notes: &quot;&quot; -->
<g id="node6" class="node">
<title>5</title>
<ellipse fill="none" stroke="black" cx="305.46" cy="-126" rx="28.32" ry="18"/>
<text xml:space="preserve" text-anchor="middle" x="305.46" y="-120.95" font-family="Times New Roman,serif" font-size="14.00">Data</text>
</g>
<!-- 0&#45;&gt;5 -->
<g id="edge5" class="edge">
<title>0&#45;&gt;5</title>
<path fill="none" stroke="black" d="M131.9,-142.84C174.6,-138.67 229.61,-133.3 265.9,-129.76"/>
<polygon fill="black" stroke="black" points="265.87,-133.28 275.48,-128.83 265.19,-126.31 265.87,-133.28"/>
</g>
<!-- 10 -->
<!-- name: &quot;Dependency on &#39;Action &amp; 0x80 (i.e. Rowing)&#39;&quot;, typeName: &quot;&quot;, id: 10, branchId: 0, recurseId: &#45;1, attributes: 2, notes: &quot;&quot; -->
<g id="node8" class="node">
<title>10</title>
<polygon fill="none" stroke="black" points="433.46,-90 171.46,-90 171.46,-54 439.46,-54 439.46,-84 433.46,-90"/>
<polyline fill="none" stroke="black" points="433.46,-90 433.46,-84"/>
<polyline fill="none" stroke="black" points="439.46,-84 433.46,-84"/>
<text xml:space="preserve" text-anchor="middle" x="305.46" y="-66.95" font-family="Times New Roman,serif" font-size="14.00">Dependency on &#39;Action &amp; 0x80 (i.e. Rowing)&#39;</text>
</g>
<!-- 0&#45;&gt;10 -->
<g id="edge7" class="edge">
<title>0&#45;&gt;10</title>
<path fill="none" stroke="black" d="M97.56,-132.52C117.71,-121.63 145.53,-107.78 171.46,-99 177.25,-97.04 183.23,-95.2 189.3,-93.47"/>
<polygon fill="black" stroke="black" points="190.12,-96.88 198.86,-90.89 188.29,-90.12 190.12,-96.88"/>
</g>
<!-- 2 -->
<!-- name: &quot;varint&quot;, typeName: &quot;&quot;, id: 2, branchId: 0, recurseId: &#45;1, attributes: 512, notes: &quot;&quot; -->
<g id="node3" class="node">
<title>2</title>
<ellipse fill="none" stroke="black" cx="908.62" cy="-234" rx="32.41" ry="18"/>
<text xml:space="preserve" text-anchor="middle" x="908.62" y="-228.95" font-family="Times New Roman,serif" font-size="14.00">varint</text>
</g>
<!-- 1&#45;&gt;2 -->
<g id="edge2" class="edge">
<title>1&#45;&gt;2</title>
<path fill="none" stroke="black" d="M772.87,-230.83C799.54,-231.46 836.29,-232.32 864.68,-232.99"/>
<polygon fill="black" stroke="black" points="864.3,-236.48 874.38,-233.22 864.46,-229.48 864.3,-236.48"/>
</g>
<!-- 4 -->
<!-- name: &quot;ActorRuntimeID&quot;, typeName: &quot;&quot;, id: 4, branchId: 0, recurseId: &#45;1, attributes: 512, notes: &quot;&quot; -->
<g id="node5" class="node">
<title>4</title>
<ellipse fill="none" stroke="black" cx="908.62" cy="-180" rx="73.87" ry="18"/>
<text xml:space="preserve" text-anchor="middle" x="908.62" y="-174.95" font-family="Times New Roman,serif" font-size="14.00">ActorRuntimeID</text>
</g>
<!-- 3&#45;&gt;4 -->
<g id="edge4" class="edge">
<title>3&#45;&gt;4</title>
<path fill="none" stroke="black" d="M638.66,-176.92C693.93,-177.56 767.12,-178.39 823.19,-179.03"/>
<polygon fill="black" stroke="black" points="822.97,-182.53 833.01,-179.15 823.05,-175.53 822.97,-182.53"/>
</g>
<!-- 9 -->
<!-- name: &quot;float&quot;, typeName: &quot;&quot;, id: 9, branchId: 0, recurseId: &#45;1, attributes: 512, notes: &quot;&quot; -->
<g id="node7" class="node">
<title>9</title>
<ellipse fill="none" stroke="black" cx="908.62" cy="-126" rx="27.81" ry="18"/>
<text xml:space="preserve" text-anchor="middle" x="908.62" y="-120.95" font-family="Times New Roman,serif" font-size="14.00">float</text>
</g>
<!-- 5&#45;&gt;9 -->
<g id="edge6" class="edge">
<title>5&#45;&gt;9</title>
<path fill="none" stroke="black" d="M334.25,-126C431.5,-126 756.72,-126 869.06,-126"/>
<polygon fill="black" stroke="black" points="868.96,-129.5 878.96,-126 868.96,-122.5 868.96,-129.5"/>
</g>
<!-- 11 -->
<!-- name: &quot;If False&quot;, typeName: &quot;&quot;, id: 11, branchId: 0, recurseId: &#45;1, attributes: 4, notes: &quot;&quot; -->
<g id="node9" class="node">
<title>11</title>
<polygon fill="none" stroke="black" points="736.65,-90 681.4,-72 736.65,-54 791.9,-72 736.65,-90"/>
<text xml:space="preserve" text-anchor="middle" x="736.65" y="-66.95" font-family="Times New Roman,serif" font-size="14.00">If False</text>
</g>
<!-- 10&#45;&gt;11 -->
<g id="edge8" class="edge">
<title>10&#45;&gt;11</title>
<path fill="none" stroke="black" d="M439.91,-72C515.73,-72 607.41,-72 668.4,-72"/>
<polygon fill="black" stroke="black" points="668.28,-75.5 678.28,-72 668.28,-68.5 668.28,-75.5"/>
</g>
<!-- 13 -->
<!-- name: &quot;If True&quot;, typeName: &quot;&quot;, id: 13, branchId: 1, recurseId: &#45;1, attributes: 4, notes: &quot;&quot; -->
<g id="node11" class="node">
<title>13</title>
<polygon fill="none" stroke="black" points="557.01,-40 505.38,-22 557.01,-4 608.64,-22 557.01,-40"/>
<text xml:space="preserve" text-anchor="middle" x="557.01" y="-16.95" font-family="Times New Roman,serif" font-size="14.00">If True</text>
</g>
<!-- 10&#45;&gt;13 -->
<g id="edge10" class="edge">
<title>10&#45;&gt;13</title>
<path fill="none" stroke="black" d="M398.67,-53.52C437.5,-45.74 480.85,-37.06 512.2,-30.78"/>
<polygon fill="black" stroke="black" points="512.57,-34.27 521.69,-28.88 511.2,-27.41 512.57,-34.27"/>
</g>
<!-- 12 -->
<!-- name: &quot;[No Data]&quot;, typeName: &quot;&quot;, id: 12, branchId: 0, recurseId: &#45;1, attributes: 512, notes: &quot;&quot; -->
<g id="node10" class="node">
<title>12</title>
<ellipse fill="none" stroke="black" cx="908.62" cy="-72" rx="48.28" ry="18"/>
<text xml:space="preserve" text-anchor="middle" x="908.62" y="-66.95" font-family="Times New Roman,serif" font-size="14.00">[No Data]</text>
</g>
<!-- 11&#45;&gt;12 -->
<g id="edge9" class="edge">
<title>11&#45;&gt;12</title>
<path fill="none" stroke="black" d="M793.31,-72C811.02,-72 830.67,-72 848.61,-72"/>
<polygon fill="black" stroke="black" points="848.6,-75.5 858.6,-72 848.6,-68.5 848.6,-75.5"/>
</g>
<!-- 14 -->
<!-- name: &quot;Rowing Time&quot;, typeName: &quot;&quot;, id: 14, branchId: 0, recurseId: &#45;1, attributes: 0, notes: &quot;&quot; -->
<g id="node12" class="node">
<title>14</title>
<ellipse fill="none" stroke="black" cx="736.65" cy="-18" rx="62.1" ry="18"/>
<text xml:space="preserve" text-anchor="middle" x="736.65" y="-12.95" font-family="Times New Roman,serif" font-size="14.00">Rowing Time</text>
</g>
<!-- 13&#45;&gt;14 -->
<g id="edge11" class="edge">
<title>13&#45;&gt;14</title>
<path fill="none" stroke="black" d="M606.55,-20.91C623.99,-20.51 644.05,-20.06 663.08,-19.63"/>
<polygon fill="black" stroke="black" points="663.02,-23.14 672.94,-19.41 662.87,-16.14 663.02,-23.14"/>
</g>
<!-- 15 -->
<!-- name: &quot;float&quot;, typeName: &quot;&quot;, id: 15, branchId: 0, recurseId: &#45;1, attributes: 512, notes: &quot;&quot; -->
<g id="node13" class="node">
<title>15</title>
<ellipse fill="none" stroke="black" cx="908.62" cy="-18" rx="27.81" ry="18"/>
<text xml:space="preserve" text-anchor="middle" x="908.62" y="-12.95" font-family="Times New Roman,serif" font-size="14.00">float</text>
</g>
<!-- 14&#45;&gt;15 -->
<g id="edge12" class="edge">
<title>14&#45;&gt;15</title>
<path fill="none" stroke="black" d="M799.02,-18C822.39,-18 848.35,-18 869.02,-18"/>
<polygon fill="black" stroke="black" points="869.01,-21.5 879.01,-18 869.01,-14.5 869.01,-21.5"/>
</g>
</g>
</svg>
