<?xml version="1.0" encoding="UTF-8" standalone="no"?>
<!DOCTYPE svg PUBLIC "-//W3C//DTD SVG 1.1//EN"
 "http://www.w3.org/Graphics/SVG/1.1/DTD/svg11.dtd">
<!-- Generated by graphviz version 14.0.2 (20251019.1705)
 -->
<!-- Title: AuthorAndMessage Pages: 1 -->
<svg width="568pt" height="314pt"
 viewBox="0.00 0.00 568.00 314.00" xmlns="http://www.w3.org/2000/svg" xmlns:xlink="http://www.w3.org/1999/xlink">
<g id="graph0" class="graph" transform="scale(1 1) rotate(0) translate(4 310)">
<title>AuthorAndMessage</title>
<polygon fill="white" stroke="none" points="-4,4 -4,-310 564.26,-310 564.26,4 -4,4"/>
<!-- 0 -->
<!-- name: &quot;AuthorAndMessage&quot;, typeName: &quot;&quot;, id: 0, branchId: 0, recurseId: &#45;1, attributes: 0, notes: &quot;&quot; -->
<g id="node1" class="node">
<title>0</title>
<ellipse fill="none" stroke="black" cx="85.64" cy="-153" rx="85.64" ry="18"/>
<text xml:space="preserve" text-anchor="middle" x="85.64" y="-147.95" font-family="Times New Roman,serif" font-size="14.00">AuthorAndMessage</text>
</g>
<!-- 1 -->
<!-- name: &quot;chat&quot;, typeName: &quot;&quot;, id: 1, branchId: 0, recurseId: &#45;1, attributes: 0, notes: &quot;&quot; -->
<g id="node2" class="node">
<title>1</title>
<ellipse fill="none" stroke="black" cx="272.46" cy="-288" rx="27" ry="18"/>
<text xml:space="preserve" text-anchor="middle" x="272.46" y="-282.95" font-family="Times New Roman,serif" font-size="14.00">chat</text>
</g>
<!-- 0&#45;&gt;1 -->
<g id="edge1" class="edge">
<title>0&#45;&gt;1</title>
<path fill="none" stroke="black" d="M103.12,-171.09C125.07,-194.35 165.95,-234.84 207.29,-261 216.51,-266.84 227.21,-271.92 237.21,-276.05"/>
<polygon fill="black" stroke="black" points="235.67,-279.2 246.25,-279.59 238.22,-272.69 235.67,-279.2"/>
</g>
<!-- 3 -->
<!-- name: &quot;whisper&quot;, typeName: &quot;&quot;, id: 3, branchId: 0, recurseId: &#45;1, attributes: 0, notes: &quot;&quot; -->
<g id="node4" class="node">
<title>3</title>
<ellipse fill="none" stroke="black" cx="272.46" cy="-234" rx="40.09" ry="18"/>
<text xml:space="preserve" text-anchor="middle" x="272.46" y="-228.95" font-family="Times New Roman,serif" font-size="14.00">whisper</text>
</g>
<!-- 0&#45;&gt;3 -->
<g id="edge3" class="edge">
<title>0&#45;&gt;3</title>
<path fill="none" stroke="black" d="M123.24,-169.64C147.11,-180.43 178.97,-194.71 207.29,-207 215.15,-210.41 223.58,-214.01 231.66,-217.42"/>
<polygon fill="black" stroke="black" points="230.04,-220.53 240.61,-221.19 232.75,-214.08 230.04,-220.53"/>
</g>
<!-- 5 -->
<!-- name: &quot;announcement&quot;, typeName: &quot;&quot;, id: 5, branchId: 0, recurseId: &#45;1, attributes: 0, notes: &quot;&quot; -->
<g id="node6" class="node">
<title>5</title>
<ellipse fill="none" stroke="black" cx="272.46" cy="-180" rx="65.17" ry="18"/>
<text xml:space="preserve" text-anchor="middle" x="272.46" y="-174.95" font-family="Times New Roman,serif" font-size="14.00">announcement</text>
</g>
<!-- 0&#45;&gt;5 -->
<g id="edge5" class="edge">
<title>0&#45;&gt;5</title>
<path fill="none" stroke="black" d="M157.04,-163.28C172.08,-165.48 187.94,-167.8 202.91,-169.99"/>
<polygon fill="black" stroke="black" points="202.25,-173.43 212.65,-171.41 203.26,-166.5 202.25,-173.43"/>
</g>
<!-- 7 -->
<!-- name: &quot;Message Type&quot;, typeName: &quot;&quot;, id: 7, branchId: 0, recurseId: &#45;1, attributes: 0, notes: &quot;&quot; -->
<g id="node8" class="node">
<title>7</title>
<ellipse fill="none" stroke="black" cx="272.46" cy="-126" rx="64.15" ry="18"/>
<text xml:space="preserve" text-anchor="middle" x="272.46" y="-120.95" font-family="Times New Roman,serif" font-size="14.00">Message Type</text>
</g>
<!-- 0&#45;&gt;7 -->
<g id="edge7" class="edge">
<title>0&#45;&gt;7</title>
<path fill="none" stroke="black" d="M157.04,-142.72C172.24,-140.49 188.28,-138.15 203.39,-135.94"/>
<polygon fill="black" stroke="black" points="203.85,-139.41 213.24,-134.51 202.84,-132.49 203.85,-139.41"/>
</g>
<!-- 9 -->
<!-- name: &quot;Player Name&quot;, typeName: &quot;&quot;, id: 9, branchId: 0, recurseId: &#45;1, attributes: 0, notes: &quot;&quot; -->
<g id="node10" class="node">
<title>9</title>
<ellipse fill="none" stroke="black" cx="272.46" cy="-72" rx="59.54" ry="18"/>
<text xml:space="preserve" text-anchor="middle" x="272.46" y="-66.95" font-family="Times New Roman,serif" font-size="14.00">Player Name</text>
</g>
<!-- 0&#45;&gt;9 -->
<g id="edge9" class="edge">
<title>0&#45;&gt;9</title>
<path fill="none" stroke="black" d="M123.24,-136.36C147.11,-125.57 178.97,-111.29 207.29,-99 213.25,-96.41 219.54,-93.72 225.76,-91.08"/>
<polygon fill="black" stroke="black" points="226.85,-94.42 234.7,-87.3 224.12,-87.97 226.85,-94.42"/>
</g>
<!-- 11 -->
<!-- name: &quot;Message&quot;, typeName: &quot;&quot;, id: 11, branchId: 0, recurseId: &#45;1, attributes: 0, notes: &quot;&quot; -->
<g id="node12" class="node">
<title>11</title>
<ellipse fill="none" stroke="black" cx="272.46" cy="-18" rx="43.67" ry="18"/>
<text xml:space="preserve" text-anchor="middle" x="272.46" y="-12.95" font-family="Times New Roman,serif" font-size="14.00">Message</text>
</g>
<!-- 0&#45;&gt;11 -->
<g id="edge11" class="edge">
<title>0&#45;&gt;11</title>
<path fill="none" stroke="black" d="M103.12,-134.91C125.07,-111.65 165.95,-71.16 207.29,-45 213.67,-40.96 220.76,-37.29 227.83,-34.04"/>
<polygon fill="black" stroke="black" points="228.92,-37.38 236.7,-30.19 226.13,-30.96 228.92,-37.38"/>
</g>
<!-- 2 -->
<!-- name: &quot;enum TextPacketType&quot;, typeName: &quot;&quot;, id: 2, branchId: 0, recurseId: &#45;1, attributes: 512, notes: &quot;&quot; -->
<g id="node3" class="node">
<title>2</title>
<ellipse fill="none" stroke="black" cx="466.95" cy="-288" rx="93.32" ry="18"/>
<text xml:space="preserve" text-anchor="middle" x="466.95" y="-282.95" font-family="Times New Roman,serif" font-size="14.00">enum TextPacketType</text>
</g>
<!-- 1&#45;&gt;2 -->
<g id="edge2" class="edge">
<title>1&#45;&gt;2</title>
<path fill="none" stroke="black" d="M299.82,-288C316.36,-288 338.89,-288 362.01,-288"/>
<polygon fill="black" stroke="black" points="361.87,-291.5 371.87,-288 361.87,-284.5 361.87,-291.5"/>
</g>
<!-- 4 -->
<!-- name: &quot;enum TextPacketType&quot;, typeName: &quot;&quot;, id: 4, branchId: 0, recurseId: &#45;1, attributes: 512, notes: &quot;&quot; -->
<g id="node5" class="node">
<title>4</title>
<ellipse fill="none" stroke="black" cx="466.95" cy="-234" rx="93.32" ry="18"/>
<text xml:space="preserve" text-anchor="middle" x="466.95" y="-228.95" font-family="Times New Roman,serif" font-size="14.00">enum TextPacketType</text>
</g>
<!-- 3&#45;&gt;4 -->
<g id="edge4" class="edge">
<title>3&#45;&gt;4</title>
<path fill="none" stroke="black" d="M312.87,-234C327.31,-234 344.4,-234 361.84,-234"/>
<polygon fill="black" stroke="black" points="361.82,-237.5 371.82,-234 361.82,-230.5 361.82,-237.5"/>
</g>
<!-- 6 -->
<!-- name: &quot;enum TextPacketType&quot;, typeName: &quot;&quot;, id: 6, branchId: 0, recurseId: &#45;1, attributes: 512, notes: &quot;&quot; -->
<g id="node7" class="node">
<title>6</title>
<ellipse fill="none" stroke="black" cx="466.95" cy="-180" rx="93.32" ry="18"/>
<text xml:space="preserve" text-anchor="middle" x="466.95" y="-174.95" font-family="Times New Roman,serif" font-size="14.00">enum TextPacketType</text>
</g>
<!-- 5&#45;&gt;6 -->
<g id="edge6" class="edge">
<title>5&#45;&gt;6</title>
<path fill="none" stroke="black" d="M338.09,-180C345.81,-180 353.83,-180 361.93,-180"/>
<polygon fill="black" stroke="black" points="361.9,-183.5 371.9,-180 361.9,-176.5 361.9,-183.5"/>
</g>
<!-- 8 -->
<!-- name: &quot;enum TextPacketType&quot;, typeName: &quot;&quot;, id: 8, branchId: 0, recurseId: &#45;1, attributes: 512, notes: &quot;&quot; -->
<g id="node9" class="node">
<title>8</title>
<ellipse fill="none" stroke="black" cx="466.95" cy="-126" rx="93.32" ry="18"/>
<text xml:space="preserve" text-anchor="middle" x="466.95" y="-120.95" font-family="Times New Roman,serif" font-size="14.00">enum TextPacketType</text>
</g>
<!-- 7&#45;&gt;8 -->
<g id="edge8" class="edge">
<title>7&#45;&gt;8</title>
<path fill="none" stroke="black" d="M337.02,-126C345,-126 353.32,-126 361.72,-126"/>
<polygon fill="black" stroke="black" points="361.69,-129.5 371.69,-126 361.69,-122.5 361.69,-129.5"/>
</g>
<!-- 10 -->
<!-- name: &quot;string&quot;, typeName: &quot;&quot;, id: 10, branchId: 0, recurseId: &#45;1, attributes: 512, notes: &quot;&quot; -->
<g id="node11" class="node">
<title>10</title>
<ellipse fill="none" stroke="black" cx="466.95" cy="-72" rx="31.9" ry="18"/>
<text xml:space="preserve" text-anchor="middle" x="466.95" y="-66.95" font-family="Times New Roman,serif" font-size="14.00">string</text>
</g>
<!-- 9&#45;&gt;10 -->
<g id="edge10" class="edge">
<title>9&#45;&gt;10</title>
<path fill="none" stroke="black" d="M332.25,-72C361.63,-72 396.52,-72 423.29,-72"/>
<polygon fill="black" stroke="black" points="423.08,-75.5 433.08,-72 423.08,-68.5 423.08,-75.5"/>
</g>
<!-- 12 -->
<!-- name: &quot;string&quot;, typeName: &quot;&quot;, id: 12, branchId: 0, recurseId: &#45;1, attributes: 512, notes: &quot;&quot; -->
<g id="node13" class="node">
<title>12</title>
<ellipse fill="none" stroke="black" cx="466.95" cy="-18" rx="31.9" ry="18"/>
<text xml:space="preserve" text-anchor="middle" x="466.95" y="-12.95" font-family="Times New Roman,serif" font-size="14.00">string</text>
</g>
<!-- 11&#45;&gt;12 -->
<g id="edge12" class="edge">
<title>11&#45;&gt;12</title>
<path fill="none" stroke="black" d="M316.18,-18C348.14,-18 391.64,-18 423.53,-18"/>
<polygon fill="black" stroke="black" points="423.2,-21.5 433.2,-18 423.2,-14.5 423.2,-21.5"/>
</g>
</g>
</svg>
