<?xml version="1.0" encoding="UTF-8" standalone="no"?>
<!DOCTYPE svg PUBLIC "-//W3C//DTD SVG 1.1//EN"
 "http://www.w3.org/Graphics/SVG/1.1/DTD/svg11.dtd">
<!-- Generated by graphviz version 13.1.0 (20250701.0955)
 -->
<!-- Title: BiomeWeightedData Pages: 1 -->
<svg width="442pt" height="98pt"
 viewBox="0.00 0.00 442.00 98.00" xmlns="http://www.w3.org/2000/svg" xmlns:xlink="http://www.w3.org/1999/xlink">
<g id="graph0" class="graph" transform="scale(1 1) rotate(0) translate(4 94)">
<title>BiomeWeightedData</title>
<polygon fill="white" stroke="none" points="-4,4 -4,-94 438.36,-94 438.36,4 -4,4"/>
<!-- 275 -->
<!-- name: &quot;BiomeWeightedData&quot;, typeName: &quot;&quot;, id: 275, branchId: 0, recurseId: &#45;1, attributes: 0, notes: &quot;&quot; -->
<g id="node1" class="node">
<title>275</title>
<ellipse fill="none" stroke="black" cx="88.71" cy="-45" rx="88.71" ry="18"/>
<text xml:space="preserve" text-anchor="middle" x="88.71" y="-39.95" font-family="Times New Roman,serif" font-size="14.00">BiomeWeightedData</text>
</g>
<!-- 276 -->
<!-- name: &quot;biome&quot;, typeName: &quot;short&quot;, id: 276, branchId: 0, recurseId: &#45;1, attributes: 256, notes: &quot;&quot; -->
<g id="node2" class="node">
<title>276</title>
<ellipse fill="none" stroke="black" cx="249.42" cy="-72" rx="34.46" ry="18"/>
<text xml:space="preserve" text-anchor="middle" x="249.42" y="-66.95" font-family="Times New Roman,serif" font-size="14.00">biome</text>
</g>
<!-- 275&#45;&gt;276 -->
<g id="edge1" class="edge">
<title>275&#45;&gt;276</title>
<path fill="none" stroke="black" d="M157.94,-56.61C173.99,-59.34 190.65,-62.17 205.23,-64.65"/>
<polygon fill="black" stroke="black" points="204.5,-68.08 214.95,-66.3 205.67,-61.18 204.5,-68.08"/>
</g>
<!-- 278 -->
<!-- name: &quot;weight&quot;, typeName: &quot;&quot;, id: 278, branchId: 0, recurseId: &#45;1, attributes: 0, notes: &quot;&quot; -->
<g id="node4" class="node">
<title>278</title>
<ellipse fill="none" stroke="black" cx="249.42" cy="-18" rx="36" ry="18"/>
<text xml:space="preserve" text-anchor="middle" x="249.42" y="-12.95" font-family="Times New Roman,serif" font-size="14.00">weight</text>
</g>
<!-- 275&#45;&gt;278 -->
<g id="edge3" class="edge">
<title>275&#45;&gt;278</title>
<path fill="none" stroke="black" d="M157.94,-33.39C173.45,-30.75 189.55,-28.02 203.78,-25.59"/>
<polygon fill="black" stroke="black" points="203.99,-29.11 213.26,-23.98 202.82,-22.21 203.99,-29.11"/>
</g>
<!-- 277 -->
<!-- name: &quot;short&quot;, typeName: &quot;&quot;, id: 277, branchId: 0, recurseId: &#45;1, attributes: 512, notes: &quot;&quot; -->
<g id="node3" class="node">
<title>277</title>
<ellipse fill="none" stroke="black" cx="377.89" cy="-72" rx="29.34" ry="18"/>
<text xml:space="preserve" text-anchor="middle" x="377.89" y="-66.95" font-family="Times New Roman,serif" font-size="14.00">short</text>
</g>
<!-- 276&#45;&gt;277 -->
<g id="edge2" class="edge">
<title>276&#45;&gt;277</title>
<path fill="none" stroke="black" d="M284.31,-72C300.48,-72 319.94,-72 336.84,-72"/>
<polygon fill="black" stroke="black" points="336.54,-75.5 346.54,-72 336.54,-68.5 336.54,-75.5"/>
</g>
<!-- 279 -->
<!-- name: &quot;unsigned int&quot;, typeName: &quot;&quot;, id: 279, branchId: 0, recurseId: &#45;1, attributes: 512, notes: &quot;&quot; -->
<g id="node5" class="node">
<title>279</title>
<ellipse fill="none" stroke="black" cx="377.89" cy="-18" rx="56.47" ry="18"/>
<text xml:space="preserve" text-anchor="middle" x="377.89" y="-12.95" font-family="Times New Roman,serif" font-size="14.00">unsigned int</text>
</g>
<!-- 278&#45;&gt;279 -->
<g id="edge4" class="edge">
<title>278&#45;&gt;279</title>
<path fill="none" stroke="black" d="M285.65,-18C293.19,-18 301.39,-18 309.69,-18"/>
<polygon fill="black" stroke="black" points="309.48,-21.5 319.48,-18 309.48,-14.5 309.48,-21.5"/>
</g>
</g>
</svg>
