<?xml version="1.0" encoding="UTF-8" standalone="no"?>
<!DOCTYPE svg PUBLIC "-//W3C//DTD SVG 1.1//EN"
 "http://www.w3.org/Graphics/SVG/1.1/DTD/svg11.dtd">
<!-- Generated by graphviz version 14.0.1 (20251006.0113)
 -->
<!-- Title: BiomeDefinitionChunkGenData Pages: 1 -->
<svg width="1059pt" height="800pt"
 viewBox="0.00 0.00 1059.00 800.00" xmlns="http://www.w3.org/2000/svg" xmlns:xlink="http://www.w3.org/1999/xlink">
<g id="graph0" class="graph" transform="scale(1 1) rotate(0) translate(4 796)">
<title>BiomeDefinitionChunkGenData</title>
<polygon fill="white" stroke="none" points="-4,4 -4,-796 1054.58,-796 1054.58,4 -4,4"/>
<!-- 50 -->
<!-- name: &quot;BiomeDefinitionChunkGenData&quot;, typeName: &quot;&quot;, id: 50, branchId: 0, recurseId: &#45;1, attributes: 0, notes: &quot;&quot; -->
<g id="node1" class="node">
<title>50</title>
<ellipse fill="none" stroke="black" cx="131.19" cy="-396" rx="131.19" ry="18"/>
<text xml:space="preserve" text-anchor="middle" x="131.19" y="-390.95" font-family="Times New Roman,serif" font-size="14.00">BiomeDefinitionChunkGenData</text>
</g>
<!-- 51 -->
<!-- name: &quot;climate&quot;, typeName: &quot;std::optional&lt;struct BiomeClimateData&gt;&quot;, id: 51, branchId: 0, recurseId: &#45;1, attributes: 256, notes: &quot;&quot; -->
<g id="node2" class="node">
<title>51</title>
<ellipse fill="none" stroke="black" cx="419.34" cy="-774" rx="38.56" ry="18"/>
<text xml:space="preserve" text-anchor="middle" x="419.34" y="-768.95" font-family="Times New Roman,serif" font-size="14.00">climate</text>
</g>
<!-- 50&#45;&gt;51 -->
<g id="edge1" class="edge">
<title>50&#45;&gt;51</title>
<path fill="none" stroke="black" d="M135.12,-414.37C145.48,-473 186,-657.05 298.39,-747 318.22,-762.88 345.54,-769.83 369.1,-772.72"/>
<polygon fill="black" stroke="black" points="368.51,-776.18 378.81,-773.68 369.21,-769.21 368.51,-776.18"/>
</g>
<!-- 67 -->
<!-- name: &quot;consolidated featres&quot;, typeName: &quot;std::optional&lt;struct BiomeConsolidatedFeaturesData&gt;&quot;, id: 67, branchId: 0, recurseId: &#45;1, attributes: 256, notes: &quot;&quot; -->
<g id="node4" class="node">
<title>67</title>
<ellipse fill="none" stroke="black" cx="419.34" cy="-720" rx="84.62" ry="18"/>
<text xml:space="preserve" text-anchor="middle" x="419.34" y="-714.95" font-family="Times New Roman,serif" font-size="14.00">consolidated featres</text>
</g>
<!-- 50&#45;&gt;67 -->
<g id="edge3" class="edge">
<title>50&#45;&gt;67</title>
<path fill="none" stroke="black" d="M136.73,-414.13C150.81,-466.48 198.94,-618.8 298.39,-693 308.01,-700.18 319.21,-705.51 330.81,-709.46"/>
<polygon fill="black" stroke="black" points="329.51,-712.72 340.1,-712.27 331.54,-706.02 329.51,-712.72"/>
</g>
<!-- 128 -->
<!-- name: &quot;mountain params&quot;, typeName: &quot;std::optional&lt;struct BiomeMountainParamsData&gt;&quot;, id: 128, branchId: 0, recurseId: &#45;1, attributes: 256, notes: &quot;&quot; -->
<g id="node6" class="node">
<title>128</title>
<ellipse fill="none" stroke="black" cx="419.34" cy="-666" rx="75.92" ry="18"/>
<text xml:space="preserve" text-anchor="middle" x="419.34" y="-660.95" font-family="Times New Roman,serif" font-size="14.00">mountain params</text>
</g>
<!-- 50&#45;&gt;128 -->
<g id="edge5" class="edge">
<title>50&#45;&gt;128</title>
<path fill="none" stroke="black" d="M139.16,-414.42C157.54,-460.32 211.9,-580.31 298.39,-639 309.96,-646.85 323.46,-652.45 337.14,-656.44"/>
<polygon fill="black" stroke="black" points="336.1,-659.78 346.66,-658.92 337.87,-653.01 336.1,-659.78"/>
</g>
<!-- 151 -->
<!-- name: &quot;surface material adjustments&quot;, typeName: &quot;std::optional&lt;struct BiomeSurfaceMaterialAdjustmentData&gt;&quot;, id: 151, branchId: 0, recurseId: &#45;1, attributes: 256, notes: &quot;&quot; -->
<g id="node8" class="node">
<title>151</title>
<ellipse fill="none" stroke="black" cx="419.34" cy="-612" rx="117.89" ry="18"/>
<text xml:space="preserve" text-anchor="middle" x="419.34" y="-606.95" font-family="Times New Roman,serif" font-size="14.00">surface material adjustments</text>
</g>
<!-- 50&#45;&gt;151 -->
<g id="edge7" class="edge">
<title>50&#45;&gt;151</title>
<path fill="none" stroke="black" d="M142.64,-414.2C165.55,-452.39 224.17,-540.97 298.39,-585 305.6,-589.28 313.42,-592.88 321.5,-595.91"/>
<polygon fill="black" stroke="black" points="320.21,-599.17 330.8,-599.09 322.47,-592.54 320.21,-599.17"/>
</g>
<!-- 195 -->
<!-- name: &quot;surface materials&quot;, typeName: &quot;std::optional&lt;struct BiomeSurfaceMaterialData&gt;&quot;, id: 195, branchId: 0, recurseId: &#45;1, attributes: 256, notes: &quot;&quot; -->
<g id="node10" class="node">
<title>195</title>
<ellipse fill="none" stroke="black" cx="419.34" cy="-558" rx="74.38" ry="18"/>
<text xml:space="preserve" text-anchor="middle" x="419.34" y="-552.95" font-family="Times New Roman,serif" font-size="14.00">surface materials</text>
</g>
<!-- 50&#45;&gt;195 -->
<g id="edge9" class="edge">
<title>50&#45;&gt;195</title>
<path fill="none" stroke="black" d="M148.72,-413.99C176.64,-443.23 236.18,-500.81 298.39,-531 312.22,-537.71 327.76,-542.78 342.96,-546.61"/>
<polygon fill="black" stroke="black" points="341.93,-549.96 352.46,-548.83 343.52,-543.15 341.93,-549.96"/>
</g>
<!-- 202 -->
<!-- name: &quot;has default overworld surface&quot;, typeName: &quot;&quot;, id: 202, branchId: 0, recurseId: &#45;1, attributes: 0, notes: &quot;&quot; -->
<g id="node12" class="node">
<title>202</title>
<ellipse fill="none" stroke="black" cx="419.34" cy="-504" rx="120.96" ry="18"/>
<text xml:space="preserve" text-anchor="middle" x="419.34" y="-498.95" font-family="Times New Roman,serif" font-size="14.00">has default overworld surface</text>
</g>
<!-- 50&#45;&gt;202 -->
<g id="edge11" class="edge">
<title>50&#45;&gt;202</title>
<path fill="none" stroke="black" d="M163.11,-413.78C195.8,-431.92 249.32,-459.78 298.39,-477 308.89,-480.68 320.08,-483.99 331.26,-486.91"/>
<polygon fill="black" stroke="black" points="330.38,-490.3 340.93,-489.34 332.09,-483.51 330.38,-490.3"/>
</g>
<!-- 204 -->
<!-- name: &quot;has swamp surface&quot;, typeName: &quot;&quot;, id: 204, branchId: 0, recurseId: &#45;1, attributes: 0, notes: &quot;&quot; -->
<g id="node14" class="node">
<title>204</title>
<ellipse fill="none" stroke="black" cx="419.34" cy="-450" rx="81.55" ry="18"/>
<text xml:space="preserve" text-anchor="middle" x="419.34" y="-444.95" font-family="Times New Roman,serif" font-size="14.00">has swamp surface</text>
</g>
<!-- 50&#45;&gt;204 -->
<g id="edge13" class="edge">
<title>50&#45;&gt;204</title>
<path fill="none" stroke="black" d="M210.39,-410.76C252.37,-418.68 303.82,-428.39 345.04,-436.17"/>
<polygon fill="black" stroke="black" points="344.14,-439.56 354.61,-437.97 345.43,-432.68 344.14,-439.56"/>
</g>
<!-- 206 -->
<!-- name: &quot;has frozen ocean surface&quot;, typeName: &quot;&quot;, id: 206, branchId: 0, recurseId: &#45;1, attributes: 0, notes: &quot;&quot; -->
<g id="node16" class="node">
<title>206</title>
<ellipse fill="none" stroke="black" cx="419.34" cy="-396" rx="102.53" ry="18"/>
<text xml:space="preserve" text-anchor="middle" x="419.34" y="-390.95" font-family="Times New Roman,serif" font-size="14.00">has frozen ocean surface</text>
</g>
<!-- 50&#45;&gt;206 -->
<g id="edge15" class="edge">
<title>50&#45;&gt;206</title>
<path fill="none" stroke="black" d="M262.71,-396C277.01,-396 291.49,-396 305.55,-396"/>
<polygon fill="black" stroke="black" points="305.22,-399.5 315.22,-396 305.22,-392.5 305.22,-399.5"/>
</g>
<!-- 208 -->
<!-- name: &quot;has the end surface&quot;, typeName: &quot;&quot;, id: 208, branchId: 0, recurseId: &#45;1, attributes: 0, notes: &quot;&quot; -->
<g id="node18" class="node">
<title>208</title>
<ellipse fill="none" stroke="black" cx="419.34" cy="-342" rx="82.06" ry="18"/>
<text xml:space="preserve" text-anchor="middle" x="419.34" y="-336.95" font-family="Times New Roman,serif" font-size="14.00">has the end surface</text>
</g>
<!-- 50&#45;&gt;208 -->
<g id="edge17" class="edge">
<title>50&#45;&gt;208</title>
<path fill="none" stroke="black" d="M210.39,-381.24C252.37,-373.32 303.82,-363.61 345.04,-355.83"/>
<polygon fill="black" stroke="black" points="345.43,-359.32 354.61,-354.03 344.14,-352.44 345.43,-359.32"/>
</g>
<!-- 210 -->
<!-- name: &quot;mesa surface&quot;, typeName: &quot;std::optional&lt;struct BiomeMesaSurfaceData&gt;&quot;, id: 210, branchId: 0, recurseId: &#45;1, attributes: 256, notes: &quot;&quot; -->
<g id="node20" class="node">
<title>210</title>
<ellipse fill="none" stroke="black" cx="419.34" cy="-288" rx="59.54" ry="18"/>
<text xml:space="preserve" text-anchor="middle" x="419.34" y="-282.95" font-family="Times New Roman,serif" font-size="14.00">mesa surface</text>
</g>
<!-- 50&#45;&gt;210 -->
<g id="edge19" class="edge">
<title>50&#45;&gt;210</title>
<path fill="none" stroke="black" d="M163.11,-378.22C195.8,-360.08 249.32,-332.22 298.39,-315 316.65,-308.59 337.03,-303.33 355.74,-299.22"/>
<polygon fill="black" stroke="black" points="356.29,-302.68 365.35,-297.18 354.84,-295.83 356.29,-302.68"/>
</g>
<!-- 226 -->
<!-- name: &quot;capped surface&quot;, typeName: &quot;std::optional&lt;struct BiomeCappedSurfaceData&gt;&quot;, id: 226, branchId: 0, recurseId: &#45;1, attributes: 256, notes: &quot;&quot; -->
<g id="node22" class="node">
<title>226</title>
<ellipse fill="none" stroke="black" cx="419.34" cy="-234" rx="66.19" ry="18"/>
<text xml:space="preserve" text-anchor="middle" x="419.34" y="-228.95" font-family="Times New Roman,serif" font-size="14.00">capped surface</text>
</g>
<!-- 50&#45;&gt;226 -->
<g id="edge21" class="edge">
<title>50&#45;&gt;226</title>
<path fill="none" stroke="black" d="M148.72,-378.01C176.64,-348.77 236.18,-291.19 298.39,-261 313.75,-253.55 331.22,-248.11 347.98,-244.17"/>
<polygon fill="black" stroke="black" points="348.37,-247.67 357.39,-242.11 346.87,-240.83 348.37,-247.67"/>
</g>
<!-- 252 -->
<!-- name: &quot;overworld gen rules&quot;, typeName: &quot;std::optional&lt;struct BiomeOverworldGenRulesData&gt;&quot;, id: 252, branchId: 0, recurseId: &#45;1, attributes: 256, notes: &quot;&quot; -->
<g id="node24" class="node">
<title>252</title>
<ellipse fill="none" stroke="black" cx="419.34" cy="-180" rx="85.13" ry="18"/>
<text xml:space="preserve" text-anchor="middle" x="419.34" y="-174.95" font-family="Times New Roman,serif" font-size="14.00">overworld gen rules</text>
</g>
<!-- 50&#45;&gt;252 -->
<g id="edge23" class="edge">
<title>50&#45;&gt;252</title>
<path fill="none" stroke="black" d="M142.64,-377.8C165.55,-339.61 224.17,-251.03 298.39,-207 309.18,-200.6 321.34,-195.71 333.67,-191.98"/>
<polygon fill="black" stroke="black" points="334.35,-195.43 343.06,-189.4 332.49,-188.68 334.35,-195.43"/>
</g>
<!-- 323 -->
<!-- name: &quot;multinoise gen rules&quot;, typeName: &quot;std::optional&lt;struct BiomeMultinoiseGenRulesData&gt;&quot;, id: 323, branchId: 0, recurseId: &#45;1, attributes: 256, notes: &quot;&quot; -->
<g id="node26" class="node">
<title>323</title>
<ellipse fill="none" stroke="black" cx="419.34" cy="-126" rx="86.67" ry="18"/>
<text xml:space="preserve" text-anchor="middle" x="419.34" y="-120.95" font-family="Times New Roman,serif" font-size="14.00">multinoise gen rules</text>
</g>
<!-- 50&#45;&gt;323 -->
<g id="edge25" class="edge">
<title>50&#45;&gt;323</title>
<path fill="none" stroke="black" d="M139.16,-377.58C157.54,-331.68 211.9,-211.69 298.39,-153 308.09,-146.41 319.16,-141.41 330.55,-137.62"/>
<polygon fill="black" stroke="black" points="331.51,-140.98 340.09,-134.77 329.51,-134.28 331.51,-140.98"/>
</g>
<!-- 341 -->
<!-- name: &quot;legacy world gen rules&quot;, typeName: &quot;std::optional&lt;struct BiomeLegacyWorldGenRulesData&gt;&quot;, id: 341, branchId: 0, recurseId: &#45;1, attributes: 256, notes: &quot;&quot; -->
<g id="node28" class="node">
<title>341</title>
<ellipse fill="none" stroke="black" cx="419.34" cy="-72" rx="95.37" ry="18"/>
<text xml:space="preserve" text-anchor="middle" x="419.34" y="-66.95" font-family="Times New Roman,serif" font-size="14.00">legacy world gen rules</text>
</g>
<!-- 50&#45;&gt;341 -->
<g id="edge27" class="edge">
<title>50&#45;&gt;341</title>
<path fill="none" stroke="black" d="M136.73,-377.87C150.81,-325.52 198.94,-173.2 298.39,-99 306.34,-93.06 315.37,-88.39 324.81,-84.72"/>
<polygon fill="black" stroke="black" points="325.87,-88.06 334.18,-81.49 323.58,-81.44 325.87,-88.06"/>
</g>
<!-- 355 -->
<!-- name: &quot;replacement biomes&quot;, typeName: &quot;std::optional&lt;struct BiomeReplacementsData&gt;&quot;, id: 355, branchId: 0, recurseId: &#45;1, attributes: 256, notes: &quot;&quot; -->
<g id="node30" class="node">
<title>355</title>
<ellipse fill="none" stroke="black" cx="419.34" cy="-18" rx="86.15" ry="18"/>
<text xml:space="preserve" text-anchor="middle" x="419.34" y="-12.95" font-family="Times New Roman,serif" font-size="14.00">replacement biomes</text>
</g>
<!-- 50&#45;&gt;355 -->
<g id="edge29" class="edge">
<title>50&#45;&gt;355</title>
<path fill="none" stroke="black" d="M135.12,-377.63C145.48,-319 186,-134.95 298.39,-45 307.35,-37.82 317.85,-32.47 328.84,-28.49"/>
<polygon fill="black" stroke="black" points="329.59,-31.93 338.05,-25.54 327.46,-25.26 329.59,-31.93"/>
</g>
<!-- 66 -->
<!-- name: &quot;std::optional&lt;struct BiomeClimateData&gt;&quot;, typeName: &quot;&quot;, id: 66, branchId: 0, recurseId: &#45;1, attributes: 512, notes: &quot;&quot; -->
<g id="node3" class="node">
<title>66</title>
<ellipse fill="none" stroke="black" cx="813.44" cy="-774" rx="163.44" ry="18"/>
<text xml:space="preserve" text-anchor="middle" x="813.44" y="-768.95" font-family="Times New Roman,serif" font-size="14.00">std::optional&lt;struct BiomeClimateData&gt;</text>
</g>
<!-- 51&#45;&gt;66 -->
<g id="edge2" class="edge">
<title>51&#45;&gt;66</title>
<path fill="none" stroke="black" d="M458.3,-774C500.35,-774 571.14,-774 638.43,-774"/>
<polygon fill="black" stroke="black" points="638.12,-777.5 648.12,-774 638.12,-770.5 638.12,-777.5"/>
</g>
<!-- 127 -->
<!-- name: &quot;std::optional&lt;struct BiomeConsolidatedFeaturesData&gt;&quot;, typeName: &quot;&quot;, id: 127, branchId: 0, recurseId: &#45;1, attributes: 512, notes: &quot;&quot; -->
<g id="node5" class="node">
<title>127</title>
<ellipse fill="none" stroke="black" cx="813.44" cy="-720" rx="213.59" ry="18"/>
<text xml:space="preserve" text-anchor="middle" x="813.44" y="-714.95" font-family="Times New Roman,serif" font-size="14.00">std::optional&lt;struct BiomeConsolidatedFeaturesData&gt;</text>
</g>
<!-- 67&#45;&gt;127 -->
<g id="edge4" class="edge">
<title>67&#45;&gt;127</title>
<path fill="none" stroke="black" d="M504.46,-720C529.6,-720 558.43,-720 588.15,-720"/>
<polygon fill="black" stroke="black" points="588.07,-723.5 598.07,-720 588.07,-716.5 588.07,-723.5"/>
</g>
<!-- 150 -->
<!-- name: &quot;std::optional&lt;struct BiomeMountainParamsData&gt;&quot;, typeName: &quot;&quot;, id: 150, branchId: 0, recurseId: &#45;1, attributes: 512, notes: &quot;&quot; -->
<g id="node7" class="node">
<title>150</title>
<ellipse fill="none" stroke="black" cx="813.44" cy="-666" rx="197.73" ry="18"/>
<text xml:space="preserve" text-anchor="middle" x="813.44" y="-660.95" font-family="Times New Roman,serif" font-size="14.00">std::optional&lt;struct BiomeMountainParamsData&gt;</text>
</g>
<!-- 128&#45;&gt;150 -->
<g id="edge6" class="edge">
<title>128&#45;&gt;150</title>
<path fill="none" stroke="black" d="M495.48,-666C526.85,-666 565,-666 603.8,-666"/>
<polygon fill="black" stroke="black" points="603.8,-669.5 613.8,-666 603.8,-662.5 603.8,-669.5"/>
</g>
<!-- 194 -->
<!-- name: &quot;std::optional&lt;struct BiomeSurfaceMaterialAdjustmentData&gt;&quot;, typeName: &quot;&quot;, id: 194, branchId: 0, recurseId: &#45;1, attributes: 512, notes: &quot;&quot; -->
<g id="node9" class="node">
<title>194</title>
<ellipse fill="none" stroke="black" cx="813.44" cy="-612" rx="237.14" ry="18"/>
<text xml:space="preserve" text-anchor="middle" x="813.44" y="-606.95" font-family="Times New Roman,serif" font-size="14.00">std::optional&lt;struct BiomeSurfaceMaterialAdjustmentData&gt;</text>
</g>
<!-- 151&#45;&gt;194 -->
<g id="edge8" class="edge">
<title>151&#45;&gt;194</title>
<path fill="none" stroke="black" d="M537.72,-612C546.46,-612 555.45,-612 564.61,-612"/>
<polygon fill="black" stroke="black" points="564.34,-615.5 574.34,-612 564.34,-608.5 564.34,-615.5"/>
</g>
<!-- 201 -->
<!-- name: &quot;std::optional&lt;struct BiomeSurfaceMaterialData&gt;&quot;, typeName: &quot;&quot;, id: 201, branchId: 0, recurseId: &#45;1, attributes: 512, notes: &quot;&quot; -->
<g id="node11" class="node">
<title>201</title>
<ellipse fill="none" stroke="black" cx="813.44" cy="-558" rx="193.63" ry="18"/>
<text xml:space="preserve" text-anchor="middle" x="813.44" y="-552.95" font-family="Times New Roman,serif" font-size="14.00">std::optional&lt;struct BiomeSurfaceMaterialData&gt;</text>
</g>
<!-- 195&#45;&gt;201 -->
<g id="edge10" class="edge">
<title>195&#45;&gt;201</title>
<path fill="none" stroke="black" d="M494.09,-558C526.91,-558 567.34,-558 608.25,-558"/>
<polygon fill="black" stroke="black" points="607.99,-561.5 617.99,-558 607.99,-554.5 607.99,-561.5"/>
</g>
<!-- 203 -->
<!-- name: &quot;bool&quot;, typeName: &quot;&quot;, id: 203, branchId: 0, recurseId: &#45;1, attributes: 512, notes: &quot;&quot; -->
<g id="node13" class="node">
<title>203</title>
<ellipse fill="none" stroke="black" cx="813.44" cy="-504" rx="27.3" ry="18"/>
<text xml:space="preserve" text-anchor="middle" x="813.44" y="-498.95" font-family="Times New Roman,serif" font-size="14.00">bool</text>
</g>
<!-- 202&#45;&gt;203 -->
<g id="edge12" class="edge">
<title>202&#45;&gt;203</title>
<path fill="none" stroke="black" d="M540.65,-504C620.81,-504 720.92,-504 774.47,-504"/>
<polygon fill="black" stroke="black" points="774.28,-507.5 784.28,-504 774.28,-500.5 774.28,-507.5"/>
</g>
<!-- 205 -->
<!-- name: &quot;bool&quot;, typeName: &quot;&quot;, id: 205, branchId: 0, recurseId: &#45;1, attributes: 512, notes: &quot;&quot; -->
<g id="node15" class="node">
<title>205</title>
<ellipse fill="none" stroke="black" cx="813.44" cy="-450" rx="27.3" ry="18"/>
<text xml:space="preserve" text-anchor="middle" x="813.44" y="-444.95" font-family="Times New Roman,serif" font-size="14.00">bool</text>
</g>
<!-- 204&#45;&gt;205 -->
<g id="edge14" class="edge">
<title>204&#45;&gt;205</title>
<path fill="none" stroke="black" d="M501.11,-450C584.72,-450 711.72,-450 774.53,-450"/>
<polygon fill="black" stroke="black" points="774.33,-453.5 784.33,-450 774.33,-446.5 774.33,-453.5"/>
</g>
<!-- 207 -->
<!-- name: &quot;bool&quot;, typeName: &quot;&quot;, id: 207, branchId: 0, recurseId: &#45;1, attributes: 512, notes: &quot;&quot; -->
<g id="node17" class="node">
<title>207</title>
<ellipse fill="none" stroke="black" cx="813.44" cy="-396" rx="27.3" ry="18"/>
<text xml:space="preserve" text-anchor="middle" x="813.44" y="-390.95" font-family="Times New Roman,serif" font-size="14.00">bool</text>
</g>
<!-- 206&#45;&gt;207 -->
<g id="edge16" class="edge">
<title>206&#45;&gt;207</title>
<path fill="none" stroke="black" d="M522.34,-396C604.96,-396 716.78,-396 774.49,-396"/>
<polygon fill="black" stroke="black" points="774.43,-399.5 784.43,-396 774.43,-392.5 774.43,-399.5"/>
</g>
<!-- 209 -->
<!-- name: &quot;bool&quot;, typeName: &quot;&quot;, id: 209, branchId: 0, recurseId: &#45;1, attributes: 512, notes: &quot;&quot; -->
<g id="node19" class="node">
<title>209</title>
<ellipse fill="none" stroke="black" cx="813.44" cy="-342" rx="27.3" ry="18"/>
<text xml:space="preserve" text-anchor="middle" x="813.44" y="-336.95" font-family="Times New Roman,serif" font-size="14.00">bool</text>
</g>
<!-- 208&#45;&gt;209 -->
<g id="edge18" class="edge">
<title>208&#45;&gt;209</title>
<path fill="none" stroke="black" d="M501.59,-342C585.25,-342 711.97,-342 774.63,-342"/>
<polygon fill="black" stroke="black" points="774.4,-345.5 784.4,-342 774.4,-338.5 774.4,-345.5"/>
</g>
<!-- 225 -->
<!-- name: &quot;std::optional&lt;struct BiomeMesaSurfaceData&gt;&quot;, typeName: &quot;&quot;, id: 225, branchId: 0, recurseId: &#45;1, attributes: 512, notes: &quot;&quot; -->
<g id="node21" class="node">
<title>225</title>
<ellipse fill="none" stroke="black" cx="813.44" cy="-288" rx="182.37" ry="18"/>
<text xml:space="preserve" text-anchor="middle" x="813.44" y="-282.95" font-family="Times New Roman,serif" font-size="14.00">std::optional&lt;struct BiomeMesaSurfaceData&gt;</text>
</g>
<!-- 210&#45;&gt;225 -->
<g id="edge20" class="edge">
<title>210&#45;&gt;225</title>
<path fill="none" stroke="black" d="M479.04,-288C516.86,-288 568.38,-288 619.6,-288"/>
<polygon fill="black" stroke="black" points="619.36,-291.5 629.36,-288 619.36,-284.5 619.36,-291.5"/>
</g>
<!-- 251 -->
<!-- name: &quot;std::optional&lt;struct BiomeCappedSurfaceData&gt;&quot;, typeName: &quot;&quot;, id: 251, branchId: 0, recurseId: &#45;1, attributes: 512, notes: &quot;&quot; -->
<g id="node23" class="node">
<title>251</title>
<ellipse fill="none" stroke="black" cx="813.44" cy="-234" rx="190.05" ry="18"/>
<text xml:space="preserve" text-anchor="middle" x="813.44" y="-228.95" font-family="Times New Roman,serif" font-size="14.00">std::optional&lt;struct BiomeCappedSurfaceData&gt;</text>
</g>
<!-- 226&#45;&gt;251 -->
<g id="edge22" class="edge">
<title>226&#45;&gt;251</title>
<path fill="none" stroke="black" d="M485.97,-234C521.02,-234 566.23,-234 611.79,-234"/>
<polygon fill="black" stroke="black" points="611.54,-237.5 621.54,-234 611.54,-230.5 611.54,-237.5"/>
</g>
<!-- 322 -->
<!-- name: &quot;std::optional&lt;struct BiomeOverworldGenRulesData&gt;&quot;, typeName: &quot;&quot;, id: 322, branchId: 0, recurseId: &#45;1, attributes: 512, notes: &quot;&quot; -->
<g id="node25" class="node">
<title>322</title>
<ellipse fill="none" stroke="black" cx="813.44" cy="-180" rx="210.01" ry="18"/>
<text xml:space="preserve" text-anchor="middle" x="813.44" y="-174.95" font-family="Times New Roman,serif" font-size="14.00">std::optional&lt;struct BiomeOverworldGenRulesData&gt;</text>
</g>
<!-- 252&#45;&gt;322 -->
<g id="edge24" class="edge">
<title>252&#45;&gt;322</title>
<path fill="none" stroke="black" d="M504.94,-180C531.01,-180 561.01,-180 591.83,-180"/>
<polygon fill="black" stroke="black" points="591.71,-183.5 601.71,-180 591.71,-176.5 591.71,-183.5"/>
</g>
<!-- 340 -->
<!-- name: &quot;std::optional&lt;struct BiomeMultinoiseGenRulesData&gt;&quot;, typeName: &quot;&quot;, id: 340, branchId: 0, recurseId: &#45;1, attributes: 512, notes: &quot;&quot; -->
<g id="node27" class="node">
<title>340</title>
<ellipse fill="none" stroke="black" cx="813.44" cy="-126" rx="210.52" ry="18"/>
<text xml:space="preserve" text-anchor="middle" x="813.44" y="-120.95" font-family="Times New Roman,serif" font-size="14.00">std::optional&lt;struct BiomeMultinoiseGenRulesData&gt;</text>
</g>
<!-- 323&#45;&gt;340 -->
<g id="edge26" class="edge">
<title>323&#45;&gt;340</title>
<path fill="none" stroke="black" d="M506.39,-126C531.99,-126 561.29,-126 591.38,-126"/>
<polygon fill="black" stroke="black" points="590.99,-129.5 600.99,-126 590.99,-122.5 590.99,-129.5"/>
</g>
<!-- 354 -->
<!-- name: &quot;std::optional&lt;struct BiomeLegacyWorldGenRulesData&gt;&quot;, typeName: &quot;&quot;, id: 354, branchId: 0, recurseId: &#45;1, attributes: 512, notes: &quot;&quot; -->
<g id="node29" class="node">
<title>354</title>
<ellipse fill="none" stroke="black" cx="813.44" cy="-72" rx="220.25" ry="18"/>
<text xml:space="preserve" text-anchor="middle" x="813.44" y="-66.95" font-family="Times New Roman,serif" font-size="14.00">std::optional&lt;struct BiomeLegacyWorldGenRulesData&gt;</text>
</g>
<!-- 341&#45;&gt;354 -->
<g id="edge28" class="edge">
<title>341&#45;&gt;354</title>
<path fill="none" stroke="black" d="M514.76,-72C535.5,-72 558.33,-72 581.85,-72"/>
<polygon fill="black" stroke="black" points="581.55,-75.5 591.55,-72 581.55,-68.5 581.55,-75.5"/>
</g>
<!-- 385 -->
<!-- name: &quot;std::optional&lt;struct BiomeReplacementsData&gt;&quot;, typeName: &quot;&quot;, id: 385, branchId: 0, recurseId: &#45;1, attributes: 512, notes: &quot;&quot; -->
<g id="node31" class="node">
<title>385</title>
<ellipse fill="none" stroke="black" cx="813.44" cy="-18" rx="185.96" ry="18"/>
<text xml:space="preserve" text-anchor="middle" x="813.44" y="-12.95" font-family="Times New Roman,serif" font-size="14.00">std::optional&lt;struct BiomeReplacementsData&gt;</text>
</g>
<!-- 355&#45;&gt;385 -->
<g id="edge30" class="edge">
<title>355&#45;&gt;385</title>
<path fill="none" stroke="black" d="M505.91,-18C538.52,-18 577.18,-18 615.87,-18"/>
<polygon fill="black" stroke="black" points="615.81,-21.5 625.81,-18 615.81,-14.5 615.81,-21.5"/>
</g>
</g>
</svg>
