<?xml version="1.0" encoding="UTF-8" standalone="no"?>
<!DOCTYPE svg PUBLIC "-//W3C//DTD SVG 1.1//EN"
 "http://www.w3.org/Graphics/SVG/1.1/DTD/svg11.dtd">
<!-- Generated by graphviz version 14.0.2 (20251019.1705)
 -->
<!-- Title: CameraAimAssistCategoryPriorities Pages: 1 -->
<svg width="675pt" height="260pt"
 viewBox="0.00 0.00 675.00 260.00" xmlns="http://www.w3.org/2000/svg" xmlns:xlink="http://www.w3.org/1999/xlink">
<g id="graph0" class="graph" transform="scale(1 1) rotate(0) translate(4 256)">
<title>CameraAimAssistCategoryPriorities</title>
<polygon fill="white" stroke="none" points="-4,4 -4,-256 670.72,-256 670.72,4 -4,4"/>
<!-- 0 -->
<!-- name: &quot;CameraAimAssistCategoryPriorities&quot;, typeName: &quot;&quot;, id: 0, branchId: 0, recurseId: &#45;1, attributes: 0, notes: &quot;&quot; -->
<g id="node1" class="node">
<title>0</title>
<ellipse fill="none" stroke="black" cx="147.06" cy="-126" rx="147.06" ry="18"/>
<text xml:space="preserve" text-anchor="middle" x="147.06" y="-120.95" font-family="Times New Roman,serif" font-size="14.00">CameraAimAssistCategoryPriorities</text>
</g>
<!-- 1 -->
<!-- name: &quot;entities&quot;, typeName: &quot;&quot;, id: 1, branchId: 0, recurseId: &#45;1, attributes: 0, notes: &quot;Optional. Map of Entity identifiers to Aim&#45;Assist targeting priority. Larger numbers have greater priority.&quot; -->
<g id="node2" class="node">
<title>1</title>
<ellipse fill="none" stroke="black" cx="392.22" cy="-234" rx="37.53" ry="18"/>
<text xml:space="preserve" text-anchor="middle" x="392.22" y="-228.95" font-family="Times New Roman,serif" font-size="14.00">entities</text>
</g>
<!-- 0&#45;&gt;1 -->
<g id="edge1" class="edge">
<title>0&#45;&gt;1</title>
<path fill="none" stroke="black" d="M187.82,-143.73C224.7,-160.16 281.1,-185.26 330.12,-207 337.7,-210.36 345.81,-213.95 353.57,-217.38"/>
<polygon fill="black" stroke="black" points="351.89,-220.47 362.45,-221.31 354.72,-214.06 351.89,-220.47"/>
</g>
<!-- 3 -->
<!-- name: &quot;blocks&quot;, typeName: &quot;&quot;, id: 3, branchId: 0, recurseId: &#45;1, attributes: 0, notes: &quot;Optional. Map of Block identifiers to Aim&#45;Assist targeting priority. Larger numbers have greater priority.&quot; -->
<g id="node4" class="node">
<title>3</title>
<ellipse fill="none" stroke="black" cx="392.22" cy="-180" rx="34.97" ry="18"/>
<text xml:space="preserve" text-anchor="middle" x="392.22" y="-174.95" font-family="Times New Roman,serif" font-size="14.00">blocks</text>
</g>
<!-- 0&#45;&gt;3 -->
<g id="edge3" class="edge">
<title>0&#45;&gt;3</title>
<path fill="none" stroke="black" d="M220.36,-142.06C262.17,-151.34 313.34,-162.71 348.73,-170.56"/>
<polygon fill="black" stroke="black" points="347.63,-173.91 358.15,-172.66 349.15,-167.07 347.63,-173.91"/>
</g>
<!-- 5 -->
<!-- name: &quot;block_tags&quot;, typeName: &quot;&quot;, id: 5, branchId: 0, recurseId: &#45;1, attributes: 0, notes: &quot;Optional. Map of Block tags to Aim&#45;Assist targeting priority. Larger numbers have greater priority.&quot; -->
<g id="node6" class="node">
<title>5</title>
<ellipse fill="none" stroke="black" cx="392.22" cy="-126" rx="50.84" ry="18"/>
<text xml:space="preserve" text-anchor="middle" x="392.22" y="-120.95" font-family="Times New Roman,serif" font-size="14.00">block_tags</text>
</g>
<!-- 0&#45;&gt;5 -->
<g id="edge5" class="edge">
<title>0&#45;&gt;5</title>
<path fill="none" stroke="black" d="M294.42,-126C306.73,-126 318.7,-126 329.77,-126"/>
<polygon fill="black" stroke="black" points="329.45,-129.5 339.45,-126 329.45,-122.5 329.45,-129.5"/>
</g>
<!-- 7 -->
<!-- name: &quot;entity_default&quot;, typeName: &quot;&quot;, id: 7, branchId: 0, recurseId: &#45;1, attributes: 0, notes: &quot;Optional. Default Aim&#45;Assist targeting priority used for Entities not found in &#39;entities&#39;.&quot; -->
<g id="node8" class="node">
<title>7</title>
<ellipse fill="none" stroke="black" cx="392.22" cy="-72" rx="62.1" ry="18"/>
<text xml:space="preserve" text-anchor="middle" x="392.22" y="-66.95" font-family="Times New Roman,serif" font-size="14.00">entity_default</text>
</g>
<!-- 0&#45;&gt;7 -->
<g id="edge7" class="edge">
<title>0&#45;&gt;7</title>
<path fill="none" stroke="black" d="M220.36,-109.94C255.57,-102.12 297.43,-92.83 330.9,-85.39"/>
<polygon fill="black" stroke="black" points="331.43,-88.86 340.43,-83.28 329.91,-82.03 331.43,-88.86"/>
</g>
<!-- 9 -->
<!-- name: &quot;block_default&quot;, typeName: &quot;&quot;, id: 9, branchId: 0, recurseId: &#45;1, attributes: 0, notes: &quot;Optional. Default Aim&#45;Assist targeting priority used for Blocks not found in &#39;blocks&#39;.&quot; -->
<g id="node10" class="node">
<title>9</title>
<ellipse fill="none" stroke="black" cx="392.22" cy="-18" rx="61.59" ry="18"/>
<text xml:space="preserve" text-anchor="middle" x="392.22" y="-12.95" font-family="Times New Roman,serif" font-size="14.00">block_default</text>
</g>
<!-- 0&#45;&gt;9 -->
<g id="edge9" class="edge">
<title>0&#45;&gt;9</title>
<path fill="none" stroke="black" d="M187.82,-108.27C224.7,-91.84 281.1,-66.74 330.12,-45 335.42,-42.65 340.97,-40.19 346.49,-37.75"/>
<polygon fill="black" stroke="black" points="347.84,-40.98 355.57,-33.73 345.01,-34.58 347.84,-40.98"/>
</g>
<!-- 2 -->
<!-- name: &quot;map&lt;Reference,int&gt;&quot;, typeName: &quot;&quot;, id: 2, branchId: 0, recurseId: &#45;1, attributes: 512, notes: &quot;Optional. Map of Entity identifiers to Aim&#45;Assist targeting priority. Larger numbers have greater priority.&quot; -->
<g id="node3" class="node">
<title>2</title>
<ellipse fill="none" stroke="black" cx="578.52" cy="-234" rx="88.2" ry="18"/>
<text xml:space="preserve" text-anchor="middle" x="578.52" y="-228.95" font-family="Times New Roman,serif" font-size="14.00">map&lt;Reference,int&gt;</text>
</g>
<!-- 1&#45;&gt;2 -->
<g id="edge2" class="edge">
<title>1&#45;&gt;2</title>
<path fill="none" stroke="black" d="M430.07,-234C444.29,-234 461.29,-234 478.62,-234"/>
<polygon fill="black" stroke="black" points="478.51,-237.5 488.51,-234 478.51,-230.5 478.51,-237.5"/>
</g>
<!-- 4 -->
<!-- name: &quot;map&lt;Reference,int&gt;&quot;, typeName: &quot;&quot;, id: 4, branchId: 0, recurseId: &#45;1, attributes: 512, notes: &quot;Optional. Map of Block identifiers to Aim&#45;Assist targeting priority. Larger numbers have greater priority.&quot; -->
<g id="node5" class="node">
<title>4</title>
<ellipse fill="none" stroke="black" cx="578.52" cy="-180" rx="88.2" ry="18"/>
<text xml:space="preserve" text-anchor="middle" x="578.52" y="-174.95" font-family="Times New Roman,serif" font-size="14.00">map&lt;Reference,int&gt;</text>
</g>
<!-- 3&#45;&gt;4 -->
<g id="edge4" class="edge">
<title>3&#45;&gt;4</title>
<path fill="none" stroke="black" d="M427.45,-180C442.19,-180 460.26,-180 478.69,-180"/>
<polygon fill="black" stroke="black" points="478.66,-183.5 488.66,-180 478.66,-176.5 478.66,-183.5"/>
</g>
<!-- 6 -->
<!-- name: &quot;map&lt;string,int&gt;&quot;, typeName: &quot;&quot;, id: 6, branchId: 0, recurseId: &#45;1, attributes: 512, notes: &quot;Optional. Map of Block tags to Aim&#45;Assist targeting priority. Larger numbers have greater priority.&quot; -->
<g id="node7" class="node">
<title>6</title>
<ellipse fill="none" stroke="black" cx="578.52" cy="-126" rx="71.82" ry="18"/>
<text xml:space="preserve" text-anchor="middle" x="578.52" y="-120.95" font-family="Times New Roman,serif" font-size="14.00">map&lt;string,int&gt;</text>
</g>
<!-- 5&#45;&gt;6 -->
<g id="edge6" class="edge">
<title>5&#45;&gt;6</title>
<path fill="none" stroke="black" d="M443.09,-126C459.17,-126 477.44,-126 495.22,-126"/>
<polygon fill="black" stroke="black" points="494.99,-129.5 504.99,-126 494.99,-122.5 494.99,-129.5"/>
</g>
<!-- 8 -->
<!-- name: &quot;int&quot;, typeName: &quot;&quot;, id: 8, branchId: 0, recurseId: &#45;1, attributes: 512, notes: &quot;Optional. Default Aim&#45;Assist targeting priority used for Entities not found in &#39;entities&#39;.&quot; -->
<g id="node9" class="node">
<title>8</title>
<ellipse fill="none" stroke="black" cx="578.52" cy="-72" rx="27" ry="18"/>
<text xml:space="preserve" text-anchor="middle" x="578.52" y="-66.95" font-family="Times New Roman,serif" font-size="14.00">int</text>
</g>
<!-- 7&#45;&gt;8 -->
<g id="edge8" class="edge">
<title>7&#45;&gt;8</title>
<path fill="none" stroke="black" d="M454.59,-72C482.84,-72 515.46,-72 540,-72"/>
<polygon fill="black" stroke="black" points="539.82,-75.5 549.82,-72 539.82,-68.5 539.82,-75.5"/>
</g>
<!-- 10 -->
<!-- name: &quot;int&quot;, typeName: &quot;&quot;, id: 10, branchId: 0, recurseId: &#45;1, attributes: 512, notes: &quot;Optional. Default Aim&#45;Assist targeting priority used for Blocks not found in &#39;blocks&#39;.&quot; -->
<g id="node11" class="node">
<title>10</title>
<ellipse fill="none" stroke="black" cx="578.52" cy="-18" rx="27" ry="18"/>
<text xml:space="preserve" text-anchor="middle" x="578.52" y="-12.95" font-family="Times New Roman,serif" font-size="14.00">int</text>
</g>
<!-- 9&#45;&gt;10 -->
<g id="edge10" class="edge">
<title>9&#45;&gt;10</title>
<path fill="none" stroke="black" d="M454.08,-18C482.37,-18 515.13,-18 539.79,-18"/>
<polygon fill="black" stroke="black" points="539.67,-21.5 549.67,-18 539.67,-14.5 539.67,-21.5"/>
</g>
</g>
</svg>
