<?xml version="1.0" encoding="UTF-8" standalone="no"?>
<!DOCTYPE svg PUBLIC "-//W3C//DTD SVG 1.1//EN"
 "http://www.w3.org/Graphics/SVG/1.1/DTD/svg11.dtd">
<!-- Generated by graphviz version 13.1.0 (20250701.0955)
 -->
<!-- Title: CameraInstruction Pages: 1 -->
<svg width="829pt" height="314pt"
 viewBox="0.00 0.00 829.00 314.00" xmlns="http://www.w3.org/2000/svg" xmlns:xlink="http://www.w3.org/1999/xlink">
<g id="graph0" class="graph" transform="scale(1 1) rotate(0) translate(4 310)">
<title>CameraInstruction</title>
<polygon fill="white" stroke="none" points="-4,4 -4,-310 825.29,-310 825.29,4 -4,4"/>
<!-- 2 -->
<!-- name: &quot;CameraInstruction&quot;, typeName: &quot;&quot;, id: 2, branchId: 0, recurseId: &#45;1, attributes: 0, notes: &quot;&quot; -->
<g id="node1" class="node">
<title>2</title>
<ellipse fill="none" stroke="black" cx="80.01" cy="-153" rx="80.01" ry="18"/>
<text xml:space="preserve" text-anchor="middle" x="80.01" y="-147.95" font-family="Times New Roman,serif" font-size="14.00">CameraInstruction</text>
</g>
<!-- 3 -->
<!-- name: &quot;Set&quot;, typeName: &quot;std::optional&lt;struct CameraInstruction::SetInstruction&gt;&quot;, id: 3, branchId: 0, recurseId: &#45;1, attributes: 256, notes: &quot;&quot; -->
<g id="node2" class="node">
<title>3</title>
<ellipse fill="none" stroke="black" cx="261.71" cy="-288" rx="27" ry="18"/>
<text xml:space="preserve" text-anchor="middle" x="261.71" y="-282.95" font-family="Times New Roman,serif" font-size="14.00">Set</text>
</g>
<!-- 2&#45;&gt;3 -->
<g id="edge1" class="edge">
<title>2&#45;&gt;3</title>
<path fill="none" stroke="black" d="M96.19,-170.77C116.82,-194.04 155.79,-234.94 196.03,-261 205.33,-267.02 216.19,-272.18 226.34,-276.32"/>
<polygon fill="black" stroke="black" points="224.95,-279.54 235.54,-279.87 227.47,-273 224.95,-279.54"/>
</g>
<!-- 93 -->
<!-- name: &quot;Clear&quot;, typeName: &quot;std::optional&lt;bool&gt;&quot;, id: 93, branchId: 0, recurseId: &#45;1, attributes: 256, notes: &quot;&quot; -->
<g id="node4" class="node">
<title>93</title>
<ellipse fill="none" stroke="black" cx="261.71" cy="-234" rx="30.88" ry="18"/>
<text xml:space="preserve" text-anchor="middle" x="261.71" y="-228.95" font-family="Times New Roman,serif" font-size="14.00">Clear</text>
</g>
<!-- 2&#45;&gt;93 -->
<g id="edge3" class="edge">
<title>2&#45;&gt;93</title>
<path fill="none" stroke="black" d="M115.31,-169.58C138.08,-180.47 168.7,-194.89 196.03,-207 205.48,-211.19 215.79,-215.58 225.34,-219.56"/>
<polygon fill="black" stroke="black" points="223.74,-222.69 234.32,-223.29 226.42,-216.22 223.74,-222.69"/>
</g>
<!-- 95 -->
<!-- name: &quot;Fade&quot;, typeName: &quot;std::optional&lt;struct CameraInstruction::FadeInstruction&gt;&quot;, id: 95, branchId: 0, recurseId: &#45;1, attributes: 256, notes: &quot;&quot; -->
<g id="node6" class="node">
<title>95</title>
<ellipse fill="none" stroke="black" cx="261.71" cy="-180" rx="28.83" ry="18"/>
<text xml:space="preserve" text-anchor="middle" x="261.71" y="-174.95" font-family="Times New Roman,serif" font-size="14.00">Fade</text>
</g>
<!-- 2&#45;&gt;95 -->
<g id="edge5" class="edge">
<title>2&#45;&gt;95</title>
<path fill="none" stroke="black" d="M147.67,-163.02C172.78,-166.79 200.49,-170.95 222.19,-174.21"/>
<polygon fill="black" stroke="black" points="221.67,-177.67 232.08,-175.7 222.71,-170.75 221.67,-177.67"/>
</g>
<!-- 131 -->
<!-- name: &quot;Target&quot;, typeName: &quot;std::optional&lt;struct CameraInstruction::TargetInstruction&gt;&quot;, id: 131, branchId: 0, recurseId: &#45;1, attributes: 256, notes: &quot;&quot; -->
<g id="node8" class="node">
<title>131</title>
<ellipse fill="none" stroke="black" cx="261.71" cy="-126" rx="34.46" ry="18"/>
<text xml:space="preserve" text-anchor="middle" x="261.71" y="-120.95" font-family="Times New Roman,serif" font-size="14.00">Target</text>
</g>
<!-- 2&#45;&gt;131 -->
<g id="edge7" class="edge">
<title>2&#45;&gt;131</title>
<path fill="none" stroke="black" d="M147.67,-142.98C170.82,-139.51 196.18,-135.7 217,-132.57"/>
<polygon fill="black" stroke="black" points="217.5,-136.03 226.87,-131.08 216.46,-129.11 217.5,-136.03"/>
</g>
<!-- 143 -->
<!-- name: &quot;RemoveTarget&quot;, typeName: &quot;std::optional&lt;bool&gt;&quot;, id: 143, branchId: 0, recurseId: &#45;1, attributes: 256, notes: &quot;&quot; -->
<g id="node10" class="node">
<title>143</title>
<ellipse fill="none" stroke="black" cx="261.71" cy="-72" rx="65.68" ry="18"/>
<text xml:space="preserve" text-anchor="middle" x="261.71" y="-66.95" font-family="Times New Roman,serif" font-size="14.00">RemoveTarget</text>
</g>
<!-- 2&#45;&gt;143 -->
<g id="edge9" class="edge">
<title>2&#45;&gt;143</title>
<path fill="none" stroke="black" d="M115.31,-136.42C138.08,-125.53 168.7,-111.11 196.03,-99 201.66,-96.5 207.59,-93.94 213.49,-91.43"/>
<polygon fill="black" stroke="black" points="214.74,-94.7 222.59,-87.59 212.02,-88.25 214.74,-94.7"/>
</g>
<!-- 145 -->
<!-- name: &quot;FieldOfView&quot;, typeName: &quot;std::optional&lt;struct CameraInstruction::FovInstruction&gt;&quot;, id: 145, branchId: 0, recurseId: &#45;1, attributes: 256, notes: &quot;&quot; -->
<g id="node12" class="node">
<title>145</title>
<ellipse fill="none" stroke="black" cx="261.71" cy="-18" rx="59.03" ry="18"/>
<text xml:space="preserve" text-anchor="middle" x="261.71" y="-12.95" font-family="Times New Roman,serif" font-size="14.00">FieldOfView</text>
</g>
<!-- 2&#45;&gt;145 -->
<g id="edge11" class="edge">
<title>2&#45;&gt;145</title>
<path fill="none" stroke="black" d="M96.19,-135.23C116.82,-111.96 155.79,-71.06 196.03,-45 200.88,-41.86 206.16,-38.95 211.54,-36.3"/>
<polygon fill="black" stroke="black" points="212.93,-39.51 220.56,-32.16 210.01,-33.15 212.93,-39.51"/>
</g>
<!-- 92 -->
<!-- name: &quot;std::optional&lt;struct CameraInstruction::SetInstruction&gt;&quot;, typeName: &quot;&quot;, id: 92, branchId: 0, recurseId: &#45;1, attributes: 512, notes: &quot;&quot; -->
<g id="node3" class="node">
<title>92</title>
<ellipse fill="none" stroke="black" cx="592.34" cy="-288" rx="217.18" ry="18"/>
<text xml:space="preserve" text-anchor="middle" x="592.34" y="-282.95" font-family="Times New Roman,serif" font-size="14.00">std::optional&lt;struct CameraInstruction::SetInstruction&gt;</text>
</g>
<!-- 3&#45;&gt;92 -->
<g id="edge2" class="edge">
<title>3&#45;&gt;92</title>
<path fill="none" stroke="black" d="M289.05,-288C307.35,-288 333.7,-288 363.33,-288"/>
<polygon fill="black" stroke="black" points="363.32,-291.5 373.32,-288 363.32,-284.5 363.32,-291.5"/>
</g>
<!-- 94 -->
<!-- name: &quot;std::optional&lt;bool&gt;&quot;, typeName: &quot;&quot;, id: 94, branchId: 0, recurseId: &#45;1, attributes: 512, notes: &quot;&quot; -->
<g id="node5" class="node">
<title>94</title>
<ellipse fill="none" stroke="black" cx="592.34" cy="-234" rx="84.62" ry="18"/>
<text xml:space="preserve" text-anchor="middle" x="592.34" y="-228.95" font-family="Times New Roman,serif" font-size="14.00">std::optional&lt;bool&gt;</text>
</g>
<!-- 93&#45;&gt;94 -->
<g id="edge4" class="edge">
<title>93&#45;&gt;94</title>
<path fill="none" stroke="black" d="M293.04,-234C338.79,-234 427.44,-234 496.26,-234"/>
<polygon fill="black" stroke="black" points="496.05,-237.5 506.05,-234 496.05,-230.5 496.05,-237.5"/>
</g>
<!-- 130 -->
<!-- name: &quot;std::optional&lt;struct CameraInstruction::FadeInstruction&gt;&quot;, typeName: &quot;&quot;, id: 130, branchId: 0, recurseId: &#45;1, attributes: 512, notes: &quot;&quot; -->
<g id="node7" class="node">
<title>130</title>
<ellipse fill="none" stroke="black" cx="592.34" cy="-180" rx="223.32" ry="18"/>
<text xml:space="preserve" text-anchor="middle" x="592.34" y="-174.95" font-family="Times New Roman,serif" font-size="14.00">std::optional&lt;struct CameraInstruction::FadeInstruction&gt;</text>
</g>
<!-- 95&#45;&gt;130 -->
<g id="edge6" class="edge">
<title>95&#45;&gt;130</title>
<path fill="none" stroke="black" d="M291.01,-180C307.9,-180 331.12,-180 357.23,-180"/>
<polygon fill="black" stroke="black" points="357.07,-183.5 367.07,-180 357.07,-176.5 357.07,-183.5"/>
</g>
<!-- 142 -->
<!-- name: &quot;std::optional&lt;struct CameraInstruction::TargetInstruction&gt;&quot;, typeName: &quot;&quot;, id: 142, branchId: 0, recurseId: &#45;1, attributes: 512, notes: &quot;&quot; -->
<g id="node9" class="node">
<title>142</title>
<ellipse fill="none" stroke="black" cx="592.34" cy="-126" rx="228.95" ry="18"/>
<text xml:space="preserve" text-anchor="middle" x="592.34" y="-120.95" font-family="Times New Roman,serif" font-size="14.00">std::optional&lt;struct CameraInstruction::TargetInstruction&gt;</text>
</g>
<!-- 131&#45;&gt;142 -->
<g id="edge8" class="edge">
<title>131&#45;&gt;142</title>
<path fill="none" stroke="black" d="M296.64,-126C311.65,-126 330.72,-126 351.9,-126"/>
<polygon fill="black" stroke="black" points="351.65,-129.5 361.65,-126 351.65,-122.5 351.65,-129.5"/>
</g>
<!-- 144 -->
<!-- name: &quot;std::optional&lt;bool&gt;&quot;, typeName: &quot;&quot;, id: 144, branchId: 0, recurseId: &#45;1, attributes: 512, notes: &quot;&quot; -->
<g id="node11" class="node">
<title>144</title>
<ellipse fill="none" stroke="black" cx="592.34" cy="-72" rx="84.62" ry="18"/>
<text xml:space="preserve" text-anchor="middle" x="592.34" y="-66.95" font-family="Times New Roman,serif" font-size="14.00">std::optional&lt;bool&gt;</text>
</g>
<!-- 143&#45;&gt;144 -->
<g id="edge10" class="edge">
<title>143&#45;&gt;144</title>
<path fill="none" stroke="black" d="M327.63,-72C375.75,-72 442.07,-72 496.16,-72"/>
<polygon fill="black" stroke="black" points="496,-75.5 506,-72 496,-68.5 496,-75.5"/>
</g>
<!-- 160 -->
<!-- name: &quot;std::optional&lt;struct CameraInstruction::FovInstruction&gt;&quot;, typeName: &quot;&quot;, id: 160, branchId: 0, recurseId: &#45;1, attributes: 512, notes: &quot;&quot; -->
<g id="node13" class="node">
<title>160</title>
<ellipse fill="none" stroke="black" cx="592.34" cy="-18" rx="219.74" ry="18"/>
<text xml:space="preserve" text-anchor="middle" x="592.34" y="-12.95" font-family="Times New Roman,serif" font-size="14.00">std::optional&lt;struct CameraInstruction::FovInstruction&gt;</text>
</g>
<!-- 145&#45;&gt;160 -->
<g id="edge12" class="edge">
<title>145&#45;&gt;160</title>
<path fill="none" stroke="black" d="M321.08,-18C333.28,-18 346.84,-18 361.2,-18"/>
<polygon fill="black" stroke="black" points="360.81,-21.5 370.81,-18 360.81,-14.5 360.81,-21.5"/>
</g>
</g>
</svg>
