<?xml version="1.0" encoding="UTF-8" standalone="no"?>
<!DOCTYPE svg PUBLIC "-//W3C//DTD SVG 1.1//EN"
 "http://www.w3.org/Graphics/SVG/1.1/DTD/svg11.dtd">
<!-- Generated by graphviz version 13.1.0 (20250701.0955)
 -->
<!-- Title: CameraInstruction::FovInstruction Pages: 1 -->
<svg width="583pt" height="206pt"
 viewBox="0.00 0.00 583.00 206.00" xmlns="http://www.w3.org/2000/svg" xmlns:xlink="http://www.w3.org/1999/xlink">
<g id="graph0" class="graph" transform="scale(1 1) rotate(0) translate(4 202)">
<title>CameraInstruction::FovInstruction</title>
<polygon fill="white" stroke="none" points="-4,4 -4,-202 578.6,-202 578.6,4 -4,4"/>
<!-- 150 -->
<!-- name: &quot;CameraInstruction::FovInstruction&quot;, typeName: &quot;&quot;, id: 150, branchId: 0, recurseId: &#45;1, attributes: 0, notes: &quot;&quot; -->
<g id="node1" class="node">
<title>150</title>
<ellipse fill="none" stroke="black" cx="139.38" cy="-99" rx="139.38" ry="18"/>
<text xml:space="preserve" text-anchor="middle" x="139.38" y="-93.95" font-family="Times New Roman,serif" font-size="14.00">CameraInstruction::FovInstruction</text>
</g>
<!-- 151 -->
<!-- name: &quot;Field of View&quot;, typeName: &quot;&quot;, id: 151, branchId: 0, recurseId: &#45;1, attributes: 0, notes: &quot;&quot; -->
<g id="node2" class="node">
<title>151</title>
<ellipse fill="none" stroke="black" cx="398.87" cy="-180" rx="61.59" ry="18"/>
<text xml:space="preserve" text-anchor="middle" x="398.87" y="-174.95" font-family="Times New Roman,serif" font-size="14.00">Field of View</text>
</g>
<!-- 150&#45;&gt;151 -->
<g id="edge1" class="edge">
<title>150&#45;&gt;151</title>
<path fill="none" stroke="black" d="M194.36,-115.98C238.68,-129.92 301.09,-149.55 345.08,-163.39"/>
<polygon fill="black" stroke="black" points="343.81,-166.66 354.4,-166.33 345.91,-159.99 343.81,-166.66"/>
</g>
<!-- 153 -->
<!-- name: &quot;FOV Ease Time&quot;, typeName: &quot;&quot;, id: 153, branchId: 0, recurseId: &#45;1, attributes: 0, notes: &quot;&quot; -->
<g id="node4" class="node">
<title>153</title>
<ellipse fill="none" stroke="black" cx="398.87" cy="-126" rx="71.31" ry="18"/>
<text xml:space="preserve" text-anchor="middle" x="398.87" y="-120.95" font-family="Times New Roman,serif" font-size="14.00">FOV Ease Time</text>
</g>
<!-- 150&#45;&gt;153 -->
<g id="edge3" class="edge">
<title>150&#45;&gt;153</title>
<path fill="none" stroke="black" d="M249.21,-110.41C273.4,-112.95 298.55,-115.58 321.13,-117.95"/>
<polygon fill="black" stroke="black" points="320.52,-121.41 330.83,-118.97 321.25,-114.45 320.52,-121.41"/>
</g>
<!-- 155 -->
<!-- name: &quot;FOV Ease Type&quot;, typeName: &quot;&quot;, id: 155, branchId: 0, recurseId: &#45;1, attributes: 0, notes: &quot;&quot; -->
<g id="node6" class="node">
<title>155</title>
<ellipse fill="none" stroke="black" cx="398.87" cy="-72" rx="69.78" ry="18"/>
<text xml:space="preserve" text-anchor="middle" x="398.87" y="-66.95" font-family="Times New Roman,serif" font-size="14.00">FOV Ease Type</text>
</g>
<!-- 150&#45;&gt;155 -->
<g id="edge5" class="edge">
<title>150&#45;&gt;155</title>
<path fill="none" stroke="black" d="M249.21,-87.59C273.87,-85 299.52,-82.31 322.44,-79.91"/>
<polygon fill="black" stroke="black" points="322.72,-83.4 332.3,-78.88 321.99,-76.44 322.72,-83.4"/>
</g>
<!-- 157 -->
<!-- name: &quot;Field of View Clear&quot;, typeName: &quot;bool&quot;, id: 157, branchId: 0, recurseId: &#45;1, attributes: 256, notes: &quot;&quot; -->
<g id="node8" class="node">
<title>157</title>
<ellipse fill="none" stroke="black" cx="398.87" cy="-18" rx="84.11" ry="18"/>
<text xml:space="preserve" text-anchor="middle" x="398.87" y="-12.95" font-family="Times New Roman,serif" font-size="14.00">Field of View Clear</text>
</g>
<!-- 150&#45;&gt;157 -->
<g id="edge7" class="edge">
<title>150&#45;&gt;157</title>
<path fill="none" stroke="black" d="M194.36,-82.02C236.78,-68.68 295.76,-50.12 339.31,-36.42"/>
<polygon fill="black" stroke="black" points="340.1,-39.84 348.59,-33.5 338,-33.16 340.1,-39.84"/>
</g>
<!-- 152 -->
<!-- name: &quot;float&quot;, typeName: &quot;&quot;, id: 152, branchId: 0, recurseId: &#45;1, attributes: 512, notes: &quot;&quot; -->
<g id="node3" class="node">
<title>152</title>
<ellipse fill="none" stroke="black" cx="546.79" cy="-180" rx="27.81" ry="18"/>
<text xml:space="preserve" text-anchor="middle" x="546.79" y="-174.95" font-family="Times New Roman,serif" font-size="14.00">float</text>
</g>
<!-- 151&#45;&gt;152 -->
<g id="edge2" class="edge">
<title>151&#45;&gt;152</title>
<path fill="none" stroke="black" d="M460.91,-180C476.65,-180 493.15,-180 507.38,-180"/>
<polygon fill="black" stroke="black" points="507.21,-183.5 517.21,-180 507.21,-176.5 507.21,-183.5"/>
</g>
<!-- 154 -->
<!-- name: &quot;float&quot;, typeName: &quot;&quot;, id: 154, branchId: 0, recurseId: &#45;1, attributes: 512, notes: &quot;&quot; -->
<g id="node5" class="node">
<title>154</title>
<ellipse fill="none" stroke="black" cx="546.79" cy="-126" rx="27.81" ry="18"/>
<text xml:space="preserve" text-anchor="middle" x="546.79" y="-120.95" font-family="Times New Roman,serif" font-size="14.00">float</text>
</g>
<!-- 153&#45;&gt;154 -->
<g id="edge4" class="edge">
<title>153&#45;&gt;154</title>
<path fill="none" stroke="black" d="M470.27,-126C483.03,-126 495.9,-126 507.31,-126"/>
<polygon fill="black" stroke="black" points="507.09,-129.5 517.09,-126 507.09,-122.5 507.09,-129.5"/>
</g>
<!-- 156 -->
<!-- name: &quot;byte&quot;, typeName: &quot;&quot;, id: 156, branchId: 0, recurseId: &#45;1, attributes: 512, notes: &quot;&quot; -->
<g id="node7" class="node">
<title>156</title>
<ellipse fill="none" stroke="black" cx="546.79" cy="-72" rx="27" ry="18"/>
<text xml:space="preserve" text-anchor="middle" x="546.79" y="-66.95" font-family="Times New Roman,serif" font-size="14.00">byte</text>
</g>
<!-- 155&#45;&gt;156 -->
<g id="edge6" class="edge">
<title>155&#45;&gt;156</title>
<path fill="none" stroke="black" d="M468.98,-72C482.46,-72 496.12,-72 508.1,-72"/>
<polygon fill="black" stroke="black" points="507.95,-75.5 517.95,-72 507.95,-68.5 507.95,-75.5"/>
</g>
<!-- 158 -->
<!-- name: &quot;bool&quot;, typeName: &quot;&quot;, id: 158, branchId: 0, recurseId: &#45;1, attributes: 512, notes: &quot;&quot; -->
<g id="node9" class="node">
<title>158</title>
<ellipse fill="none" stroke="black" cx="546.79" cy="-18" rx="27.3" ry="18"/>
<text xml:space="preserve" text-anchor="middle" x="546.79" y="-12.95" font-family="Times New Roman,serif" font-size="14.00">bool</text>
</g>
<!-- 157&#45;&gt;158 -->
<g id="edge8" class="edge">
<title>157&#45;&gt;158</title>
<path fill="none" stroke="black" d="M483.06,-18C491.63,-18 500,-18 507.7,-18"/>
<polygon fill="black" stroke="black" points="507.66,-21.5 517.66,-18 507.66,-14.5 507.66,-21.5"/>
</g>
</g>
</svg>
