<?xml version="1.0" encoding="UTF-8" standalone="no"?>
<!DOCTYPE svg PUBLIC "-//W3C//DTD SVG 1.1//EN"
 "http://www.w3.org/Graphics/SVG/1.1/DTD/svg11.dtd">
<!-- Generated by graphviz version 14.0.2 (20251019.1705)
 -->
<!-- Title: CameraAimAssistPresetDefinition Pages: 1 -->
<svg width="1145pt" height="460pt"
 viewBox="0.00 0.00 1145.00 460.00" xmlns="http://www.w3.org/2000/svg" xmlns:xlink="http://www.w3.org/1999/xlink">
<g id="graph0" class="graph" transform="scale(1 1) rotate(0) translate(4 456)">
<title>CameraAimAssistPresetDefinition</title>
<polygon fill="white" stroke="none" points="-4,4 -4,-456 1140.57,-456 1140.57,4 -4,4"/>
<!-- 0 -->
<!-- name: &quot;CameraAimAssistPresetDefinition&quot;, typeName: &quot;&quot;, id: 0, branchId: 0, recurseId: &#45;1, attributes: 0, notes: &quot;&quot; -->
<g id="node1" class="node">
<title>0</title>
<ellipse fill="none" stroke="black" cx="139.89" cy="-141" rx="139.89" ry="18"/>
<text xml:space="preserve" text-anchor="middle" x="139.89" y="-135.95" font-family="Times New Roman,serif" font-size="14.00">CameraAimAssistPresetDefinition</text>
</g>
<!-- 1 -->
<!-- name: &quot;identifier&quot;, typeName: &quot;&quot;, id: 1, branchId: 0, recurseId: &#45;1, attributes: 0, notes: &quot;Namespaced identifier for Camera Aim&#45;Assist preset. Namespace and name must be separated by a &#39;:&#39;.&quot; -->
<g id="node2" class="node">
<title>1</title>
<ellipse fill="none" stroke="black" cx="406.55" cy="-272" rx="44.7" ry="18"/>
<text xml:space="preserve" text-anchor="middle" x="406.55" y="-266.95" font-family="Times New Roman,serif" font-size="14.00">identifier</text>
</g>
<!-- 0&#45;&gt;1 -->
<g id="edge1" class="edge">
<title>0&#45;&gt;1</title>
<path fill="none" stroke="black" d="M166.77,-159.15C199.99,-181.78 260.01,-220.47 315.79,-245 328.71,-250.68 343.17,-255.61 356.66,-259.65"/>
<polygon fill="black" stroke="black" points="355.66,-263 366.24,-262.41 357.6,-256.28 355.66,-263"/>
</g>
<!-- 2 -->
<!-- name: &quot;exclusion_settings&quot;, typeName: &quot;&quot;, id: 2, branchId: 0, recurseId: &#45;1, attributes: 0, notes: &quot;Optional. List of block/entity identifiers to exclude from aim assist targeting.&quot; -->
<g id="node3" class="node">
<title>2</title>
<ellipse fill="none" stroke="black" cx="406.55" cy="-218" rx="78.99" ry="18"/>
<text xml:space="preserve" text-anchor="middle" x="406.55" y="-212.95" font-family="Times New Roman,serif" font-size="14.00">exclusion_settings</text>
</g>
<!-- 0&#45;&gt;2 -->
<g id="edge2" class="edge">
<title>0&#45;&gt;2</title>
<path fill="none" stroke="black" d="M198.32,-157.71C241.91,-170.39 301.66,-187.77 345.8,-200.62"/>
<polygon fill="black" stroke="black" points="344.64,-203.92 355.22,-203.36 346.59,-197.2 344.64,-203.92"/>
</g>
<!-- 16 -->
<!-- name: &quot;liquid_targeting_list&quot;, typeName: &quot;&quot;, id: 16, branchId: 0, recurseId: &#45;1, attributes: 0, notes: &quot;Optional. List of item identifiers that will target liquid blocks with aim&#45;assist when being held.&quot; -->
<g id="node17" class="node">
<title>16</title>
<ellipse fill="none" stroke="black" cx="406.55" cy="-164" rx="85.64" ry="18"/>
<text xml:space="preserve" text-anchor="middle" x="406.55" y="-158.95" font-family="Times New Roman,serif" font-size="14.00">liquid_targeting_list</text>
</g>
<!-- 0&#45;&gt;16 -->
<g id="edge16" class="edge">
<title>0&#45;&gt;16</title>
<path fill="none" stroke="black" d="M257.36,-151.12C276.77,-152.81 296.64,-154.54 315.27,-156.15"/>
<polygon fill="black" stroke="black" points="314.92,-159.64 325.19,-157.02 315.53,-152.66 314.92,-159.64"/>
</g>
<!-- 20 -->
<!-- name: &quot;item_settings&quot;, typeName: &quot;&quot;, id: 20, branchId: 0, recurseId: &#45;1, attributes: 0, notes: &quot;Optional. Map of Item identifiers to Aim&#45;Assist Category names found in the specified &#39;categories&#39;.&quot; -->
<g id="node21" class="node">
<title>20</title>
<ellipse fill="none" stroke="black" cx="608.2" cy="-56" rx="60.56" ry="18"/>
<text xml:space="preserve" text-anchor="middle" x="608.2" y="-50.95" font-family="Times New Roman,serif" font-size="14.00">item_settings</text>
</g>
<!-- 0&#45;&gt;20 -->
<g id="edge20" class="edge">
<title>0&#45;&gt;20</title>
<path fill="none" stroke="black" d="M272.21,-134.99C340.31,-129.51 424.31,-119.03 497.31,-99 514.19,-94.37 517.08,-89.56 533.31,-83 540.97,-79.9 549.14,-76.76 557.14,-73.77"/>
<polygon fill="black" stroke="black" points="558.31,-77.07 566.48,-70.32 555.88,-70.5 558.31,-77.07"/>
</g>
<!-- 22 -->
<!-- name: &quot;default_item_settings&quot;, typeName: &quot;&quot;, id: 22, branchId: 0, recurseId: &#45;1, attributes: 0, notes: &quot;Optional. Default Aim&#45;Assist Category used for Items not found in &#39;item_settings&#39;.&quot; -->
<g id="node23" class="node">
<title>22</title>
<ellipse fill="none" stroke="black" cx="406.55" cy="-72" rx="90.76" ry="18"/>
<text xml:space="preserve" text-anchor="middle" x="406.55" y="-66.95" font-family="Times New Roman,serif" font-size="14.00">default_item_settings</text>
</g>
<!-- 0&#45;&gt;22 -->
<g id="edge22" class="edge">
<title>0&#45;&gt;22</title>
<path fill="none" stroke="black" d="M203.95,-124.56C244.7,-113.94 297.67,-100.13 339.08,-89.33"/>
<polygon fill="black" stroke="black" points="339.9,-92.73 348.7,-86.82 338.14,-85.96 339.9,-92.73"/>
</g>
<!-- 23 -->
<!-- name: &quot;hand_settings&quot;, typeName: &quot;&quot;, id: 23, branchId: 0, recurseId: &#45;1, attributes: 0, notes: &quot;Optional. Aim&#45;assist Category used for an empty hand.&quot; -->
<g id="node24" class="node">
<title>23</title>
<ellipse fill="none" stroke="black" cx="406.55" cy="-18" rx="61.59" ry="18"/>
<text xml:space="preserve" text-anchor="middle" x="406.55" y="-12.95" font-family="Times New Roman,serif" font-size="14.00">hand_settings</text>
</g>
<!-- 0&#45;&gt;23 -->
<g id="edge23" class="edge">
<title>0&#45;&gt;23</title>
<path fill="none" stroke="black" d="M169.36,-122.93C203.23,-102.02 261.97,-67.57 315.79,-45 326.14,-40.66 337.44,-36.69 348.41,-33.22"/>
<polygon fill="black" stroke="black" points="349.24,-36.63 357.79,-30.36 347.2,-29.93 349.24,-36.63"/>
</g>
<!-- 3 -->
<!-- name: &quot;blocks&quot;, typeName: &quot;&quot;, id: 3, branchId: 0, recurseId: &#45;1, attributes: 0, notes: &quot;Optional. List of block identifiers to exclude from aim assist targeting.&quot; -->
<g id="node4" class="node">
<title>3</title>
<ellipse fill="none" stroke="black" cx="608.2" cy="-380" rx="34.97" ry="18"/>
<text xml:space="preserve" text-anchor="middle" x="608.2" y="-374.95" font-family="Times New Roman,serif" font-size="14.00">blocks</text>
</g>
<!-- 2&#45;&gt;3 -->
<g id="edge3" class="edge">
<title>2&#45;&gt;3</title>
<path fill="none" stroke="black" d="M467.29,-229.64C477.92,-233.42 488.42,-238.41 497.31,-245 520.49,-262.17 515.54,-276.28 533.31,-299 548.94,-318.99 568.33,-340.12 583.33,-355.79"/>
<polygon fill="black" stroke="black" points="580.64,-358.04 590.1,-362.8 585.67,-353.18 580.64,-358.04"/>
</g>
<!-- 7 -->
<!-- name: &quot;entities&quot;, typeName: &quot;&quot;, id: 7, branchId: 0, recurseId: &#45;1, attributes: 0, notes: &quot;Optional. List of entity identifiers to exclude from aim assist targeting.&quot; -->
<g id="node8" class="node">
<title>7</title>
<ellipse fill="none" stroke="black" cx="608.2" cy="-272" rx="37.53" ry="18"/>
<text xml:space="preserve" text-anchor="middle" x="608.2" y="-266.95" font-family="Times New Roman,serif" font-size="14.00">entities</text>
</g>
<!-- 2&#45;&gt;7 -->
<g id="edge7" class="edge">
<title>2&#45;&gt;7</title>
<path fill="none" stroke="black" d="M458.97,-231.91C491.59,-240.73 533.31,-252.01 564.17,-260.36"/>
<polygon fill="black" stroke="black" points="562.99,-263.67 573.55,-262.9 564.81,-256.91 562.99,-263.67"/>
</g>
<!-- 11 -->
<!-- name: &quot;block_tags&quot;, typeName: &quot;&quot;, id: 11, branchId: 0, recurseId: &#45;1, attributes: 0, notes: &quot;Optional. List of block tags to exclude from aim assist targeting.&quot; -->
<g id="node12" class="node">
<title>11</title>
<ellipse fill="none" stroke="black" cx="608.2" cy="-218" rx="50.84" ry="18"/>
<text xml:space="preserve" text-anchor="middle" x="608.2" y="-212.95" font-family="Times New Roman,serif" font-size="14.00">block_tags</text>
</g>
<!-- 2&#45;&gt;11 -->
<g id="edge11" class="edge">
<title>2&#45;&gt;11</title>
<path fill="none" stroke="black" d="M485.89,-218C505.7,-218 526.7,-218 545.56,-218"/>
<polygon fill="black" stroke="black" points="545.48,-221.5 555.48,-218 545.48,-214.5 545.48,-221.5"/>
</g>
<!-- 4 -->
<!-- name: &quot;List Size&quot;, typeName: &quot;&quot;, id: 4, branchId: 0, recurseId: &#45;1, attributes: 0, notes: &quot;&quot; -->
<g id="node5" class="node">
<title>4</title>
<ellipse fill="none" stroke="black" cx="793.99" cy="-434" rx="43.67" ry="18"/>
<text xml:space="preserve" text-anchor="middle" x="793.99" y="-428.95" font-family="Times New Roman,serif" font-size="14.00">List Size</text>
</g>
<!-- 3&#45;&gt;4 -->
<g id="edge4" class="edge">
<title>3&#45;&gt;4</title>
<path fill="none" stroke="black" d="M639.14,-388.8C668.29,-397.36 713.02,-410.5 746.74,-420.41"/>
<polygon fill="black" stroke="black" points="745.69,-423.75 756.27,-423.21 747.66,-417.03 745.69,-423.75"/>
</g>
<!-- 6 -->
<!-- name: &quot;example element&quot;, typeName: &quot;&quot;, id: 6, branchId: 0, recurseId: &#45;1, attributes: 16, notes: &quot;&quot; -->
<g id="node7" class="node">
<title>6</title>
<ellipse fill="none" stroke="black" stroke-dasharray="1,5" cx="793.99" cy="-380" rx="74.89" ry="18"/>
<text xml:space="preserve" text-anchor="middle" x="793.99" y="-374.95" font-family="Times New Roman,serif" font-size="14.00">example element</text>
</g>
<!-- 3&#45;&gt;6 -->
<g id="edge6" class="edge">
<title>3&#45;&gt;6</title>
<path fill="none" stroke="black" d="M643.34,-380C661.46,-380 684.61,-380 707.26,-380"/>
<polygon fill="black" stroke="black" points="707.16,-383.5 717.16,-380 707.16,-376.5 707.16,-383.5"/>
</g>
<!-- 5 -->
<!-- name: &quot;unsigned varint&quot;, typeName: &quot;&quot;, id: 5, branchId: 0, recurseId: &#45;1, attributes: 0, notes: &quot;&quot; -->
<g id="node6" class="node">
<title>5</title>
<ellipse fill="none" stroke="black" cx="1020.73" cy="-434" rx="68.24" ry="18"/>
<text xml:space="preserve" text-anchor="middle" x="1020.73" y="-428.95" font-family="Times New Roman,serif" font-size="14.00">unsigned varint</text>
</g>
<!-- 4&#45;&gt;5 -->
<g id="edge5" class="edge">
<title>4&#45;&gt;5</title>
<path fill="none" stroke="black" d="M838.06,-434C867.03,-434 906.08,-434 940.56,-434"/>
<polygon fill="black" stroke="black" points="940.54,-437.5 950.54,-434 940.54,-430.5 940.54,-437.5"/>
</g>
<!-- 8 -->
<!-- name: &quot;List Size&quot;, typeName: &quot;&quot;, id: 8, branchId: 0, recurseId: &#45;1, attributes: 0, notes: &quot;&quot; -->
<g id="node9" class="node">
<title>8</title>
<ellipse fill="none" stroke="black" cx="793.99" cy="-326" rx="43.67" ry="18"/>
<text xml:space="preserve" text-anchor="middle" x="793.99" y="-320.95" font-family="Times New Roman,serif" font-size="14.00">List Size</text>
</g>
<!-- 7&#45;&gt;8 -->
<g id="edge8" class="edge">
<title>7&#45;&gt;8</title>
<path fill="none" stroke="black" d="M640.8,-281.28C670.03,-289.87 713.83,-302.74 746.95,-312.47"/>
<polygon fill="black" stroke="black" points="745.7,-315.75 756.29,-315.21 747.68,-309.04 745.7,-315.75"/>
</g>
<!-- 10 -->
<!-- name: &quot;example element&quot;, typeName: &quot;&quot;, id: 10, branchId: 0, recurseId: &#45;1, attributes: 16, notes: &quot;&quot; -->
<g id="node11" class="node">
<title>10</title>
<ellipse fill="none" stroke="black" stroke-dasharray="1,5" cx="793.99" cy="-272" rx="74.89" ry="18"/>
<text xml:space="preserve" text-anchor="middle" x="793.99" y="-266.95" font-family="Times New Roman,serif" font-size="14.00">example element</text>
</g>
<!-- 7&#45;&gt;10 -->
<g id="edge10" class="edge">
<title>7&#45;&gt;10</title>
<path fill="none" stroke="black" d="M645.96,-272C663.71,-272 685.82,-272 707.45,-272"/>
<polygon fill="black" stroke="black" points="707.18,-275.5 717.18,-272 707.18,-268.5 707.18,-275.5"/>
</g>
<!-- 9 -->
<!-- name: &quot;unsigned varint&quot;, typeName: &quot;&quot;, id: 9, branchId: 0, recurseId: &#45;1, attributes: 0, notes: &quot;&quot; -->
<g id="node10" class="node">
<title>9</title>
<ellipse fill="none" stroke="black" cx="1020.73" cy="-326" rx="68.24" ry="18"/>
<text xml:space="preserve" text-anchor="middle" x="1020.73" y="-320.95" font-family="Times New Roman,serif" font-size="14.00">unsigned varint</text>
</g>
<!-- 8&#45;&gt;9 -->
<g id="edge9" class="edge">
<title>8&#45;&gt;9</title>
<path fill="none" stroke="black" d="M838.06,-326C867.03,-326 906.08,-326 940.56,-326"/>
<polygon fill="black" stroke="black" points="940.54,-329.5 950.54,-326 940.54,-322.5 940.54,-329.5"/>
</g>
<!-- 12 -->
<!-- name: &quot;List Size&quot;, typeName: &quot;&quot;, id: 12, branchId: 0, recurseId: &#45;1, attributes: 0, notes: &quot;&quot; -->
<g id="node13" class="node">
<title>12</title>
<ellipse fill="none" stroke="black" cx="793.99" cy="-218" rx="43.67" ry="18"/>
<text xml:space="preserve" text-anchor="middle" x="793.99" y="-212.95" font-family="Times New Roman,serif" font-size="14.00">List Size</text>
</g>
<!-- 11&#45;&gt;12 -->
<g id="edge12" class="edge">
<title>11&#45;&gt;12</title>
<path fill="none" stroke="black" d="M659.43,-218C684.03,-218 713.7,-218 738.82,-218"/>
<polygon fill="black" stroke="black" points="738.49,-221.5 748.49,-218 738.49,-214.5 738.49,-221.5"/>
</g>
<!-- 14 -->
<!-- name: &quot;example element&quot;, typeName: &quot;&quot;, id: 14, branchId: 0, recurseId: &#45;1, attributes: 16, notes: &quot;&quot; -->
<g id="node15" class="node">
<title>14</title>
<ellipse fill="none" stroke="black" stroke-dasharray="1,5" cx="793.99" cy="-164" rx="74.89" ry="18"/>
<text xml:space="preserve" text-anchor="middle" x="793.99" y="-158.95" font-family="Times New Roman,serif" font-size="14.00">example element</text>
</g>
<!-- 11&#45;&gt;14 -->
<g id="edge14" class="edge">
<title>11&#45;&gt;14</title>
<path fill="none" stroke="black" d="M648.18,-206.55C673.2,-199.2 706.17,-189.51 734.32,-181.24"/>
<polygon fill="black" stroke="black" points="735.19,-184.63 743.8,-178.45 733.22,-177.91 735.19,-184.63"/>
</g>
<!-- 13 -->
<!-- name: &quot;unsigned varint&quot;, typeName: &quot;&quot;, id: 13, branchId: 0, recurseId: &#45;1, attributes: 0, notes: &quot;&quot; -->
<g id="node14" class="node">
<title>13</title>
<ellipse fill="none" stroke="black" cx="1020.73" cy="-218" rx="68.24" ry="18"/>
<text xml:space="preserve" text-anchor="middle" x="1020.73" y="-212.95" font-family="Times New Roman,serif" font-size="14.00">unsigned varint</text>
</g>
<!-- 12&#45;&gt;13 -->
<g id="edge13" class="edge">
<title>12&#45;&gt;13</title>
<path fill="none" stroke="black" d="M838.06,-218C867.03,-218 906.08,-218 940.56,-218"/>
<polygon fill="black" stroke="black" points="940.54,-221.5 950.54,-218 940.54,-214.5 940.54,-221.5"/>
</g>
<!-- 15 -->
<!-- name: &quot;string&quot;, typeName: &quot;&quot;, id: 15, branchId: 0, recurseId: &#45;1, attributes: 512, notes: &quot;&quot; -->
<g id="node16" class="node">
<title>15</title>
<ellipse fill="none" stroke="black" cx="1020.73" cy="-164" rx="31.9" ry="18"/>
<text xml:space="preserve" text-anchor="middle" x="1020.73" y="-158.95" font-family="Times New Roman,serif" font-size="14.00">string</text>
</g>
<!-- 14&#45;&gt;15 -->
<g id="edge15" class="edge">
<title>14&#45;&gt;15</title>
<path fill="none" stroke="black" d="M869.2,-164C904.98,-164 946.62,-164 977.02,-164"/>
<polygon fill="black" stroke="black" points="976.98,-167.5 986.98,-164 976.98,-160.5 976.98,-167.5"/>
</g>
<!-- 17 -->
<!-- name: &quot;List Size&quot;, typeName: &quot;&quot;, id: 17, branchId: 0, recurseId: &#45;1, attributes: 0, notes: &quot;&quot; -->
<g id="node18" class="node">
<title>17</title>
<ellipse fill="none" stroke="black" cx="608.2" cy="-164" rx="43.67" ry="18"/>
<text xml:space="preserve" text-anchor="middle" x="608.2" y="-158.95" font-family="Times New Roman,serif" font-size="14.00">List Size</text>
</g>
<!-- 16&#45;&gt;17 -->
<g id="edge17" class="edge">
<title>16&#45;&gt;17</title>
<path fill="none" stroke="black" d="M492.51,-164C512.89,-164 534.12,-164 552.69,-164"/>
<polygon fill="black" stroke="black" points="552.67,-167.5 562.67,-164 552.67,-160.5 552.67,-167.5"/>
</g>
<!-- 19 -->
<!-- name: &quot;example element&quot;, typeName: &quot;&quot;, id: 19, branchId: 0, recurseId: &#45;1, attributes: 16, notes: &quot;&quot; -->
<g id="node20" class="node">
<title>19</title>
<ellipse fill="none" stroke="black" stroke-dasharray="1,5" cx="608.2" cy="-110" rx="74.89" ry="18"/>
<text xml:space="preserve" text-anchor="middle" x="608.2" y="-104.95" font-family="Times New Roman,serif" font-size="14.00">example element</text>
</g>
<!-- 16&#45;&gt;19 -->
<g id="edge19" class="edge">
<title>16&#45;&gt;19</title>
<path fill="none" stroke="black" d="M460.53,-149.67C486.83,-142.56 518.73,-133.93 546.06,-126.54"/>
<polygon fill="black" stroke="black" points="546.87,-129.94 555.61,-123.95 545.05,-123.19 546.87,-129.94"/>
</g>
<!-- 18 -->
<!-- name: &quot;unsigned varint&quot;, typeName: &quot;&quot;, id: 18, branchId: 0, recurseId: &#45;1, attributes: 0, notes: &quot;&quot; -->
<g id="node19" class="node">
<title>18</title>
<ellipse fill="none" stroke="black" cx="793.99" cy="-110" rx="68.24" ry="18"/>
<text xml:space="preserve" text-anchor="middle" x="793.99" y="-104.95" font-family="Times New Roman,serif" font-size="14.00">unsigned varint</text>
</g>
<!-- 17&#45;&gt;18 -->
<g id="edge18" class="edge">
<title>17&#45;&gt;18</title>
<path fill="none" stroke="black" d="M644.64,-153.59C670.65,-145.95 706.52,-135.41 736.47,-126.61"/>
<polygon fill="black" stroke="black" points="737.15,-130.06 745.76,-123.88 735.17,-123.34 737.15,-130.06"/>
</g>
<!-- 21 -->
<!-- name: &quot;map&lt;Reference,Reference&gt;&quot;, typeName: &quot;&quot;, id: 21, branchId: 0, recurseId: &#45;1, attributes: 512, notes: &quot;Optional. Map of Item identifiers to Aim&#45;Assist Category names found in the specified &#39;categories&#39;.&quot; -->
<g id="node22" class="node">
<title>21</title>
<ellipse fill="none" stroke="black" cx="1020.73" cy="-56" rx="115.84" ry="18"/>
<text xml:space="preserve" text-anchor="middle" x="1020.73" y="-50.95" font-family="Times New Roman,serif" font-size="14.00">map&lt;Reference,Reference&gt;</text>
</g>
<!-- 20&#45;&gt;21 -->
<g id="edge21" class="edge">
<title>20&#45;&gt;21</title>
<path fill="none" stroke="black" d="M668.9,-56C727.49,-56 818.68,-56 893.41,-56"/>
<polygon fill="black" stroke="black" points="893.27,-59.5 903.27,-56 893.27,-52.5 893.27,-59.5"/>
</g>
</g>
</svg>
