<?xml version="1.0" encoding="UTF-8" standalone="no"?>
<!DOCTYPE svg PUBLIC "-//W3C//DTD SVG 1.1//EN"
 "http://www.w3.org/Graphics/SVG/1.1/DTD/svg11.dtd">
<!-- Generated by graphviz version 14.0.2 (20251019.1705)
 -->
<!-- Title: CameraInstruction::SplineInstruction::SplineRotationOption Pages: 1 -->
<svg width="849pt" height="206pt"
 viewBox="0.00 0.00 849.00 206.00" xmlns="http://www.w3.org/2000/svg" xmlns:xlink="http://www.w3.org/1999/xlink">
<g id="graph0" class="graph" transform="scale(1 1) rotate(0) translate(4 202)">
<title>CameraInstruction::SplineInstruction::SplineRotationOption</title>
<polygon fill="white" stroke="none" points="-4,4 -4,-202 844.66,-202 844.66,4 -4,4"/>
<!-- 0 -->
<!-- name: &quot;CameraInstruction::SplineInstruction::SplineRotationOption&quot;, typeName: &quot;&quot;, id: 0, branchId: 0, recurseId: &#45;1, attributes: 0, notes: &quot;&quot; -->
<g id="node1" class="node">
<title>0</title>
<ellipse fill="none" stroke="black" cx="234.58" cy="-72" rx="234.58" ry="18"/>
<text xml:space="preserve" text-anchor="middle" x="234.58" y="-66.95" font-family="Times New Roman,serif" font-size="14.00">CameraInstruction::SplineInstruction::SplineRotationOption</text>
</g>
<!-- 1 -->
<!-- name: &quot;Key frame values&quot;, typeName: &quot;&quot;, id: 1, branchId: 0, recurseId: &#45;1, attributes: 0, notes: &quot;&quot; -->
<g id="node2" class="node">
<title>1</title>
<ellipse fill="none" stroke="black" cx="582.1" cy="-112" rx="76.94" ry="18"/>
<text xml:space="preserve" text-anchor="middle" x="582.1" y="-106.95" font-family="Times New Roman,serif" font-size="14.00">Key frame values</text>
</g>
<!-- 0&#45;&gt;1 -->
<g id="edge1" class="edge">
<title>0&#45;&gt;1</title>
<path fill="none" stroke="black" d="M367.19,-87.24C412.42,-92.47 461.64,-98.17 501.45,-102.78"/>
<polygon fill="black" stroke="black" points="500.85,-106.23 511.18,-103.91 501.65,-99.28 500.85,-106.23"/>
</g>
<!-- 8 -->
<!-- name: &quot;Key frame times&quot;, typeName: &quot;&quot;, id: 8, branchId: 0, recurseId: &#45;1, attributes: 0, notes: &quot;&quot; -->
<g id="node9" class="node">
<title>8</title>
<ellipse fill="none" stroke="black" cx="582.1" cy="-45" rx="73.87" ry="18"/>
<text xml:space="preserve" text-anchor="middle" x="582.1" y="-39.95" font-family="Times New Roman,serif" font-size="14.00">Key frame times</text>
</g>
<!-- 0&#45;&gt;8 -->
<g id="edge8" class="edge">
<title>0&#45;&gt;8</title>
<path fill="none" stroke="black" d="M401.76,-59.01C435.95,-56.34 470.48,-53.64 499.99,-51.34"/>
<polygon fill="black" stroke="black" points="500.26,-54.83 509.95,-50.56 499.71,-47.85 500.26,-54.83"/>
</g>
<!-- 2 -->
<!-- name: &quot;X&quot;, typeName: &quot;&quot;, id: 2, branchId: 0, recurseId: &#45;1, attributes: 0, notes: &quot;&quot; -->
<g id="node3" class="node">
<title>2</title>
<ellipse fill="none" stroke="black" cx="722.04" cy="-180" rx="27" ry="18"/>
<text xml:space="preserve" text-anchor="middle" x="722.04" y="-174.95" font-family="Times New Roman,serif" font-size="14.00">X</text>
</g>
<!-- 1&#45;&gt;2 -->
<g id="edge2" class="edge">
<title>1&#45;&gt;2</title>
<path fill="none" stroke="black" d="M616.49,-128.46C638.69,-139.41 667.67,-153.69 689.48,-164.44"/>
<polygon fill="black" stroke="black" points="687.68,-167.46 698.2,-168.74 690.77,-161.18 687.68,-167.46"/>
</g>
<!-- 4 -->
<!-- name: &quot;Y&quot;, typeName: &quot;&quot;, id: 4, branchId: 0, recurseId: &#45;1, attributes: 0, notes: &quot;&quot; -->
<g id="node5" class="node">
<title>4</title>
<ellipse fill="none" stroke="black" cx="722.04" cy="-126" rx="27" ry="18"/>
<text xml:space="preserve" text-anchor="middle" x="722.04" y="-120.95" font-family="Times New Roman,serif" font-size="14.00">Y</text>
</g>
<!-- 1&#45;&gt;4 -->
<g id="edge4" class="edge">
<title>1&#45;&gt;4</title>
<path fill="none" stroke="black" d="M653.28,-119.12C663.77,-120.19 674.21,-121.25 683.65,-122.21"/>
<polygon fill="black" stroke="black" points="683.19,-125.68 693.49,-123.2 683.89,-118.71 683.19,-125.68"/>
</g>
<!-- 6 -->
<!-- name: &quot;Z&quot;, typeName: &quot;&quot;, id: 6, branchId: 0, recurseId: &#45;1, attributes: 0, notes: &quot;&quot; -->
<g id="node7" class="node">
<title>6</title>
<ellipse fill="none" stroke="black" cx="722.04" cy="-72" rx="27" ry="18"/>
<text xml:space="preserve" text-anchor="middle" x="722.04" y="-66.95" font-family="Times New Roman,serif" font-size="14.00">Z</text>
</g>
<!-- 1&#45;&gt;6 -->
<g id="edge6" class="edge">
<title>1&#45;&gt;6</title>
<path fill="none" stroke="black" d="M631.73,-97.9C649.63,-92.71 669.54,-86.94 686,-82.16"/>
<polygon fill="black" stroke="black" points="686.71,-85.6 695.34,-79.45 684.76,-78.88 686.71,-85.6"/>
</g>
<!-- 3 -->
<!-- name: &quot;float&quot;, typeName: &quot;&quot;, id: 3, branchId: 0, recurseId: &#45;1, attributes: 512, notes: &quot;&quot; -->
<g id="node4" class="node">
<title>3</title>
<ellipse fill="none" stroke="black" cx="812.85" cy="-180" rx="27.81" ry="18"/>
<text xml:space="preserve" text-anchor="middle" x="812.85" y="-174.95" font-family="Times New Roman,serif" font-size="14.00">float</text>
</g>
<!-- 2&#45;&gt;3 -->
<g id="edge3" class="edge">
<title>2&#45;&gt;3</title>
<path fill="none" stroke="black" d="M749.21,-180C756.79,-180 765.23,-180 773.39,-180"/>
<polygon fill="black" stroke="black" points="773.12,-183.5 783.12,-180 773.12,-176.5 773.12,-183.5"/>
</g>
<!-- 5 -->
<!-- name: &quot;float&quot;, typeName: &quot;&quot;, id: 5, branchId: 0, recurseId: &#45;1, attributes: 512, notes: &quot;&quot; -->
<g id="node6" class="node">
<title>5</title>
<ellipse fill="none" stroke="black" cx="812.85" cy="-126" rx="27.81" ry="18"/>
<text xml:space="preserve" text-anchor="middle" x="812.85" y="-120.95" font-family="Times New Roman,serif" font-size="14.00">float</text>
</g>
<!-- 4&#45;&gt;5 -->
<g id="edge5" class="edge">
<title>4&#45;&gt;5</title>
<path fill="none" stroke="black" d="M749.21,-126C756.79,-126 765.23,-126 773.39,-126"/>
<polygon fill="black" stroke="black" points="773.12,-129.5 783.12,-126 773.12,-122.5 773.12,-129.5"/>
</g>
<!-- 7 -->
<!-- name: &quot;float&quot;, typeName: &quot;&quot;, id: 7, branchId: 0, recurseId: &#45;1, attributes: 512, notes: &quot;&quot; -->
<g id="node8" class="node">
<title>7</title>
<ellipse fill="none" stroke="black" cx="812.85" cy="-72" rx="27.81" ry="18"/>
<text xml:space="preserve" text-anchor="middle" x="812.85" y="-66.95" font-family="Times New Roman,serif" font-size="14.00">float</text>
</g>
<!-- 6&#45;&gt;7 -->
<g id="edge7" class="edge">
<title>6&#45;&gt;7</title>
<path fill="none" stroke="black" d="M749.21,-72C756.79,-72 765.23,-72 773.39,-72"/>
<polygon fill="black" stroke="black" points="773.12,-75.5 783.12,-72 773.12,-68.5 773.12,-75.5"/>
</g>
<!-- 9 -->
<!-- name: &quot;float&quot;, typeName: &quot;&quot;, id: 9, branchId: 0, recurseId: &#45;1, attributes: 512, notes: &quot;&quot; -->
<g id="node10" class="node">
<title>9</title>
<ellipse fill="none" stroke="black" cx="812.85" cy="-18" rx="27.81" ry="18"/>
<text xml:space="preserve" text-anchor="middle" x="812.85" y="-12.95" font-family="Times New Roman,serif" font-size="14.00">float</text>
</g>
<!-- 8&#45;&gt;9 -->
<g id="edge9" class="edge">
<title>8&#45;&gt;9</title>
<path fill="none" stroke="black" d="M649.26,-37.19C689.75,-32.41 740.1,-26.47 773.95,-22.47"/>
<polygon fill="black" stroke="black" points="774.17,-25.97 783.69,-21.32 773.35,-19.02 774.17,-25.97"/>
</g>
</g>
</svg>
