<?xml version="1.0" encoding="UTF-8" standalone="no"?>
<!DOCTYPE svg PUBLIC "-//W3C//DTD SVG 1.1//EN"
 "http://www.w3.org/Graphics/SVG/1.1/DTD/svg11.dtd">
<!-- Generated by graphviz version 14.0.2 (20251019.1705)
 -->
<!-- Title: CameraAimAssistCategoryDefinition Pages: 1 -->
<svg width="807pt" height="260pt"
 viewBox="0.00 0.00 807.00 260.00" xmlns="http://www.w3.org/2000/svg" xmlns:xlink="http://www.w3.org/1999/xlink">
<g id="graph0" class="graph" transform="scale(1 1) rotate(0) translate(4 256)">
<title>CameraAimAssistCategoryDefinition</title>
<polygon fill="white" stroke="none" points="-4,4 -4,-256 803.28,-256 803.28,4 -4,4"/>
<!-- 0 -->
<!-- name: &quot;CameraAimAssistCategoryDefinition&quot;, typeName: &quot;&quot;, id: 0, branchId: 0, recurseId: &#45;1, attributes: 0, notes: &quot;&quot; -->
<g id="node1" class="node">
<title>0</title>
<ellipse fill="none" stroke="black" cx="151.15" cy="-153" rx="151.15" ry="18"/>
<text xml:space="preserve" text-anchor="middle" x="151.15" y="-147.95" font-family="Times New Roman,serif" font-size="14.00">CameraAimAssistCategoryDefinition</text>
</g>
<!-- 1 -->
<!-- name: &quot;name&quot;, typeName: &quot;&quot;, id: 1, branchId: 0, recurseId: &#45;1, attributes: 0, notes: &quot;Name of the Aim&#45;Assist Category used during lookup.&quot; -->
<g id="node2" class="node">
<title>1</title>
<ellipse fill="none" stroke="black" cx="382.49" cy="-180" rx="31.39" ry="18"/>
<text xml:space="preserve" text-anchor="middle" x="382.49" y="-174.95" font-family="Times New Roman,serif" font-size="14.00">name</text>
</g>
<!-- 0&#45;&gt;1 -->
<g id="edge1" class="edge">
<title>0&#45;&gt;1</title>
<path fill="none" stroke="black" d="M260.44,-165.75C288.76,-169.08 317.59,-172.48 340.01,-175.12"/>
<polygon fill="black" stroke="black" points="339.59,-178.59 349.94,-176.28 340.41,-171.64 339.59,-178.59"/>
</g>
<!-- 2 -->
<!-- name: &quot;priorities&quot;, typeName: &quot;&quot;, id: 2, branchId: 0, recurseId: &#45;1, attributes: 0, notes: &quot;The set of priorities used when determining aim&#45;assist selection.&quot; -->
<g id="node3" class="node">
<title>2</title>
<ellipse fill="none" stroke="black" cx="382.49" cy="-126" rx="44.19" ry="18"/>
<text xml:space="preserve" text-anchor="middle" x="382.49" y="-120.95" font-family="Times New Roman,serif" font-size="14.00">priorities</text>
</g>
<!-- 0&#45;&gt;2 -->
<g id="edge2" class="edge">
<title>0&#45;&gt;2</title>
<path fill="none" stroke="black" d="M260.44,-140.25C284.11,-137.46 308.15,-134.64 328.49,-132.24"/>
<polygon fill="black" stroke="black" points="328.68,-135.74 338.2,-131.1 327.86,-128.79 328.68,-135.74"/>
</g>
<!-- 3 -->
<!-- name: &quot;entities&quot;, typeName: &quot;&quot;, id: 3, branchId: 0, recurseId: &#45;1, attributes: 0, notes: &quot;Optional. Map of Entity identifiers to Aim&#45;Assist targeting priority. Larger numbers have greater priority.&quot; -->
<g id="node4" class="node">
<title>3</title>
<ellipse fill="none" stroke="black" cx="524.78" cy="-234" rx="37.53" ry="18"/>
<text xml:space="preserve" text-anchor="middle" x="524.78" y="-228.95" font-family="Times New Roman,serif" font-size="14.00">entities</text>
</g>
<!-- 2&#45;&gt;3 -->
<g id="edge3" class="edge">
<title>2&#45;&gt;3</title>
<path fill="none" stroke="black" d="M410.37,-140.33C416.09,-144.04 421.86,-148.32 426.68,-153 447.37,-173.1 440.61,-188.43 462.68,-207 468.52,-211.92 475.4,-216.09 482.4,-219.58"/>
<polygon fill="black" stroke="black" points="480.69,-222.65 491.25,-223.58 483.58,-216.27 480.69,-222.65"/>
</g>
<!-- 5 -->
<!-- name: &quot;blocks&quot;, typeName: &quot;&quot;, id: 5, branchId: 0, recurseId: &#45;1, attributes: 0, notes: &quot;Optional. Map of Block identifiers to Aim&#45;Assist targeting priority. Larger numbers have greater priority.&quot; -->
<g id="node6" class="node">
<title>5</title>
<ellipse fill="none" stroke="black" cx="524.78" cy="-180" rx="34.97" ry="18"/>
<text xml:space="preserve" text-anchor="middle" x="524.78" y="-174.95" font-family="Times New Roman,serif" font-size="14.00">blocks</text>
</g>
<!-- 2&#45;&gt;5 -->
<g id="edge5" class="edge">
<title>2&#45;&gt;5</title>
<path fill="none" stroke="black" d="M415.68,-138.39C436.44,-146.38 463.55,-156.81 485.42,-165.24"/>
<polygon fill="black" stroke="black" points="484.01,-168.44 494.6,-168.77 486.52,-161.91 484.01,-168.44"/>
</g>
<!-- 7 -->
<!-- name: &quot;block_tags&quot;, typeName: &quot;&quot;, id: 7, branchId: 0, recurseId: &#45;1, attributes: 0, notes: &quot;Optional. Map of Block tags to Aim&#45;Assist targeting priority. Larger numbers have greater priority.&quot; -->
<g id="node8" class="node">
<title>7</title>
<ellipse fill="none" stroke="black" cx="524.78" cy="-126" rx="50.84" ry="18"/>
<text xml:space="preserve" text-anchor="middle" x="524.78" y="-120.95" font-family="Times New Roman,serif" font-size="14.00">block_tags</text>
</g>
<!-- 2&#45;&gt;7 -->
<g id="edge7" class="edge">
<title>2&#45;&gt;7</title>
<path fill="none" stroke="black" d="M427.11,-126C438.33,-126 450.6,-126 462.53,-126"/>
<polygon fill="black" stroke="black" points="462.3,-129.5 472.3,-126 462.3,-122.5 462.3,-129.5"/>
</g>
<!-- 9 -->
<!-- name: &quot;entity_default&quot;, typeName: &quot;&quot;, id: 9, branchId: 0, recurseId: &#45;1, attributes: 0, notes: &quot;Optional. Default Aim&#45;Assist targeting priority used for Entities not found in &#39;entities&#39;.&quot; -->
<g id="node10" class="node">
<title>9</title>
<ellipse fill="none" stroke="black" cx="524.78" cy="-72" rx="62.1" ry="18"/>
<text xml:space="preserve" text-anchor="middle" x="524.78" y="-66.95" font-family="Times New Roman,serif" font-size="14.00">entity_default</text>
</g>
<!-- 2&#45;&gt;9 -->
<g id="edge9" class="edge">
<title>2&#45;&gt;9</title>
<path fill="none" stroke="black" d="M415.68,-113.61C433.42,-106.78 455.81,-98.16 475.6,-90.55"/>
<polygon fill="black" stroke="black" points="476.79,-93.84 484.87,-86.98 474.28,-87.3 476.79,-93.84"/>
</g>
<!-- 11 -->
<!-- name: &quot;block_default&quot;, typeName: &quot;&quot;, id: 11, branchId: 0, recurseId: &#45;1, attributes: 0, notes: &quot;Optional. Default Aim&#45;Assist targeting priority used for Blocks not found in &#39;blocks&#39;.&quot; -->
<g id="node12" class="node">
<title>11</title>
<ellipse fill="none" stroke="black" cx="524.78" cy="-18" rx="61.59" ry="18"/>
<text xml:space="preserve" text-anchor="middle" x="524.78" y="-12.95" font-family="Times New Roman,serif" font-size="14.00">block_default</text>
</g>
<!-- 2&#45;&gt;11 -->
<g id="edge11" class="edge">
<title>2&#45;&gt;11</title>
<path fill="none" stroke="black" d="M397.09,-108.6C411.75,-90.77 436.5,-63.16 462.68,-45 466.59,-42.29 470.82,-39.75 475.17,-37.4"/>
<polygon fill="black" stroke="black" points="476.69,-40.55 484.06,-32.95 473.55,-34.29 476.69,-40.55"/>
</g>
<!-- 4 -->
<!-- name: &quot;map&lt;Reference,int&gt;&quot;, typeName: &quot;&quot;, id: 4, branchId: 0, recurseId: &#45;1, attributes: 512, notes: &quot;Optional. Map of Entity identifiers to Aim&#45;Assist targeting priority. Larger numbers have greater priority.&quot; -->
<g id="node5" class="node">
<title>4</title>
<ellipse fill="none" stroke="black" cx="711.08" cy="-234" rx="88.2" ry="18"/>
<text xml:space="preserve" text-anchor="middle" x="711.08" y="-228.95" font-family="Times New Roman,serif" font-size="14.00">map&lt;Reference,int&gt;</text>
</g>
<!-- 3&#45;&gt;4 -->
<g id="edge4" class="edge">
<title>3&#45;&gt;4</title>
<path fill="none" stroke="black" d="M562.63,-234C576.85,-234 593.86,-234 611.18,-234"/>
<polygon fill="black" stroke="black" points="611.07,-237.5 621.07,-234 611.07,-230.5 611.07,-237.5"/>
</g>
<!-- 6 -->
<!-- name: &quot;map&lt;Reference,int&gt;&quot;, typeName: &quot;&quot;, id: 6, branchId: 0, recurseId: &#45;1, attributes: 512, notes: &quot;Optional. Map of Block identifiers to Aim&#45;Assist targeting priority. Larger numbers have greater priority.&quot; -->
<g id="node7" class="node">
<title>6</title>
<ellipse fill="none" stroke="black" cx="711.08" cy="-180" rx="88.2" ry="18"/>
<text xml:space="preserve" text-anchor="middle" x="711.08" y="-174.95" font-family="Times New Roman,serif" font-size="14.00">map&lt;Reference,int&gt;</text>
</g>
<!-- 5&#45;&gt;6 -->
<g id="edge6" class="edge">
<title>5&#45;&gt;6</title>
<path fill="none" stroke="black" d="M560.01,-180C574.75,-180 592.82,-180 611.25,-180"/>
<polygon fill="black" stroke="black" points="611.22,-183.5 621.22,-180 611.22,-176.5 611.22,-183.5"/>
</g>
<!-- 8 -->
<!-- name: &quot;map&lt;string,int&gt;&quot;, typeName: &quot;&quot;, id: 8, branchId: 0, recurseId: &#45;1, attributes: 512, notes: &quot;Optional. Map of Block tags to Aim&#45;Assist targeting priority. Larger numbers have greater priority.&quot; -->
<g id="node9" class="node">
<title>8</title>
<ellipse fill="none" stroke="black" cx="711.08" cy="-126" rx="71.82" ry="18"/>
<text xml:space="preserve" text-anchor="middle" x="711.08" y="-120.95" font-family="Times New Roman,serif" font-size="14.00">map&lt;string,int&gt;</text>
</g>
<!-- 7&#45;&gt;8 -->
<g id="edge8" class="edge">
<title>7&#45;&gt;8</title>
<path fill="none" stroke="black" d="M575.65,-126C591.73,-126 610.01,-126 627.78,-126"/>
<polygon fill="black" stroke="black" points="627.55,-129.5 637.55,-126 627.55,-122.5 627.55,-129.5"/>
</g>
<!-- 10 -->
<!-- name: &quot;int&quot;, typeName: &quot;&quot;, id: 10, branchId: 0, recurseId: &#45;1, attributes: 512, notes: &quot;Optional. Default Aim&#45;Assist targeting priority used for Entities not found in &#39;entities&#39;.&quot; -->
<g id="node11" class="node">
<title>10</title>
<ellipse fill="none" stroke="black" cx="711.08" cy="-72" rx="27" ry="18"/>
<text xml:space="preserve" text-anchor="middle" x="711.08" y="-66.95" font-family="Times New Roman,serif" font-size="14.00">int</text>
</g>
<!-- 9&#45;&gt;10 -->
<g id="edge10" class="edge">
<title>9&#45;&gt;10</title>
<path fill="none" stroke="black" d="M587.15,-72C615.41,-72 648.02,-72 672.56,-72"/>
<polygon fill="black" stroke="black" points="672.38,-75.5 682.38,-72 672.38,-68.5 672.38,-75.5"/>
</g>
<!-- 12 -->
<!-- name: &quot;int&quot;, typeName: &quot;&quot;, id: 12, branchId: 0, recurseId: &#45;1, attributes: 512, notes: &quot;Optional. Default Aim&#45;Assist targeting priority used for Blocks not found in &#39;blocks&#39;.&quot; -->
<g id="node13" class="node">
<title>12</title>
<ellipse fill="none" stroke="black" cx="711.08" cy="-18" rx="27" ry="18"/>
<text xml:space="preserve" text-anchor="middle" x="711.08" y="-12.95" font-family="Times New Roman,serif" font-size="14.00">int</text>
</g>
<!-- 11&#45;&gt;12 -->
<g id="edge12" class="edge">
<title>11&#45;&gt;12</title>
<path fill="none" stroke="black" d="M586.64,-18C614.93,-18 647.69,-18 672.35,-18"/>
<polygon fill="black" stroke="black" points="672.23,-21.5 682.23,-18 672.23,-14.5 672.23,-21.5"/>
</g>
</g>
</svg>
