<?xml version="1.0" encoding="UTF-8" standalone="no"?>
<!DOCTYPE svg PUBLIC "-//W3C//DTD SVG 1.1//EN"
 "http://www.w3.org/Graphics/SVG/1.1/DTD/svg11.dtd">
<!-- Generated by graphviz version 14.0.2 (20251019.1705)
 -->
<!-- Title: CameraAimAssistPresetExclusionDefinition Pages: 1 -->
<svg width="857pt" height="314pt"
 viewBox="0.00 0.00 857.00 314.00" xmlns="http://www.w3.org/2000/svg" xmlns:xlink="http://www.w3.org/1999/xlink">
<g id="graph0" class="graph" transform="scale(1 1) rotate(0) translate(4 310)">
<title>CameraAimAssistPresetExclusionDefinition</title>
<polygon fill="white" stroke="none" points="-4,4 -4,-310 853.44,-310 853.44,4 -4,4"/>
<!-- 0 -->
<!-- name: &quot;CameraAimAssistPresetExclusionDefinition&quot;, typeName: &quot;&quot;, id: 0, branchId: 0, recurseId: &#45;1, attributes: 0, notes: &quot;&quot; -->
<g id="node1" class="node">
<title>0</title>
<ellipse fill="none" stroke="black" cx="176.74" cy="-153" rx="176.74" ry="18"/>
<text xml:space="preserve" text-anchor="middle" x="176.74" y="-147.95" font-family="Times New Roman,serif" font-size="14.00">CameraAimAssistPresetExclusionDefinition</text>
</g>
<!-- 1 -->
<!-- name: &quot;blocks&quot;, typeName: &quot;&quot;, id: 1, branchId: 0, recurseId: &#45;1, attributes: 0, notes: &quot;Optional. List of block identifiers to exclude from aim assist targeting.&quot; -->
<g id="node2" class="node">
<title>1</title>
<ellipse fill="none" stroke="black" cx="440.33" cy="-234" rx="34.97" ry="18"/>
<text xml:space="preserve" text-anchor="middle" x="440.33" y="-228.95" font-family="Times New Roman,serif" font-size="14.00">blocks</text>
</g>
<!-- 0&#45;&gt;1 -->
<g id="edge1" class="edge">
<title>0&#45;&gt;1</title>
<path fill="none" stroke="black" d="M234.18,-170.48C283.78,-185.84 354.75,-207.81 398.88,-221.48"/>
<polygon fill="black" stroke="black" points="397.73,-224.78 408.32,-224.4 399.8,-218.1 397.73,-224.78"/>
</g>
<!-- 5 -->
<!-- name: &quot;entities&quot;, typeName: &quot;&quot;, id: 5, branchId: 0, recurseId: &#45;1, attributes: 0, notes: &quot;Optional. List of entity identifiers to exclude from aim assist targeting.&quot; -->
<g id="node6" class="node">
<title>5</title>
<ellipse fill="none" stroke="black" cx="440.33" cy="-153" rx="37.53" ry="18"/>
<text xml:space="preserve" text-anchor="middle" x="440.33" y="-147.95" font-family="Times New Roman,serif" font-size="14.00">entities</text>
</g>
<!-- 0&#45;&gt;5 -->
<g id="edge5" class="edge">
<title>0&#45;&gt;5</title>
<path fill="none" stroke="black" d="M353.68,-153C367.12,-153 379.84,-153 391.16,-153"/>
<polygon fill="black" stroke="black" points="390.91,-156.5 400.91,-153 390.91,-149.5 390.91,-156.5"/>
</g>
<!-- 9 -->
<!-- name: &quot;block_tags&quot;, typeName: &quot;&quot;, id: 9, branchId: 0, recurseId: &#45;1, attributes: 0, notes: &quot;Optional. List of block tags to exclude from aim assist targeting.&quot; -->
<g id="node10" class="node">
<title>9</title>
<ellipse fill="none" stroke="black" cx="440.33" cy="-72" rx="50.84" ry="18"/>
<text xml:space="preserve" text-anchor="middle" x="440.33" y="-66.95" font-family="Times New Roman,serif" font-size="14.00">block_tags</text>
</g>
<!-- 0&#45;&gt;9 -->
<g id="edge9" class="edge">
<title>0&#45;&gt;9</title>
<path fill="none" stroke="black" d="M234.18,-135.52C280.7,-121.12 346.02,-100.89 390.36,-87.16"/>
<polygon fill="black" stroke="black" points="391.2,-90.57 399.71,-84.27 389.13,-83.88 391.2,-90.57"/>
</g>
<!-- 2 -->
<!-- name: &quot;List Size&quot;, typeName: &quot;&quot;, id: 2, branchId: 0, recurseId: &#45;1, attributes: 0, notes: &quot;&quot; -->
<g id="node3" class="node">
<title>2</title>
<ellipse fill="none" stroke="black" cx="602.06" cy="-288" rx="43.67" ry="18"/>
<text xml:space="preserve" text-anchor="middle" x="602.06" y="-282.95" font-family="Times New Roman,serif" font-size="14.00">List Size</text>
</g>
<!-- 1&#45;&gt;2 -->
<g id="edge2" class="edge">
<title>1&#45;&gt;2</title>
<path fill="none" stroke="black" d="M470.26,-243.78C494.38,-251.94 529.16,-263.69 556.79,-273.03"/>
<polygon fill="black" stroke="black" points="555.34,-276.24 565.94,-276.13 557.58,-269.61 555.34,-276.24"/>
</g>
<!-- 4 -->
<!-- name: &quot;example element&quot;, typeName: &quot;&quot;, id: 4, branchId: 0, recurseId: &#45;1, attributes: 16, notes: &quot;&quot; -->
<g id="node5" class="node">
<title>4</title>
<ellipse fill="none" stroke="black" stroke-dasharray="1,5" cx="602.06" cy="-234" rx="74.89" ry="18"/>
<text xml:space="preserve" text-anchor="middle" x="602.06" y="-228.95" font-family="Times New Roman,serif" font-size="14.00">example element</text>
</g>
<!-- 1&#45;&gt;4 -->
<g id="edge4" class="edge">
<title>1&#45;&gt;4</title>
<path fill="none" stroke="black" d="M475.6,-234C487.46,-234 501.34,-234 515.46,-234"/>
<polygon fill="black" stroke="black" points="515.29,-237.5 525.29,-234 515.29,-230.5 515.29,-237.5"/>
</g>
<!-- 3 -->
<!-- name: &quot;unsigned varint&quot;, typeName: &quot;&quot;, id: 3, branchId: 0, recurseId: &#45;1, attributes: 0, notes: &quot;&quot; -->
<g id="node4" class="node">
<title>3</title>
<ellipse fill="none" stroke="black" cx="781.2" cy="-288" rx="68.24" ry="18"/>
<text xml:space="preserve" text-anchor="middle" x="781.2" y="-282.95" font-family="Times New Roman,serif" font-size="14.00">unsigned varint</text>
</g>
<!-- 2&#45;&gt;3 -->
<g id="edge3" class="edge">
<title>2&#45;&gt;3</title>
<path fill="none" stroke="black" d="M645.94,-288C662.55,-288 682.12,-288 701.1,-288"/>
<polygon fill="black" stroke="black" points="700.98,-291.5 710.98,-288 700.98,-284.5 700.98,-291.5"/>
</g>
<!-- 6 -->
<!-- name: &quot;List Size&quot;, typeName: &quot;&quot;, id: 6, branchId: 0, recurseId: &#45;1, attributes: 0, notes: &quot;&quot; -->
<g id="node7" class="node">
<title>6</title>
<ellipse fill="none" stroke="black" cx="602.06" cy="-180" rx="43.67" ry="18"/>
<text xml:space="preserve" text-anchor="middle" x="602.06" y="-174.95" font-family="Times New Roman,serif" font-size="14.00">List Size</text>
</g>
<!-- 5&#45;&gt;6 -->
<g id="edge6" class="edge">
<title>5&#45;&gt;6</title>
<path fill="none" stroke="black" d="M475.99,-158.86C497.61,-162.51 525.83,-167.28 549.99,-171.37"/>
<polygon fill="black" stroke="black" points="549.18,-174.78 559.63,-173 550.35,-167.88 549.18,-174.78"/>
</g>
<!-- 8 -->
<!-- name: &quot;example element&quot;, typeName: &quot;&quot;, id: 8, branchId: 0, recurseId: &#45;1, attributes: 16, notes: &quot;&quot; -->
<g id="node9" class="node">
<title>8</title>
<ellipse fill="none" stroke="black" stroke-dasharray="1,5" cx="602.06" cy="-126" rx="74.89" ry="18"/>
<text xml:space="preserve" text-anchor="middle" x="602.06" y="-120.95" font-family="Times New Roman,serif" font-size="14.00">example element</text>
</g>
<!-- 5&#45;&gt;8 -->
<g id="edge8" class="edge">
<title>5&#45;&gt;8</title>
<path fill="none" stroke="black" d="M475.99,-147.14C491.41,-144.53 510.19,-141.36 528.46,-138.27"/>
<polygon fill="black" stroke="black" points="528.97,-141.74 538.24,-136.62 527.8,-134.83 528.97,-141.74"/>
</g>
<!-- 7 -->
<!-- name: &quot;unsigned varint&quot;, typeName: &quot;&quot;, id: 7, branchId: 0, recurseId: &#45;1, attributes: 0, notes: &quot;&quot; -->
<g id="node8" class="node">
<title>7</title>
<ellipse fill="none" stroke="black" cx="781.2" cy="-180" rx="68.24" ry="18"/>
<text xml:space="preserve" text-anchor="middle" x="781.2" y="-174.95" font-family="Times New Roman,serif" font-size="14.00">unsigned varint</text>
</g>
<!-- 6&#45;&gt;7 -->
<g id="edge7" class="edge">
<title>6&#45;&gt;7</title>
<path fill="none" stroke="black" d="M645.94,-180C662.55,-180 682.12,-180 701.1,-180"/>
<polygon fill="black" stroke="black" points="700.98,-183.5 710.98,-180 700.98,-176.5 700.98,-183.5"/>
</g>
<!-- 10 -->
<!-- name: &quot;List Size&quot;, typeName: &quot;&quot;, id: 10, branchId: 0, recurseId: &#45;1, attributes: 0, notes: &quot;&quot; -->
<g id="node11" class="node">
<title>10</title>
<ellipse fill="none" stroke="black" cx="602.06" cy="-72" rx="43.67" ry="18"/>
<text xml:space="preserve" text-anchor="middle" x="602.06" y="-66.95" font-family="Times New Roman,serif" font-size="14.00">List Size</text>
</g>
<!-- 9&#45;&gt;10 -->
<g id="edge10" class="edge">
<title>9&#45;&gt;10</title>
<path fill="none" stroke="black" d="M491.43,-72C508.99,-72 528.8,-72 546.69,-72"/>
<polygon fill="black" stroke="black" points="546.62,-75.5 556.62,-72 546.62,-68.5 546.62,-75.5"/>
</g>
<!-- 12 -->
<!-- name: &quot;example element&quot;, typeName: &quot;&quot;, id: 12, branchId: 0, recurseId: &#45;1, attributes: 16, notes: &quot;&quot; -->
<g id="node13" class="node">
<title>12</title>
<ellipse fill="none" stroke="black" stroke-dasharray="1,5" cx="602.06" cy="-18" rx="74.89" ry="18"/>
<text xml:space="preserve" text-anchor="middle" x="602.06" y="-12.95" font-family="Times New Roman,serif" font-size="14.00">example element</text>
</g>
<!-- 9&#45;&gt;12 -->
<g id="edge12" class="edge">
<title>9&#45;&gt;12</title>
<path fill="none" stroke="black" d="M477.97,-59.61C498.24,-52.76 523.81,-44.11 546.39,-36.48"/>
<polygon fill="black" stroke="black" points="547.42,-39.83 555.77,-33.31 545.18,-33.2 547.42,-39.83"/>
</g>
<!-- 11 -->
<!-- name: &quot;unsigned varint&quot;, typeName: &quot;&quot;, id: 11, branchId: 0, recurseId: &#45;1, attributes: 0, notes: &quot;&quot; -->
<g id="node12" class="node">
<title>11</title>
<ellipse fill="none" stroke="black" cx="781.2" cy="-72" rx="68.24" ry="18"/>
<text xml:space="preserve" text-anchor="middle" x="781.2" y="-66.95" font-family="Times New Roman,serif" font-size="14.00">unsigned varint</text>
</g>
<!-- 10&#45;&gt;11 -->
<g id="edge11" class="edge">
<title>10&#45;&gt;11</title>
<path fill="none" stroke="black" d="M645.94,-72C662.55,-72 682.12,-72 701.1,-72"/>
<polygon fill="black" stroke="black" points="700.98,-75.5 710.98,-72 700.98,-68.5 700.98,-75.5"/>
</g>
<!-- 13 -->
<!-- name: &quot;string&quot;, typeName: &quot;&quot;, id: 13, branchId: 0, recurseId: &#45;1, attributes: 512, notes: &quot;&quot; -->
<g id="node14" class="node">
<title>13</title>
<ellipse fill="none" stroke="black" cx="781.2" cy="-18" rx="31.9" ry="18"/>
<text xml:space="preserve" text-anchor="middle" x="781.2" y="-12.95" font-family="Times New Roman,serif" font-size="14.00">string</text>
</g>
<!-- 12&#45;&gt;13 -->
<g id="edge13" class="edge">
<title>12&#45;&gt;13</title>
<path fill="none" stroke="black" d="M677.41,-18C697.92,-18 719.47,-18 737.51,-18"/>
<polygon fill="black" stroke="black" points="737.29,-21.5 747.29,-18 737.29,-14.5 737.29,-21.5"/>
</g>
</g>
</svg>
