<?xml version="1.0" encoding="UTF-8" standalone="no"?>
<!DOCTYPE svg PUBLIC "-//W3C//DTD SVG 1.1//EN"
 "http://www.w3.org/Graphics/SVG/1.1/DTD/svg11.dtd">
<!-- Generated by graphviz version 14.0.1 (20251006.0113)
 -->
<!-- Title: CameraInstruction::SplineInstruction Pages: 1 -->
<svg width="1201pt" height="684pt"
 viewBox="0.00 0.00 1201.00 684.00" xmlns="http://www.w3.org/2000/svg" xmlns:xlink="http://www.w3.org/1999/xlink">
<g id="graph0" class="graph" transform="scale(1 1) rotate(0) translate(4 680)">
<title>CameraInstruction::SplineInstruction</title>
<polygon fill="white" stroke="none" points="-4,4 -4,-680 1197.38,-680 1197.38,4 -4,4"/>
<!-- 0 -->
<!-- name: &quot;CameraInstruction::SplineInstruction&quot;, typeName: &quot;&quot;, id: 0, branchId: 0, recurseId: &#45;1, attributes: 0, notes: &quot;&quot; -->
<g id="node1" class="node">
<title>0</title>
<ellipse fill="none" stroke="black" cx="148.59" cy="-470" rx="148.59" ry="18"/>
<text xml:space="preserve" text-anchor="middle" x="148.59" y="-464.95" font-family="Times New Roman,serif" font-size="14.00">CameraInstruction::SplineInstruction</text>
</g>
<!-- 1 -->
<!-- name: &quot;totalTime&quot;, typeName: &quot;&quot;, id: 1, branchId: 0, recurseId: &#45;1, attributes: 0, notes: &quot;&quot; -->
<g id="node2" class="node">
<title>1</title>
<ellipse fill="none" stroke="black" cx="398.36" cy="-651" rx="47.26" ry="18"/>
<text xml:space="preserve" text-anchor="middle" x="398.36" y="-645.95" font-family="Times New Roman,serif" font-size="14.00">totalTime</text>
</g>
<!-- 0&#45;&gt;1 -->
<g id="edge1" class="edge">
<title>0&#45;&gt;1</title>
<path fill="none" stroke="black" d="M174.26,-488.02C219.68,-521.2 316.45,-591.9 366.28,-628.3"/>
<polygon fill="black" stroke="black" points="363.95,-630.92 374.09,-634 368.08,-625.27 363.95,-630.92"/>
</g>
<!-- 3 -->
<!-- name: &quot;type&quot;, typeName: &quot;&quot;, id: 3, branchId: 0, recurseId: &#45;1, attributes: 0, notes: &quot;&quot; -->
<g id="node4" class="node">
<title>3</title>
<ellipse fill="none" stroke="black" cx="398.36" cy="-570" rx="27" ry="18"/>
<text xml:space="preserve" text-anchor="middle" x="398.36" y="-564.95" font-family="Times New Roman,serif" font-size="14.00">type</text>
</g>
<!-- 0&#45;&gt;3 -->
<g id="edge3" class="edge">
<title>0&#45;&gt;3</title>
<path fill="none" stroke="black" d="M193.32,-487.65C242.11,-507.34 319.98,-538.77 364.07,-556.57"/>
<polygon fill="black" stroke="black" points="362.53,-559.72 373.11,-560.21 365.15,-553.23 362.53,-559.72"/>
</g>
<!-- 5 -->
<!-- name: &quot;curve&quot;, typeName: &quot;&quot;, id: 5, branchId: 0, recurseId: &#45;1, attributes: 0, notes: &quot;&quot; -->
<g id="node6" class="node">
<title>5</title>
<ellipse fill="none" stroke="black" cx="584.66" cy="-470" rx="31.39" ry="18"/>
<text xml:space="preserve" text-anchor="middle" x="584.66" y="-464.95" font-family="Times New Roman,serif" font-size="14.00">curve</text>
</g>
<!-- 0&#45;&gt;5 -->
<g id="edge5" class="edge">
<title>0&#45;&gt;5</title>
<path fill="none" stroke="black" d="M297.46,-470C383.47,-470 485.67,-470 541.71,-470"/>
<polygon fill="black" stroke="black" points="541.43,-473.5 551.43,-470 541.43,-466.5 541.43,-473.5"/>
</g>
<!-- 15 -->
<!-- name: &quot;progressKeyFrames&quot;, typeName: &quot;&quot;, id: 15, branchId: 0, recurseId: &#45;1, attributes: 0, notes: &quot;&quot; -->
<g id="node16" class="node">
<title>15</title>
<ellipse fill="none" stroke="black" cx="584.66" cy="-342" rx="85.13" ry="18"/>
<text xml:space="preserve" text-anchor="middle" x="584.66" y="-336.95" font-family="Times New Roman,serif" font-size="14.00">progressKeyFrames</text>
</g>
<!-- 0&#45;&gt;15 -->
<g id="edge15" class="edge">
<title>0&#45;&gt;15</title>
<path fill="none" stroke="black" d="M207.24,-453C289.23,-428.82 438.86,-384.7 522.66,-359.99"/>
<polygon fill="black" stroke="black" points="523.48,-363.4 532.08,-357.21 521.5,-356.68 523.48,-363.4"/>
</g>
<!-- 23 -->
<!-- name: &quot;rotationOption&quot;, typeName: &quot;&quot;, id: 23, branchId: 0, recurseId: &#45;1, attributes: 0, notes: &quot;&quot; -->
<g id="node24" class="node">
<title>23</title>
<ellipse fill="none" stroke="black" cx="398.36" cy="-207" rx="65.17" ry="18"/>
<text xml:space="preserve" text-anchor="middle" x="398.36" y="-201.95" font-family="Times New Roman,serif" font-size="14.00">rotationOption</text>
</g>
<!-- 0&#45;&gt;23 -->
<g id="edge23" class="edge">
<title>0&#45;&gt;23</title>
<path fill="none" stroke="black" d="M166.62,-451.92C209.71,-406.19 323.15,-285.77 373.13,-232.72"/>
<polygon fill="black" stroke="black" points="375.52,-235.29 379.83,-225.61 370.42,-230.49 375.52,-235.29"/>
</g>
<!-- 2 -->
<!-- name: &quot;float&quot;, typeName: &quot;&quot;, id: 2, branchId: 0, recurseId: &#45;1, attributes: 512, notes: &quot;&quot; -->
<g id="node3" class="node">
<title>2</title>
<ellipse fill="none" stroke="black" cx="1130.77" cy="-658" rx="27.81" ry="18"/>
<text xml:space="preserve" text-anchor="middle" x="1130.77" y="-652.95" font-family="Times New Roman,serif" font-size="14.00">float</text>
</g>
<!-- 1&#45;&gt;2 -->
<g id="edge2" class="edge">
<title>1&#45;&gt;2</title>
<path fill="none" stroke="black" d="M445.88,-651.45C580.3,-652.73 967.46,-656.44 1091.23,-657.63"/>
<polygon fill="black" stroke="black" points="1091.16,-661.13 1101.19,-657.73 1091.22,-654.13 1091.16,-661.13"/>
</g>
<!-- 4 -->
<!-- name: &quot;unsigned byte&quot;, typeName: &quot;&quot;, id: 4, branchId: 0, recurseId: &#45;1, attributes: 512, notes: &quot;&quot; -->
<g id="node5" class="node">
<title>4</title>
<ellipse fill="none" stroke="black" cx="1130.77" cy="-604" rx="62.61" ry="18"/>
<text xml:space="preserve" text-anchor="middle" x="1130.77" y="-598.95" font-family="Times New Roman,serif" font-size="14.00">unsigned byte</text>
</g>
<!-- 3&#45;&gt;4 -->
<g id="edge4" class="edge">
<title>3&#45;&gt;4</title>
<path fill="none" stroke="black" d="M425.79,-571.23C527.84,-575.98 898.39,-593.23 1056.96,-600.61"/>
<polygon fill="black" stroke="black" points="1056.8,-604.11 1066.95,-601.08 1057.12,-597.11 1056.8,-604.11"/>
</g>
<!-- 6 -->
<!-- name: &quot;List Size&quot;, typeName: &quot;&quot;, id: 6, branchId: 0, recurseId: &#45;1, attributes: 0, notes: &quot;&quot; -->
<g id="node7" class="node">
<title>6</title>
<ellipse fill="none" stroke="black" cx="782.73" cy="-535" rx="43.67" ry="18"/>
<text xml:space="preserve" text-anchor="middle" x="782.73" y="-529.95" font-family="Times New Roman,serif" font-size="14.00">List Size</text>
</g>
<!-- 5&#45;&gt;6 -->
<g id="edge6" class="edge">
<title>5&#45;&gt;6</title>
<path fill="none" stroke="black" d="M612.51,-478.9C644.59,-489.53 698.72,-507.48 737.11,-520.21"/>
<polygon fill="black" stroke="black" points="735.96,-523.51 746.55,-523.34 738.16,-516.87 735.96,-523.51"/>
</g>
<!-- 8 -->
<!-- name: &quot;example element&quot;, typeName: &quot;&quot;, id: 8, branchId: 0, recurseId: &#45;1, attributes: 16, notes: &quot;&quot; -->
<g id="node9" class="node">
<title>8</title>
<ellipse fill="none" stroke="black" stroke-dasharray="1,5" cx="782.73" cy="-457" rx="74.89" ry="18"/>
<text xml:space="preserve" text-anchor="middle" x="782.73" y="-451.95" font-family="Times New Roman,serif" font-size="14.00">example element</text>
</g>
<!-- 5&#45;&gt;8 -->
<g id="edge8" class="edge">
<title>5&#45;&gt;8</title>
<path fill="none" stroke="black" d="M616.3,-467.97C638.55,-466.49 669.78,-464.42 699.12,-462.48"/>
<polygon fill="black" stroke="black" points="699,-465.99 708.74,-461.84 698.53,-459.01 699,-465.99"/>
</g>
<!-- 7 -->
<!-- name: &quot;unsigned varint&quot;, typeName: &quot;&quot;, id: 7, branchId: 0, recurseId: &#45;1, attributes: 0, notes: &quot;&quot; -->
<g id="node8" class="node">
<title>7</title>
<ellipse fill="none" stroke="black" cx="963.92" cy="-558" rx="68.24" ry="18"/>
<text xml:space="preserve" text-anchor="middle" x="963.92" y="-552.95" font-family="Times New Roman,serif" font-size="14.00">unsigned varint</text>
</g>
<!-- 6&#45;&gt;7 -->
<g id="edge7" class="edge">
<title>6&#45;&gt;7</title>
<path fill="none" stroke="black" d="M824.84,-540.28C844.38,-542.78 868.31,-545.86 890.73,-548.73"/>
<polygon fill="black" stroke="black" points="890.07,-552.18 900.44,-549.98 890.96,-545.24 890.07,-552.18"/>
</g>
<!-- 9 -->
<!-- name: &quot;X&quot;, typeName: &quot;&quot;, id: 9, branchId: 0, recurseId: &#45;1, attributes: 0, notes: &quot;&quot; -->
<g id="node10" class="node">
<title>9</title>
<ellipse fill="none" stroke="black" cx="963.92" cy="-504" rx="27" ry="18"/>
<text xml:space="preserve" text-anchor="middle" x="963.92" y="-498.95" font-family="Times New Roman,serif" font-size="14.00">X</text>
</g>
<!-- 8&#45;&gt;9 -->
<g id="edge9" class="edge">
<title>8&#45;&gt;9</title>
<path fill="none" stroke="black" d="M834.6,-470.34C864.16,-478.1 900.69,-487.68 927.2,-494.63"/>
<polygon fill="black" stroke="black" points="926.24,-498 936.8,-497.15 928.01,-491.23 926.24,-498"/>
</g>
<!-- 11 -->
<!-- name: &quot;Y&quot;, typeName: &quot;&quot;, id: 11, branchId: 0, recurseId: &#45;1, attributes: 0, notes: &quot;&quot; -->
<g id="node12" class="node">
<title>11</title>
<ellipse fill="none" stroke="black" cx="963.92" cy="-450" rx="27" ry="18"/>
<text xml:space="preserve" text-anchor="middle" x="963.92" y="-444.95" font-family="Times New Roman,serif" font-size="14.00">Y</text>
</g>
<!-- 8&#45;&gt;11 -->
<g id="edge11" class="edge">
<title>8&#45;&gt;11</title>
<path fill="none" stroke="black" d="M857.13,-454.13C880.61,-453.22 905.63,-452.24 925.44,-451.46"/>
<polygon fill="black" stroke="black" points="925.37,-454.97 935.23,-451.08 925.1,-447.97 925.37,-454.97"/>
</g>
<!-- 13 -->
<!-- name: &quot;Z&quot;, typeName: &quot;&quot;, id: 13, branchId: 0, recurseId: &#45;1, attributes: 0, notes: &quot;&quot; -->
<g id="node14" class="node">
<title>13</title>
<ellipse fill="none" stroke="black" cx="963.92" cy="-396" rx="27" ry="18"/>
<text xml:space="preserve" text-anchor="middle" x="963.92" y="-390.95" font-family="Times New Roman,serif" font-size="14.00">Z</text>
</g>
<!-- 8&#45;&gt;13 -->
<g id="edge13" class="edge">
<title>8&#45;&gt;13</title>
<path fill="none" stroke="black" d="M827.11,-442.23C858.29,-431.62 899.75,-417.5 928.63,-407.67"/>
<polygon fill="black" stroke="black" points="929.64,-411.03 937.98,-404.49 927.38,-404.4 929.64,-411.03"/>
</g>
<!-- 10 -->
<!-- name: &quot;float&quot;, typeName: &quot;&quot;, id: 10, branchId: 0, recurseId: &#45;1, attributes: 512, notes: &quot;&quot; -->
<g id="node11" class="node">
<title>10</title>
<ellipse fill="none" stroke="black" cx="1130.77" cy="-504" rx="27.81" ry="18"/>
<text xml:space="preserve" text-anchor="middle" x="1130.77" y="-498.95" font-family="Times New Roman,serif" font-size="14.00">float</text>
</g>
<!-- 9&#45;&gt;10 -->
<g id="edge10" class="edge">
<title>9&#45;&gt;10</title>
<path fill="none" stroke="black" d="M991.4,-504C1018.44,-504 1060.68,-504 1091.38,-504"/>
<polygon fill="black" stroke="black" points="1091.01,-507.5 1101.01,-504 1091.01,-500.5 1091.01,-507.5"/>
</g>
<!-- 12 -->
<!-- name: &quot;float&quot;, typeName: &quot;&quot;, id: 12, branchId: 0, recurseId: &#45;1, attributes: 512, notes: &quot;&quot; -->
<g id="node13" class="node">
<title>12</title>
<ellipse fill="none" stroke="black" cx="1130.77" cy="-450" rx="27.81" ry="18"/>
<text xml:space="preserve" text-anchor="middle" x="1130.77" y="-444.95" font-family="Times New Roman,serif" font-size="14.00">float</text>
</g>
<!-- 11&#45;&gt;12 -->
<g id="edge12" class="edge">
<title>11&#45;&gt;12</title>
<path fill="none" stroke="black" d="M991.4,-450C1018.44,-450 1060.68,-450 1091.38,-450"/>
<polygon fill="black" stroke="black" points="1091.01,-453.5 1101.01,-450 1091.01,-446.5 1091.01,-453.5"/>
</g>
<!-- 14 -->
<!-- name: &quot;float&quot;, typeName: &quot;&quot;, id: 14, branchId: 0, recurseId: &#45;1, attributes: 512, notes: &quot;&quot; -->
<g id="node15" class="node">
<title>14</title>
<ellipse fill="none" stroke="black" cx="1130.77" cy="-396" rx="27.81" ry="18"/>
<text xml:space="preserve" text-anchor="middle" x="1130.77" y="-390.95" font-family="Times New Roman,serif" font-size="14.00">float</text>
</g>
<!-- 13&#45;&gt;14 -->
<g id="edge14" class="edge">
<title>13&#45;&gt;14</title>
<path fill="none" stroke="black" d="M991.4,-396C1018.44,-396 1060.68,-396 1091.38,-396"/>
<polygon fill="black" stroke="black" points="1091.01,-399.5 1101.01,-396 1091.01,-392.5 1091.01,-399.5"/>
</g>
<!-- 16 -->
<!-- name: &quot;List Size&quot;, typeName: &quot;&quot;, id: 16, branchId: 0, recurseId: &#45;1, attributes: 0, notes: &quot;&quot; -->
<g id="node17" class="node">
<title>16</title>
<ellipse fill="none" stroke="black" cx="782.73" cy="-342" rx="43.67" ry="18"/>
<text xml:space="preserve" text-anchor="middle" x="782.73" y="-336.95" font-family="Times New Roman,serif" font-size="14.00">List Size</text>
</g>
<!-- 15&#45;&gt;16 -->
<g id="edge16" class="edge">
<title>15&#45;&gt;16</title>
<path fill="none" stroke="black" d="M670.24,-342C689.53,-342 709.53,-342 727.18,-342"/>
<polygon fill="black" stroke="black" points="727.17,-345.5 737.17,-342 727.17,-338.5 727.17,-345.5"/>
</g>
<!-- 18 -->
<!-- name: &quot;example element&quot;, typeName: &quot;&quot;, id: 18, branchId: 0, recurseId: &#45;1, attributes: 16, notes: &quot;&quot; -->
<g id="node19" class="node">
<title>18</title>
<ellipse fill="none" stroke="black" stroke-dasharray="1,5" cx="782.73" cy="-288" rx="74.89" ry="18"/>
<text xml:space="preserve" text-anchor="middle" x="782.73" y="-282.95" font-family="Times New Roman,serif" font-size="14.00">example element</text>
</g>
<!-- 15&#45;&gt;18 -->
<g id="edge18" class="edge">
<title>15&#45;&gt;18</title>
<path fill="none" stroke="black" d="M637.95,-327.6C663.67,-320.52 694.81,-311.94 721.53,-304.58"/>
<polygon fill="black" stroke="black" points="722.12,-308.05 730.83,-302.02 720.26,-301.3 722.12,-308.05"/>
</g>
<!-- 17 -->
<!-- name: &quot;unsigned varint&quot;, typeName: &quot;&quot;, id: 17, branchId: 0, recurseId: &#45;1, attributes: 0, notes: &quot;&quot; -->
<g id="node18" class="node">
<title>17</title>
<ellipse fill="none" stroke="black" cx="963.92" cy="-342" rx="68.24" ry="18"/>
<text xml:space="preserve" text-anchor="middle" x="963.92" y="-336.95" font-family="Times New Roman,serif" font-size="14.00">unsigned varint</text>
</g>
<!-- 16&#45;&gt;17 -->
<g id="edge17" class="edge">
<title>16&#45;&gt;17</title>
<path fill="none" stroke="black" d="M826.65,-342C843.88,-342 864.29,-342 884.01,-342"/>
<polygon fill="black" stroke="black" points="883.99,-345.5 893.99,-342 883.99,-338.5 883.99,-345.5"/>
</g>
<!-- 19 -->
<!-- name: &quot;X&quot;, typeName: &quot;&quot;, id: 19, branchId: 0, recurseId: &#45;1, attributes: 0, notes: &quot;&quot; -->
<g id="node20" class="node">
<title>19</title>
<ellipse fill="none" stroke="black" cx="963.92" cy="-288" rx="27" ry="18"/>
<text xml:space="preserve" text-anchor="middle" x="963.92" y="-282.95" font-family="Times New Roman,serif" font-size="14.00">X</text>
</g>
<!-- 18&#45;&gt;19 -->
<g id="edge19" class="edge">
<title>18&#45;&gt;19</title>
<path fill="none" stroke="black" d="M857.91,-288C881.03,-288 905.56,-288 925.1,-288"/>
<polygon fill="black" stroke="black" points="925.04,-291.5 935.04,-288 925.04,-284.5 925.04,-291.5"/>
</g>
<!-- 21 -->
<!-- name: &quot;Y&quot;, typeName: &quot;&quot;, id: 21, branchId: 0, recurseId: &#45;1, attributes: 0, notes: &quot;&quot; -->
<g id="node22" class="node">
<title>21</title>
<ellipse fill="none" stroke="black" cx="963.92" cy="-234" rx="27" ry="18"/>
<text xml:space="preserve" text-anchor="middle" x="963.92" y="-228.95" font-family="Times New Roman,serif" font-size="14.00">Y</text>
</g>
<!-- 18&#45;&gt;21 -->
<g id="edge21" class="edge">
<title>18&#45;&gt;21</title>
<path fill="none" stroke="black" d="M830.81,-273.81C861.25,-264.64 900.21,-252.9 927.92,-244.55"/>
<polygon fill="black" stroke="black" points="928.66,-247.98 937.23,-241.74 926.64,-241.28 928.66,-247.98"/>
</g>
<!-- 20 -->
<!-- name: &quot;float&quot;, typeName: &quot;&quot;, id: 20, branchId: 0, recurseId: &#45;1, attributes: 512, notes: &quot;&quot; -->
<g id="node21" class="node">
<title>20</title>
<ellipse fill="none" stroke="black" cx="1130.77" cy="-288" rx="27.81" ry="18"/>
<text xml:space="preserve" text-anchor="middle" x="1130.77" y="-282.95" font-family="Times New Roman,serif" font-size="14.00">float</text>
</g>
<!-- 19&#45;&gt;20 -->
<g id="edge20" class="edge">
<title>19&#45;&gt;20</title>
<path fill="none" stroke="black" d="M991.4,-288C1018.44,-288 1060.68,-288 1091.38,-288"/>
<polygon fill="black" stroke="black" points="1091.01,-291.5 1101.01,-288 1091.01,-284.5 1091.01,-291.5"/>
</g>
<!-- 22 -->
<!-- name: &quot;float&quot;, typeName: &quot;&quot;, id: 22, branchId: 0, recurseId: &#45;1, attributes: 512, notes: &quot;&quot; -->
<g id="node23" class="node">
<title>22</title>
<ellipse fill="none" stroke="black" cx="1130.77" cy="-234" rx="27.81" ry="18"/>
<text xml:space="preserve" text-anchor="middle" x="1130.77" y="-228.95" font-family="Times New Roman,serif" font-size="14.00">float</text>
</g>
<!-- 21&#45;&gt;22 -->
<g id="edge22" class="edge">
<title>21&#45;&gt;22</title>
<path fill="none" stroke="black" d="M991.4,-234C1018.44,-234 1060.68,-234 1091.38,-234"/>
<polygon fill="black" stroke="black" points="1091.01,-237.5 1101.01,-234 1091.01,-230.5 1091.01,-237.5"/>
</g>
<!-- 24 -->
<!-- name: &quot;List Size&quot;, typeName: &quot;&quot;, id: 24, branchId: 0, recurseId: &#45;1, attributes: 0, notes: &quot;&quot; -->
<g id="node25" class="node">
<title>24</title>
<ellipse fill="none" stroke="black" cx="584.66" cy="-207" rx="43.67" ry="18"/>
<text xml:space="preserve" text-anchor="middle" x="584.66" y="-201.95" font-family="Times New Roman,serif" font-size="14.00">List Size</text>
</g>
<!-- 23&#45;&gt;24 -->
<g id="edge24" class="edge">
<title>23&#45;&gt;24</title>
<path fill="none" stroke="black" d="M463.82,-207C485.18,-207 508.72,-207 529.25,-207"/>
<polygon fill="black" stroke="black" points="529.12,-210.5 539.12,-207 529.12,-203.5 529.12,-210.5"/>
</g>
<!-- 26 -->
<!-- name: &quot;example element&quot;, typeName: &quot;&quot;, id: 26, branchId: 0, recurseId: &#45;1, attributes: 16, notes: &quot;&quot; -->
<g id="node27" class="node">
<title>26</title>
<ellipse fill="none" stroke="black" stroke-dasharray="1,5" cx="584.66" cy="-126" rx="74.89" ry="18"/>
<text xml:space="preserve" text-anchor="middle" x="584.66" y="-120.95" font-family="Times New Roman,serif" font-size="14.00">example element</text>
</g>
<!-- 23&#45;&gt;26 -->
<g id="edge26" class="edge">
<title>23&#45;&gt;26</title>
<path fill="none" stroke="black" d="M434.46,-191.57C463.55,-178.79 505.14,-160.51 537.02,-146.5"/>
<polygon fill="black" stroke="black" points="538.3,-149.76 546.05,-142.53 535.48,-143.35 538.3,-149.76"/>
</g>
<!-- 25 -->
<!-- name: &quot;unsigned varint&quot;, typeName: &quot;&quot;, id: 25, branchId: 0, recurseId: &#45;1, attributes: 0, notes: &quot;&quot; -->
<g id="node26" class="node">
<title>25</title>
<ellipse fill="none" stroke="black" cx="782.73" cy="-207" rx="68.24" ry="18"/>
<text xml:space="preserve" text-anchor="middle" x="782.73" y="-201.95" font-family="Times New Roman,serif" font-size="14.00">unsigned varint</text>
</g>
<!-- 24&#45;&gt;25 -->
<g id="edge25" class="edge">
<title>24&#45;&gt;25</title>
<path fill="none" stroke="black" d="M628.69,-207C650.39,-207 677.41,-207 702.68,-207"/>
<polygon fill="black" stroke="black" points="702.63,-210.5 712.63,-207 702.63,-203.5 702.63,-210.5"/>
</g>
<!-- 27 -->
<!-- name: &quot;Key frame values&quot;, typeName: &quot;&quot;, id: 27, branchId: 0, recurseId: &#45;1, attributes: 0, notes: &quot;&quot; -->
<g id="node28" class="node">
<title>27</title>
<ellipse fill="none" stroke="black" cx="782.73" cy="-126" rx="76.94" ry="18"/>
<text xml:space="preserve" text-anchor="middle" x="782.73" y="-120.95" font-family="Times New Roman,serif" font-size="14.00">Key frame values</text>
</g>
<!-- 26&#45;&gt;27 -->
<g id="edge27" class="edge">
<title>26&#45;&gt;27</title>
<path fill="none" stroke="black" d="M659.79,-126C671.01,-126 682.68,-126 694.16,-126"/>
<polygon fill="black" stroke="black" points="694.03,-129.5 704.03,-126 694.03,-122.5 694.03,-129.5"/>
</g>
<!-- 34 -->
<!-- name: &quot;Key frame times&quot;, typeName: &quot;&quot;, id: 34, branchId: 0, recurseId: &#45;1, attributes: 0, notes: &quot;&quot; -->
<g id="node35" class="node">
<title>34</title>
<ellipse fill="none" stroke="black" cx="782.73" cy="-45" rx="73.87" ry="18"/>
<text xml:space="preserve" text-anchor="middle" x="782.73" y="-39.95" font-family="Times New Roman,serif" font-size="14.00">Key frame times</text>
</g>
<!-- 26&#45;&gt;34 -->
<g id="edge34" class="edge">
<title>26&#45;&gt;34</title>
<path fill="none" stroke="black" d="M623.47,-110.38C654.69,-97.48 699.24,-79.08 733.12,-65.08"/>
<polygon fill="black" stroke="black" points="734.41,-68.34 742.31,-61.29 731.73,-61.87 734.41,-68.34"/>
</g>
<!-- 28 -->
<!-- name: &quot;X&quot;, typeName: &quot;&quot;, id: 28, branchId: 0, recurseId: &#45;1, attributes: 0, notes: &quot;&quot; -->
<g id="node29" class="node">
<title>28</title>
<ellipse fill="none" stroke="black" cx="963.92" cy="-180" rx="27" ry="18"/>
<text xml:space="preserve" text-anchor="middle" x="963.92" y="-174.95" font-family="Times New Roman,serif" font-size="14.00">X</text>
</g>
<!-- 27&#45;&gt;28 -->
<g id="edge28" class="edge">
<title>27&#45;&gt;28</title>
<path fill="none" stroke="black" d="M831.28,-140.33C861.72,-149.5 900.52,-161.2 928.1,-169.51"/>
<polygon fill="black" stroke="black" points="926.77,-172.76 937.36,-172.3 928.79,-166.06 926.77,-172.76"/>
</g>
<!-- 30 -->
<!-- name: &quot;Y&quot;, typeName: &quot;&quot;, id: 30, branchId: 0, recurseId: &#45;1, attributes: 0, notes: &quot;&quot; -->
<g id="node31" class="node">
<title>30</title>
<ellipse fill="none" stroke="black" cx="963.92" cy="-126" rx="27" ry="18"/>
<text xml:space="preserve" text-anchor="middle" x="963.92" y="-120.95" font-family="Times New Roman,serif" font-size="14.00">Y</text>
</g>
<!-- 27&#45;&gt;30 -->
<g id="edge30" class="edge">
<title>27&#45;&gt;30</title>
<path fill="none" stroke="black" d="M859.98,-126C882.59,-126 906.36,-126 925.36,-126"/>
<polygon fill="black" stroke="black" points="925.29,-129.5 935.29,-126 925.29,-122.5 925.29,-129.5"/>
</g>
<!-- 32 -->
<!-- name: &quot;Z&quot;, typeName: &quot;&quot;, id: 32, branchId: 0, recurseId: &#45;1, attributes: 0, notes: &quot;&quot; -->
<g id="node33" class="node">
<title>32</title>
<ellipse fill="none" stroke="black" cx="963.92" cy="-72" rx="27" ry="18"/>
<text xml:space="preserve" text-anchor="middle" x="963.92" y="-66.95" font-family="Times New Roman,serif" font-size="14.00">Z</text>
</g>
<!-- 27&#45;&gt;32 -->
<g id="edge32" class="edge">
<title>27&#45;&gt;32</title>
<path fill="none" stroke="black" d="M831.28,-111.67C861.72,-102.5 900.52,-90.8 928.1,-82.49"/>
<polygon fill="black" stroke="black" points="928.79,-85.94 937.36,-79.7 926.77,-79.24 928.79,-85.94"/>
</g>
<!-- 29 -->
<!-- name: &quot;float&quot;, typeName: &quot;&quot;, id: 29, branchId: 0, recurseId: &#45;1, attributes: 512, notes: &quot;&quot; -->
<g id="node30" class="node">
<title>29</title>
<ellipse fill="none" stroke="black" cx="1130.77" cy="-180" rx="27.81" ry="18"/>
<text xml:space="preserve" text-anchor="middle" x="1130.77" y="-174.95" font-family="Times New Roman,serif" font-size="14.00">float</text>
</g>
<!-- 28&#45;&gt;29 -->
<g id="edge29" class="edge">
<title>28&#45;&gt;29</title>
<path fill="none" stroke="black" d="M991.4,-180C1018.44,-180 1060.68,-180 1091.38,-180"/>
<polygon fill="black" stroke="black" points="1091.01,-183.5 1101.01,-180 1091.01,-176.5 1091.01,-183.5"/>
</g>
<!-- 31 -->
<!-- name: &quot;float&quot;, typeName: &quot;&quot;, id: 31, branchId: 0, recurseId: &#45;1, attributes: 512, notes: &quot;&quot; -->
<g id="node32" class="node">
<title>31</title>
<ellipse fill="none" stroke="black" cx="1130.77" cy="-126" rx="27.81" ry="18"/>
<text xml:space="preserve" text-anchor="middle" x="1130.77" y="-120.95" font-family="Times New Roman,serif" font-size="14.00">float</text>
</g>
<!-- 30&#45;&gt;31 -->
<g id="edge31" class="edge">
<title>30&#45;&gt;31</title>
<path fill="none" stroke="black" d="M991.4,-126C1018.44,-126 1060.68,-126 1091.38,-126"/>
<polygon fill="black" stroke="black" points="1091.01,-129.5 1101.01,-126 1091.01,-122.5 1091.01,-129.5"/>
</g>
<!-- 33 -->
<!-- name: &quot;float&quot;, typeName: &quot;&quot;, id: 33, branchId: 0, recurseId: &#45;1, attributes: 512, notes: &quot;&quot; -->
<g id="node34" class="node">
<title>33</title>
<ellipse fill="none" stroke="black" cx="1130.77" cy="-72" rx="27.81" ry="18"/>
<text xml:space="preserve" text-anchor="middle" x="1130.77" y="-66.95" font-family="Times New Roman,serif" font-size="14.00">float</text>
</g>
<!-- 32&#45;&gt;33 -->
<g id="edge33" class="edge">
<title>32&#45;&gt;33</title>
<path fill="none" stroke="black" d="M991.4,-72C1018.44,-72 1060.68,-72 1091.38,-72"/>
<polygon fill="black" stroke="black" points="1091.01,-75.5 1101.01,-72 1091.01,-68.5 1091.01,-75.5"/>
</g>
<!-- 35 -->
<!-- name: &quot;float&quot;, typeName: &quot;&quot;, id: 35, branchId: 0, recurseId: &#45;1, attributes: 512, notes: &quot;&quot; -->
<g id="node36" class="node">
<title>35</title>
<ellipse fill="none" stroke="black" cx="1130.77" cy="-18" rx="27.81" ry="18"/>
<text xml:space="preserve" text-anchor="middle" x="1130.77" y="-12.95" font-family="Times New Roman,serif" font-size="14.00">float</text>
</g>
<!-- 34&#45;&gt;35 -->
<g id="edge35" class="edge">
<title>34&#45;&gt;35</title>
<path fill="none" stroke="black" d="M853.76,-39.54C925.48,-33.94 1034.32,-25.45 1091.54,-20.98"/>
<polygon fill="black" stroke="black" points="1091.73,-24.48 1101.43,-20.21 1091.18,-17.5 1091.73,-24.48"/>
</g>
</g>
</svg>
