<?xml version="1.0" encoding="UTF-8" standalone="no"?>
<!DOCTYPE svg PUBLIC "-//W3C//DTD SVG 1.1//EN"
 "http://www.w3.org/Graphics/SVG/1.1/DTD/svg11.dtd">
<!-- Generated by graphviz version 13.1.0 (20250701.0955)
 -->
<!-- Title: ChangeDimensionPacket Pages: 1 -->
<svg width="659pt" height="314pt"
 viewBox="0.00 0.00 659.00 314.00" xmlns="http://www.w3.org/2000/svg" xmlns:xlink="http://www.w3.org/1999/xlink">
<g id="graph0" class="graph" transform="scale(1 1) rotate(0) translate(4 310)">
<title>ChangeDimensionPacket</title>
<polygon fill="white" stroke="none" points="-4,4 -4,-310 654.86,-310 654.86,4 -4,4"/>
<!-- 0 -->
<!-- name: &quot;ChangeDimensionPacket&quot;, typeName: &quot;&quot;, id: 0, branchId: 0, recurseId: &#45;1, attributes: 0, notes: &quot;The server sends this packet from the level to kick off dimension changing process.&quot; -->
<g id="node1" class="node">
<title>0</title>
<ellipse fill="none" stroke="black" cx="104.58" cy="-112" rx="104.58" ry="18"/>
<text xml:space="preserve" text-anchor="middle" x="104.58" y="-106.95" font-family="Times New Roman,serif" font-size="14.00">ChangeDimensionPacket</text>
</g>
<!-- 1 -->
<!-- name: &quot;Dimension ID&quot;, typeName: &quot;&quot;, id: 1, branchId: 0, recurseId: &#45;1, attributes: 0, notes: &quot;Currently supported: (0 &#45;&gt; Overworld, 1 &#45;&gt; Nether, 2 &#45;&gt; The End, 3 &#45;&gt; Undefined)&quot; -->
<g id="node2" class="node">
<title>1</title>
<ellipse fill="none" stroke="black" cx="324.66" cy="-260" rx="64.15" ry="18"/>
<text xml:space="preserve" text-anchor="middle" x="324.66" y="-254.95" font-family="Times New Roman,serif" font-size="14.00">Dimension ID</text>
</g>
<!-- 0&#45;&gt;1 -->
<g id="edge1" class="edge">
<title>0&#45;&gt;1</title>
<path fill="none" stroke="black" d="M131.89,-129.85C171.38,-156.66 246.01,-207.3 289.61,-236.89"/>
<polygon fill="black" stroke="black" points="287.45,-239.66 297.69,-242.37 291.38,-233.86 287.45,-239.66"/>
</g>
<!-- 4 -->
<!-- name: &quot;Position&quot;, typeName: &quot;&quot;, id: 4, branchId: 0, recurseId: &#45;1, attributes: 0, notes: &quot;&quot; -->
<g id="node5" class="node">
<title>4</title>
<ellipse fill="none" stroke="black" cx="324.66" cy="-166" rx="41.12" ry="18"/>
<text xml:space="preserve" text-anchor="middle" x="324.66" y="-160.95" font-family="Times New Roman,serif" font-size="14.00">Position</text>
</g>
<!-- 0&#45;&gt;4 -->
<g id="edge4" class="edge">
<title>0&#45;&gt;4</title>
<path fill="none" stroke="black" d="M166.04,-126.97C201.22,-135.68 244.88,-146.49 277.32,-154.53"/>
<polygon fill="black" stroke="black" points="276.28,-157.87 286.83,-156.88 277.96,-151.08 276.28,-157.87"/>
</g>
<!-- 11 -->
<!-- name: &quot;Respawn&quot;, typeName: &quot;&quot;, id: 11, branchId: 0, recurseId: &#45;1, attributes: 0, notes: &quot;&quot; -->
<g id="node12" class="node">
<title>11</title>
<ellipse fill="none" stroke="black" cx="324.66" cy="-85" rx="44.7" ry="18"/>
<text xml:space="preserve" text-anchor="middle" x="324.66" y="-79.95" font-family="Times New Roman,serif" font-size="14.00">Respawn</text>
</g>
<!-- 0&#45;&gt;11 -->
<g id="edge11" class="edge">
<title>0&#45;&gt;11</title>
<path fill="none" stroke="black" d="M190.83,-101.45C217.52,-98.14 246.22,-94.59 270.08,-91.63"/>
<polygon fill="black" stroke="black" points="270.38,-95.12 279.87,-90.42 269.52,-88.18 270.38,-95.12"/>
</g>
<!-- 13 -->
<!-- name: &quot;Loading Screen Id&quot;, typeName: &quot;&quot;, id: 13, branchId: 0, recurseId: &#45;1, attributes: 0, notes: &quot;Leave empty if there is no loading screen expected on the client. This id needs to be unique and not conflict with any other active loading screens. &#160;This is implemented with an unsigned integer incrementing forever, and that is expected to not have collisions when it wraps around back to 0 if that could be a possibility.&quot; -->
<g id="node14" class="node">
<title>13</title>
<ellipse fill="none" stroke="black" cx="324.66" cy="-31" rx="79.5" ry="18"/>
<text xml:space="preserve" text-anchor="middle" x="324.66" y="-25.95" font-family="Times New Roman,serif" font-size="14.00">Loading Screen Id</text>
</g>
<!-- 0&#45;&gt;13 -->
<g id="edge13" class="edge">
<title>0&#45;&gt;13</title>
<path fill="none" stroke="black" d="M147.88,-95.16C175.47,-84.29 212.33,-69.99 245.16,-58 252.52,-55.31 260.3,-52.55 267.98,-49.86"/>
<polygon fill="black" stroke="black" points="268.99,-53.21 277.29,-46.63 266.7,-46.6 268.99,-53.21"/>
</g>
<!-- 2 -->
<!-- name: &quot;value&quot;, typeName: &quot;&quot;, id: 2, branchId: 0, recurseId: &#45;1, attributes: 0, notes: &quot;&quot; -->
<g id="node3" class="node">
<title>2</title>
<ellipse fill="none" stroke="black" cx="471.04" cy="-288" rx="30.88" ry="18"/>
<text xml:space="preserve" text-anchor="middle" x="471.04" y="-282.95" font-family="Times New Roman,serif" font-size="14.00">value</text>
</g>
<!-- 1&#45;&gt;2 -->
<g id="edge2" class="edge">
<title>1&#45;&gt;2</title>
<path fill="none" stroke="black" d="M378.19,-270.19C395.32,-273.51 414.05,-277.14 430.1,-280.25"/>
<polygon fill="black" stroke="black" points="429.28,-283.66 439.76,-282.13 430.61,-276.79 429.28,-283.66"/>
</g>
<!-- 3 -->
<!-- name: &quot;varint&quot;, typeName: &quot;&quot;, id: 3, branchId: 0, recurseId: &#45;1, attributes: 512, notes: &quot;&quot; -->
<g id="node4" class="node">
<title>3</title>
<ellipse fill="none" stroke="black" cx="594.39" cy="-288" rx="32.41" ry="18"/>
<text xml:space="preserve" text-anchor="middle" x="594.39" y="-282.95" font-family="Times New Roman,serif" font-size="14.00">varint</text>
</g>
<!-- 2&#45;&gt;3 -->
<g id="edge3" class="edge">
<title>2&#45;&gt;3</title>
<path fill="none" stroke="black" d="M502.35,-288C516.92,-288 534.65,-288 550.57,-288"/>
<polygon fill="black" stroke="black" points="550.26,-291.5 560.26,-288 550.26,-284.5 550.26,-291.5"/>
</g>
<!-- 5 -->
<!-- name: &quot;X&quot;, typeName: &quot;&quot;, id: 5, branchId: 0, recurseId: &#45;1, attributes: 0, notes: &quot;&quot; -->
<g id="node6" class="node">
<title>5</title>
<ellipse fill="none" stroke="black" cx="471.04" cy="-234" rx="27" ry="18"/>
<text xml:space="preserve" text-anchor="middle" x="471.04" y="-228.95" font-family="Times New Roman,serif" font-size="14.00">X</text>
</g>
<!-- 4&#45;&gt;5 -->
<g id="edge5" class="edge">
<title>4&#45;&gt;5</title>
<path fill="none" stroke="black" d="M353.5,-179.11C377.73,-190.53 412.86,-207.07 438.2,-219"/>
<polygon fill="black" stroke="black" points="436.5,-222.07 447.04,-223.17 439.48,-215.74 436.5,-222.07"/>
</g>
<!-- 7 -->
<!-- name: &quot;Y&quot;, typeName: &quot;&quot;, id: 7, branchId: 0, recurseId: &#45;1, attributes: 0, notes: &quot;&quot; -->
<g id="node8" class="node">
<title>7</title>
<ellipse fill="none" stroke="black" cx="471.04" cy="-180" rx="27" ry="18"/>
<text xml:space="preserve" text-anchor="middle" x="471.04" y="-174.95" font-family="Times New Roman,serif" font-size="14.00">Y</text>
</g>
<!-- 4&#45;&gt;7 -->
<g id="edge7" class="edge">
<title>4&#45;&gt;7</title>
<path fill="none" stroke="black" d="M365.11,-169.83C386.15,-171.87 411.89,-174.36 432.61,-176.37"/>
<polygon fill="black" stroke="black" points="432.05,-179.83 442.35,-177.31 432.73,-172.87 432.05,-179.83"/>
</g>
<!-- 9 -->
<!-- name: &quot;Z&quot;, typeName: &quot;&quot;, id: 9, branchId: 0, recurseId: &#45;1, attributes: 0, notes: &quot;&quot; -->
<g id="node10" class="node">
<title>9</title>
<ellipse fill="none" stroke="black" cx="471.04" cy="-126" rx="27" ry="18"/>
<text xml:space="preserve" text-anchor="middle" x="471.04" y="-120.95" font-family="Times New Roman,serif" font-size="14.00">Z</text>
</g>
<!-- 4&#45;&gt;9 -->
<g id="edge9" class="edge">
<title>4&#45;&gt;9</title>
<path fill="none" stroke="black" d="M360.24,-156.42C382.79,-150.17 412.14,-142.04 434.82,-135.76"/>
<polygon fill="black" stroke="black" points="435.52,-139.2 444.22,-133.15 433.65,-132.45 435.52,-139.2"/>
</g>
<!-- 6 -->
<!-- name: &quot;float&quot;, typeName: &quot;&quot;, id: 6, branchId: 0, recurseId: &#45;1, attributes: 512, notes: &quot;&quot; -->
<g id="node7" class="node">
<title>6</title>
<ellipse fill="none" stroke="black" cx="594.39" cy="-234" rx="27.81" ry="18"/>
<text xml:space="preserve" text-anchor="middle" x="594.39" y="-228.95" font-family="Times New Roman,serif" font-size="14.00">float</text>
</g>
<!-- 5&#45;&gt;6 -->
<g id="edge6" class="edge">
<title>5&#45;&gt;6</title>
<path fill="none" stroke="black" d="M498.37,-234C514.92,-234 536.54,-234 554.99,-234"/>
<polygon fill="black" stroke="black" points="554.76,-237.5 564.76,-234 554.76,-230.5 554.76,-237.5"/>
</g>
<!-- 8 -->
<!-- name: &quot;float&quot;, typeName: &quot;&quot;, id: 8, branchId: 0, recurseId: &#45;1, attributes: 512, notes: &quot;&quot; -->
<g id="node9" class="node">
<title>8</title>
<ellipse fill="none" stroke="black" cx="594.39" cy="-180" rx="27.81" ry="18"/>
<text xml:space="preserve" text-anchor="middle" x="594.39" y="-174.95" font-family="Times New Roman,serif" font-size="14.00">float</text>
</g>
<!-- 7&#45;&gt;8 -->
<g id="edge8" class="edge">
<title>7&#45;&gt;8</title>
<path fill="none" stroke="black" d="M498.37,-180C514.92,-180 536.54,-180 554.99,-180"/>
<polygon fill="black" stroke="black" points="554.76,-183.5 564.76,-180 554.76,-176.5 554.76,-183.5"/>
</g>
<!-- 10 -->
<!-- name: &quot;float&quot;, typeName: &quot;&quot;, id: 10, branchId: 0, recurseId: &#45;1, attributes: 512, notes: &quot;&quot; -->
<g id="node11" class="node">
<title>10</title>
<ellipse fill="none" stroke="black" cx="594.39" cy="-126" rx="27.81" ry="18"/>
<text xml:space="preserve" text-anchor="middle" x="594.39" y="-120.95" font-family="Times New Roman,serif" font-size="14.00">float</text>
</g>
<!-- 9&#45;&gt;10 -->
<g id="edge10" class="edge">
<title>9&#45;&gt;10</title>
<path fill="none" stroke="black" d="M498.37,-126C514.92,-126 536.54,-126 554.99,-126"/>
<polygon fill="black" stroke="black" points="554.76,-129.5 564.76,-126 554.76,-122.5 554.76,-129.5"/>
</g>
<!-- 12 -->
<!-- name: &quot;bool&quot;, typeName: &quot;&quot;, id: 12, branchId: 0, recurseId: &#45;1, attributes: 512, notes: &quot;&quot; -->
<g id="node13" class="node">
<title>12</title>
<ellipse fill="none" stroke="black" cx="594.39" cy="-72" rx="27.3" ry="18"/>
<text xml:space="preserve" text-anchor="middle" x="594.39" y="-66.95" font-family="Times New Roman,serif" font-size="14.00">bool</text>
</g>
<!-- 11&#45;&gt;12 -->
<g id="edge12" class="edge">
<title>11&#45;&gt;12</title>
<path fill="none" stroke="black" d="M369.27,-82.88C421.01,-80.37 506.43,-76.22 555.52,-73.84"/>
<polygon fill="black" stroke="black" points="555.55,-77.34 565.37,-73.36 555.21,-70.35 555.55,-77.34"/>
</g>
<!-- 14 -->
<!-- name: &quot;unsigned int&quot;, typeName: &quot;&quot;, id: 14, branchId: 0, recurseId: &#45;1, attributes: 512, notes: &quot;Leave empty if there is no loading screen expected on the client. This id needs to be unique and not conflict with any other active loading screens. &#160;This is implemented with an unsigned integer incrementing forever, and that is expected to not have collisions when it wraps around back to 0 if that could be a possibility.&quot; -->
<g id="node15" class="node">
<title>14</title>
<ellipse fill="none" stroke="black" cx="594.39" cy="-18" rx="56.47" ry="18"/>
<text xml:space="preserve" text-anchor="middle" x="594.39" y="-12.95" font-family="Times New Roman,serif" font-size="14.00">unsigned int</text>
</g>
<!-- 13&#45;&gt;14 -->
<g id="edge14" class="edge">
<title>13&#45;&gt;14</title>
<path fill="none" stroke="black" d="M402.74,-27.26C441.94,-25.35 489.11,-23.06 526.72,-21.24"/>
<polygon fill="black" stroke="black" points="526.74,-24.74 536.56,-20.76 526.4,-17.75 526.74,-24.74"/>
</g>
</g>
</svg>
