<?xml version="1.0" encoding="UTF-8" standalone="no"?>
<!DOCTYPE svg PUBLIC "-//W3C//DTD SVG 1.1//EN"
 "http://www.w3.org/Graphics/SVG/1.1/DTD/svg11.dtd">
<!-- Generated by graphviz version 13.1.0 (20250701.0955)
 -->
<!-- Title: GameTestRequestPacket Pages: 1 -->
<svg width="747pt" height="476pt"
 viewBox="0.00 0.00 747.00 476.00" xmlns="http://www.w3.org/2000/svg" xmlns:xlink="http://www.w3.org/1999/xlink">
<g id="graph0" class="graph" transform="scale(1 1) rotate(0) translate(4 472)">
<title>GameTestRequestPacket</title>
<polygon fill="white" stroke="none" points="-4,4 -4,-472 742.89,-472 742.89,4 -4,4"/>
<!-- 0 -->
<!-- name: &quot;GameTestRequestPacket&quot;, typeName: &quot;&quot;, id: 0, branchId: 0, recurseId: &#45;1, attributes: 0, notes: &quot;Internal Text Packet&quot; -->
<g id="node1" class="node">
<title>0</title>
<ellipse fill="none" stroke="black" cx="103.04" cy="-288" rx="103.04" ry="18"/>
<text xml:space="preserve" text-anchor="middle" x="103.04" y="-282.95" font-family="Times New Roman,serif" font-size="14.00">GameTestRequestPacket</text>
</g>
<!-- 1 -->
<!-- name: &quot;MaxTestsPerBatch&quot;, typeName: &quot;&quot;, id: 1, branchId: 0, recurseId: &#45;1, attributes: 0, notes: &quot;&quot; -->
<g id="node2" class="node">
<title>1</title>
<ellipse fill="none" stroke="black" cx="489.46" cy="-448" rx="81.04" ry="18"/>
<text xml:space="preserve" text-anchor="middle" x="489.46" y="-442.95" font-family="Times New Roman,serif" font-size="14.00">MaxTestsPerBatch</text>
</g>
<!-- 0&#45;&gt;1 -->
<g id="edge1" class="edge">
<title>0&#45;&gt;1</title>
<path fill="none" stroke="black" d="M116.35,-306.34C137.82,-336.64 185.31,-396.43 242.09,-423 290.94,-445.86 351.07,-452.32 399.7,-452.96"/>
<polygon fill="black" stroke="black" points="399.63,-456.46 409.65,-453 399.66,-449.46 399.63,-456.46"/>
</g>
<!-- 3 -->
<!-- name: &quot;RepeatCount&quot;, typeName: &quot;&quot;, id: 3, branchId: 0, recurseId: &#45;1, attributes: 0, notes: &quot;&quot; -->
<g id="node4" class="node">
<title>3</title>
<ellipse fill="none" stroke="black" cx="307.26" cy="-396" rx="59.03" ry="18"/>
<text xml:space="preserve" text-anchor="middle" x="307.26" y="-390.95" font-family="Times New Roman,serif" font-size="14.00">RepeatCount</text>
</g>
<!-- 0&#45;&gt;3 -->
<g id="edge3" class="edge">
<title>0&#45;&gt;3</title>
<path fill="none" stroke="black" d="M131.73,-305.71C159.18,-322.92 202.71,-349.27 242.09,-369 247.63,-371.77 253.52,-374.52 259.4,-377.14"/>
<polygon fill="black" stroke="black" points="257.95,-380.32 268.51,-381.09 260.73,-373.9 257.95,-380.32"/>
</g>
<!-- 5 -->
<!-- name: &quot;Rotation&quot;, typeName: &quot;&quot;, id: 5, branchId: 0, recurseId: &#45;1, attributes: 0, notes: &quot;&quot; -->
<g id="node6" class="node">
<title>5</title>
<ellipse fill="none" stroke="black" cx="307.26" cy="-342" rx="42.65" ry="18"/>
<text xml:space="preserve" text-anchor="middle" x="307.26" y="-336.95" font-family="Times New Roman,serif" font-size="14.00">Rotation</text>
</g>
<!-- 0&#45;&gt;5 -->
<g id="edge5" class="edge">
<title>0&#45;&gt;5</title>
<path fill="none" stroke="black" d="M161.18,-303.26C192.35,-311.58 230.45,-321.76 259.78,-329.59"/>
<polygon fill="black" stroke="black" points="258.53,-332.88 269.1,-332.08 260.34,-326.11 258.53,-332.88"/>
</g>
<!-- 7 -->
<!-- name: &quot;StopOnFailure&quot;, typeName: &quot;&quot;, id: 7, branchId: 0, recurseId: &#45;1, attributes: 0, notes: &quot;&quot; -->
<g id="node8" class="node">
<title>7</title>
<ellipse fill="none" stroke="black" cx="307.26" cy="-288" rx="65.17" ry="18"/>
<text xml:space="preserve" text-anchor="middle" x="307.26" y="-282.95" font-family="Times New Roman,serif" font-size="14.00">StopOnFailure</text>
</g>
<!-- 0&#45;&gt;7 -->
<g id="edge7" class="edge">
<title>0&#45;&gt;7</title>
<path fill="none" stroke="black" d="M206.34,-288C214.43,-288 222.52,-288 230.38,-288"/>
<polygon fill="black" stroke="black" points="230.22,-291.5 240.22,-288 230.22,-284.5 230.22,-291.5"/>
</g>
<!-- 9 -->
<!-- name: &quot;TestPos&quot;, typeName: &quot;&quot;, id: 9, branchId: 0, recurseId: &#45;1, attributes: 0, notes: &quot;&quot; -->
<g id="node10" class="node">
<title>9</title>
<ellipse fill="none" stroke="black" cx="307.26" cy="-207" rx="39.58" ry="18"/>
<text xml:space="preserve" text-anchor="middle" x="307.26" y="-201.95" font-family="Times New Roman,serif" font-size="14.00">TestPos</text>
</g>
<!-- 0&#45;&gt;9 -->
<g id="edge9" class="edge">
<title>0&#45;&gt;9</title>
<path fill="none" stroke="black" d="M145.94,-271.22C181.38,-257.02 231.79,-236.83 266.58,-222.89"/>
<polygon fill="black" stroke="black" points="267.46,-226.31 275.44,-219.34 264.86,-219.81 267.46,-226.31"/>
</g>
<!-- 16 -->
<!-- name: &quot;TestsPerRow&quot;, typeName: &quot;&quot;, id: 16, branchId: 0, recurseId: &#45;1, attributes: 0, notes: &quot;&quot; -->
<g id="node17" class="node">
<title>16</title>
<ellipse fill="none" stroke="black" cx="489.46" cy="-72" rx="59.54" ry="18"/>
<text xml:space="preserve" text-anchor="middle" x="489.46" y="-66.95" font-family="Times New Roman,serif" font-size="14.00">TestsPerRow</text>
</g>
<!-- 0&#45;&gt;16 -->
<g id="edge16" class="edge">
<title>0&#45;&gt;16</title>
<path fill="none" stroke="black" d="M124.09,-270.1C150.1,-247.41 197.45,-207.9 242.09,-180 311.82,-136.42 332.35,-130.21 408.43,-99 417.3,-95.36 426.87,-91.82 436.19,-88.56"/>
<polygon fill="black" stroke="black" points="437.2,-91.91 445.53,-85.37 434.94,-85.29 437.2,-91.91"/>
</g>
<!-- 18 -->
<!-- name: &quot;TestName&quot;, typeName: &quot;&quot;, id: 18, branchId: 0, recurseId: &#45;1, attributes: 0, notes: &quot;&quot; -->
<g id="node19" class="node">
<title>18</title>
<ellipse fill="none" stroke="black" cx="307.26" cy="-36" rx="48.79" ry="18"/>
<text xml:space="preserve" text-anchor="middle" x="307.26" y="-30.95" font-family="Times New Roman,serif" font-size="14.00">TestName</text>
</g>
<!-- 0&#45;&gt;18 -->
<g id="edge18" class="edge">
<title>0&#45;&gt;18</title>
<path fill="none" stroke="black" d="M118.59,-269.88C153.88,-225.89 244.19,-113.35 285.3,-62.11"/>
<polygon fill="black" stroke="black" points="287.91,-64.46 291.44,-54.47 282.45,-60.08 287.91,-64.46"/>
</g>
<!-- 2 -->
<!-- name: &quot;varint&quot;, typeName: &quot;&quot;, id: 2, branchId: 0, recurseId: &#45;1, attributes: 512, notes: &quot;&quot; -->
<g id="node3" class="node">
<title>2</title>
<ellipse fill="none" stroke="black" cx="672.69" cy="-450" rx="32.41" ry="18"/>
<text xml:space="preserve" text-anchor="middle" x="672.69" y="-444.95" font-family="Times New Roman,serif" font-size="14.00">varint</text>
</g>
<!-- 1&#45;&gt;2 -->
<g id="edge2" class="edge">
<title>1&#45;&gt;2</title>
<path fill="none" stroke="black" d="M570.75,-448.89C590.59,-449.1 611.11,-449.33 628.42,-449.52"/>
<polygon fill="black" stroke="black" points="628.3,-453.02 638.33,-449.63 628.37,-446.02 628.3,-453.02"/>
</g>
<!-- 4 -->
<!-- name: &quot;varint&quot;, typeName: &quot;&quot;, id: 4, branchId: 0, recurseId: &#45;1, attributes: 512, notes: &quot;&quot; -->
<g id="node5" class="node">
<title>4</title>
<ellipse fill="none" stroke="black" cx="672.69" cy="-396" rx="32.41" ry="18"/>
<text xml:space="preserve" text-anchor="middle" x="672.69" y="-390.95" font-family="Times New Roman,serif" font-size="14.00">varint</text>
</g>
<!-- 3&#45;&gt;4 -->
<g id="edge4" class="edge">
<title>3&#45;&gt;4</title>
<path fill="none" stroke="black" d="M366.65,-396C439.75,-396 563.27,-396 628.45,-396"/>
<polygon fill="black" stroke="black" points="628.4,-399.5 638.4,-396 628.4,-392.5 628.4,-399.5"/>
</g>
<!-- 6 -->
<!-- name: &quot;enum Rotation&quot;, typeName: &quot;&quot;, id: 6, branchId: 0, recurseId: &#45;1, attributes: 512, notes: &quot;&quot; -->
<g id="node7" class="node">
<title>6</title>
<ellipse fill="none" stroke="black" cx="672.69" cy="-342" rx="66.19" ry="18"/>
<text xml:space="preserve" text-anchor="middle" x="672.69" y="-336.95" font-family="Times New Roman,serif" font-size="14.00">enum Rotation</text>
</g>
<!-- 5&#45;&gt;6 -->
<g id="edge6" class="edge">
<title>5&#45;&gt;6</title>
<path fill="none" stroke="black" d="M350.3,-342C410.02,-342 520.41,-342 594.95,-342"/>
<polygon fill="black" stroke="black" points="594.62,-345.5 604.62,-342 594.62,-338.5 594.62,-345.5"/>
</g>
<!-- 8 -->
<!-- name: &quot;bool&quot;, typeName: &quot;&quot;, id: 8, branchId: 0, recurseId: &#45;1, attributes: 512, notes: &quot;&quot; -->
<g id="node9" class="node">
<title>8</title>
<ellipse fill="none" stroke="black" cx="672.69" cy="-288" rx="27.3" ry="18"/>
<text xml:space="preserve" text-anchor="middle" x="672.69" y="-282.95" font-family="Times New Roman,serif" font-size="14.00">bool</text>
</g>
<!-- 7&#45;&gt;8 -->
<g id="edge8" class="edge">
<title>7&#45;&gt;8</title>
<path fill="none" stroke="black" d="M372.81,-288C448.7,-288 572.1,-288 633.91,-288"/>
<polygon fill="black" stroke="black" points="633.55,-291.5 643.55,-288 633.55,-284.5 633.55,-291.5"/>
</g>
<!-- 10 -->
<!-- name: &quot;X&quot;, typeName: &quot;&quot;, id: 10, branchId: 0, recurseId: &#45;1, attributes: 0, notes: &quot;&quot; -->
<g id="node11" class="node">
<title>10</title>
<ellipse fill="none" stroke="black" cx="489.46" cy="-234" rx="27" ry="18"/>
<text xml:space="preserve" text-anchor="middle" x="489.46" y="-228.95" font-family="Times New Roman,serif" font-size="14.00">X</text>
</g>
<!-- 9&#45;&gt;10 -->
<g id="edge10" class="edge">
<title>9&#45;&gt;10</title>
<path fill="none" stroke="black" d="M345.16,-212.53C376.21,-217.18 420.38,-223.8 451.45,-228.45"/>
<polygon fill="black" stroke="black" points="450.76,-231.89 461.17,-229.91 451.8,-224.97 450.76,-231.89"/>
</g>
<!-- 12 -->
<!-- name: &quot;Y&quot;, typeName: &quot;&quot;, id: 12, branchId: 0, recurseId: &#45;1, attributes: 0, notes: &quot;&quot; -->
<g id="node13" class="node">
<title>12</title>
<ellipse fill="none" stroke="black" cx="489.46" cy="-180" rx="27" ry="18"/>
<text xml:space="preserve" text-anchor="middle" x="489.46" y="-174.95" font-family="Times New Roman,serif" font-size="14.00">Y</text>
</g>
<!-- 9&#45;&gt;12 -->
<g id="edge12" class="edge">
<title>9&#45;&gt;12</title>
<path fill="none" stroke="black" d="M345.16,-201.47C376.21,-196.82 420.38,-190.2 451.45,-185.55"/>
<polygon fill="black" stroke="black" points="451.8,-189.03 461.17,-184.09 450.76,-182.11 451.8,-189.03"/>
</g>
<!-- 14 -->
<!-- name: &quot;Z&quot;, typeName: &quot;&quot;, id: 14, branchId: 0, recurseId: &#45;1, attributes: 0, notes: &quot;&quot; -->
<g id="node15" class="node">
<title>14</title>
<ellipse fill="none" stroke="black" cx="489.46" cy="-126" rx="27" ry="18"/>
<text xml:space="preserve" text-anchor="middle" x="489.46" y="-120.95" font-family="Times New Roman,serif" font-size="14.00">Z</text>
</g>
<!-- 9&#45;&gt;14 -->
<g id="edge14" class="edge">
<title>9&#45;&gt;14</title>
<path fill="none" stroke="black" d="M331.98,-192.73C351.93,-181.1 381.43,-164.73 408.43,-153 422.86,-146.73 439.26,-140.97 453.44,-136.4"/>
<polygon fill="black" stroke="black" points="454.32,-139.79 462.81,-133.45 452.22,-133.11 454.32,-139.79"/>
</g>
<!-- 11 -->
<!-- name: &quot;varint&quot;, typeName: &quot;&quot;, id: 11, branchId: 0, recurseId: &#45;1, attributes: 512, notes: &quot;&quot; -->
<g id="node12" class="node">
<title>11</title>
<ellipse fill="none" stroke="black" cx="672.69" cy="-234" rx="32.41" ry="18"/>
<text xml:space="preserve" text-anchor="middle" x="672.69" y="-228.95" font-family="Times New Roman,serif" font-size="14.00">varint</text>
</g>
<!-- 10&#45;&gt;11 -->
<g id="edge11" class="edge">
<title>10&#45;&gt;11</title>
<path fill="none" stroke="black" d="M516.82,-234C546.1,-234 593.83,-234 628.57,-234"/>
<polygon fill="black" stroke="black" points="628.3,-237.5 638.3,-234 628.3,-230.5 628.3,-237.5"/>
</g>
<!-- 13 -->
<!-- name: &quot;varint&quot;, typeName: &quot;&quot;, id: 13, branchId: 0, recurseId: &#45;1, attributes: 512, notes: &quot;&quot; -->
<g id="node14" class="node">
<title>13</title>
<ellipse fill="none" stroke="black" cx="672.69" cy="-180" rx="32.41" ry="18"/>
<text xml:space="preserve" text-anchor="middle" x="672.69" y="-174.95" font-family="Times New Roman,serif" font-size="14.00">varint</text>
</g>
<!-- 12&#45;&gt;13 -->
<g id="edge13" class="edge">
<title>12&#45;&gt;13</title>
<path fill="none" stroke="black" d="M516.82,-180C546.1,-180 593.83,-180 628.57,-180"/>
<polygon fill="black" stroke="black" points="628.3,-183.5 638.3,-180 628.3,-176.5 628.3,-183.5"/>
</g>
<!-- 15 -->
<!-- name: &quot;varint&quot;, typeName: &quot;&quot;, id: 15, branchId: 0, recurseId: &#45;1, attributes: 512, notes: &quot;&quot; -->
<g id="node16" class="node">
<title>15</title>
<ellipse fill="none" stroke="black" cx="672.69" cy="-126" rx="32.41" ry="18"/>
<text xml:space="preserve" text-anchor="middle" x="672.69" y="-120.95" font-family="Times New Roman,serif" font-size="14.00">varint</text>
</g>
<!-- 14&#45;&gt;15 -->
<g id="edge15" class="edge">
<title>14&#45;&gt;15</title>
<path fill="none" stroke="black" d="M516.82,-126C546.1,-126 593.83,-126 628.57,-126"/>
<polygon fill="black" stroke="black" points="628.3,-129.5 638.3,-126 628.3,-122.5 628.3,-129.5"/>
</g>
<!-- 17 -->
<!-- name: &quot;varint&quot;, typeName: &quot;&quot;, id: 17, branchId: 0, recurseId: &#45;1, attributes: 512, notes: &quot;&quot; -->
<g id="node18" class="node">
<title>17</title>
<ellipse fill="none" stroke="black" cx="672.69" cy="-72" rx="32.41" ry="18"/>
<text xml:space="preserve" text-anchor="middle" x="672.69" y="-66.95" font-family="Times New Roman,serif" font-size="14.00">varint</text>
</g>
<!-- 16&#45;&gt;17 -->
<g id="edge17" class="edge">
<title>16&#45;&gt;17</title>
<path fill="none" stroke="black" d="M549.31,-72C575.03,-72 604.68,-72 628.35,-72"/>
<polygon fill="black" stroke="black" points="628.27,-75.5 638.27,-72 628.27,-68.5 628.27,-75.5"/>
</g>
<!-- 19 -->
<!-- name: &quot;string&quot;, typeName: &quot;&quot;, id: 19, branchId: 0, recurseId: &#45;1, attributes: 512, notes: &quot;&quot; -->
<g id="node20" class="node">
<title>19</title>
<ellipse fill="none" stroke="black" cx="672.69" cy="-18" rx="31.9" ry="18"/>
<text xml:space="preserve" text-anchor="middle" x="672.69" y="-12.95" font-family="Times New Roman,serif" font-size="14.00">string</text>
</g>
<!-- 18&#45;&gt;19 -->
<g id="edge19" class="edge">
<title>18&#45;&gt;19</title>
<path fill="none" stroke="black" d="M355.77,-33.65C427.25,-30.11 561.33,-23.47 629.53,-20.09"/>
<polygon fill="black" stroke="black" points="629.36,-23.6 639.17,-19.61 629.01,-16.61 629.36,-23.6"/>
</g>
</g>
</svg>
