<?xml version="1.0" encoding="UTF-8" standalone="no"?>
<!DOCTYPE svg PUBLIC "-//W3C//DTD SVG 1.1//EN"
 "http://www.w3.org/Graphics/SVG/1.1/DTD/svg11.dtd">
<!-- Generated by graphviz version 14.0.2 (20251019.1705)
 -->
<!-- Title: MessageAndParams Pages: 1 -->
<svg width="758pt" height="368pt"
 viewBox="0.00 0.00 758.00 368.00" xmlns="http://www.w3.org/2000/svg" xmlns:xlink="http://www.w3.org/1999/xlink">
<g id="graph0" class="graph" transform="scale(1 1) rotate(0) translate(4 364)">
<title>MessageAndParams</title>
<polygon fill="white" stroke="none" points="-4,4 -4,-364 754.15,-364 754.15,4 -4,4"/>
<!-- 0 -->
<!-- name: &quot;MessageAndParams&quot;, typeName: &quot;&quot;, id: 0, branchId: 0, recurseId: &#45;1, attributes: 0, notes: &quot;&quot; -->
<g id="node1" class="node">
<title>0</title>
<ellipse fill="none" stroke="black" cx="87.18" cy="-207" rx="87.18" ry="18"/>
<text xml:space="preserve" text-anchor="middle" x="87.18" y="-201.95" font-family="Times New Roman,serif" font-size="14.00">MessageAndParams</text>
</g>
<!-- 1 -->
<!-- name: &quot;translate&quot;, typeName: &quot;&quot;, id: 1, branchId: 0, recurseId: &#45;1, attributes: 0, notes: &quot;&quot; -->
<g id="node2" class="node">
<title>1</title>
<ellipse fill="none" stroke="black" cx="452.61" cy="-340" rx="42.14" ry="18"/>
<text xml:space="preserve" text-anchor="middle" x="452.61" y="-334.95" font-family="Times New Roman,serif" font-size="14.00">translate</text>
</g>
<!-- 0&#45;&gt;1 -->
<g id="edge1" class="edge">
<title>0&#45;&gt;1</title>
<path fill="none" stroke="black" d="M110.72,-224.79C134.29,-242.55 172.98,-269.37 210.36,-285 273.05,-311.22 350.37,-326.04 400.32,-333.53"/>
<polygon fill="black" stroke="black" points="399.57,-336.96 409.97,-334.93 400.58,-330.03 399.57,-336.96"/>
</g>
<!-- 3 -->
<!-- name: &quot;popup&quot;, typeName: &quot;&quot;, id: 3, branchId: 0, recurseId: &#45;1, attributes: 0, notes: &quot;&quot; -->
<g id="node4" class="node">
<title>3</title>
<ellipse fill="none" stroke="black" cx="452.61" cy="-284" rx="33.95" ry="18"/>
<text xml:space="preserve" text-anchor="middle" x="452.61" y="-278.95" font-family="Times New Roman,serif" font-size="14.00">popup</text>
</g>
<!-- 0&#45;&gt;3 -->
<g id="edge3" class="edge">
<title>0&#45;&gt;3</title>
<path fill="none" stroke="black" d="M119.32,-224.12C143.43,-236.53 178.05,-252.56 210.36,-261 277.3,-278.49 357.79,-283 406.8,-283.99"/>
<polygon fill="black" stroke="black" points="406.69,-287.49 416.74,-284.15 406.79,-280.49 406.69,-287.49"/>
</g>
<!-- 5 -->
<!-- name: &quot;jukeboxPopup&quot;, typeName: &quot;&quot;, id: 5, branchId: 0, recurseId: &#45;1, attributes: 0, notes: &quot;&quot; -->
<g id="node6" class="node">
<title>5</title>
<ellipse fill="none" stroke="black" cx="276.04" cy="-234" rx="64.15" ry="18"/>
<text xml:space="preserve" text-anchor="middle" x="276.04" y="-228.95" font-family="Times New Roman,serif" font-size="14.00">jukeboxPopup</text>
</g>
<!-- 0&#45;&gt;5 -->
<g id="edge5" class="edge">
<title>0&#45;&gt;5</title>
<path fill="none" stroke="black" d="M159.62,-217.32C175.21,-219.58 191.66,-221.95 207.11,-224.18"/>
<polygon fill="black" stroke="black" points="206.25,-227.6 216.65,-225.56 207.25,-220.67 206.25,-227.6"/>
</g>
<!-- 7 -->
<!-- name: &quot;Message Type&quot;, typeName: &quot;&quot;, id: 7, branchId: 0, recurseId: &#45;1, attributes: 0, notes: &quot;&quot; -->
<g id="node8" class="node">
<title>7</title>
<ellipse fill="none" stroke="black" cx="276.04" cy="-180" rx="64.15" ry="18"/>
<text xml:space="preserve" text-anchor="middle" x="276.04" y="-174.95" font-family="Times New Roman,serif" font-size="14.00">Message Type</text>
</g>
<!-- 0&#45;&gt;7 -->
<g id="edge7" class="edge">
<title>0&#45;&gt;7</title>
<path fill="none" stroke="black" d="M159.62,-196.68C175.21,-194.42 191.66,-192.05 207.11,-189.82"/>
<polygon fill="black" stroke="black" points="207.25,-193.33 216.65,-188.44 206.25,-186.4 207.25,-193.33"/>
</g>
<!-- 9 -->
<!-- name: &quot;Message&quot;, typeName: &quot;&quot;, id: 9, branchId: 0, recurseId: &#45;1, attributes: 0, notes: &quot;&quot; -->
<g id="node10" class="node">
<title>9</title>
<ellipse fill="none" stroke="black" cx="276.04" cy="-126" rx="43.67" ry="18"/>
<text xml:space="preserve" text-anchor="middle" x="276.04" y="-120.95" font-family="Times New Roman,serif" font-size="14.00">Message</text>
</g>
<!-- 0&#45;&gt;9 -->
<g id="edge9" class="edge">
<title>0&#45;&gt;9</title>
<path fill="none" stroke="black" d="M125.25,-190.38C149.43,-179.59 181.7,-165.31 210.36,-153 217.97,-149.73 226.1,-146.29 233.94,-143"/>
<polygon fill="black" stroke="black" points="235.11,-146.31 242.99,-139.23 232.41,-139.85 235.11,-146.31"/>
</g>
<!-- 11 -->
<!-- name: &quot;Parameter List&quot;, typeName: &quot;&quot;, id: 11, branchId: 0, recurseId: &#45;1, attributes: 0, notes: &quot;&quot; -->
<g id="node12" class="node">
<title>11</title>
<ellipse fill="none" stroke="black" cx="276.04" cy="-72" rx="65.68" ry="18"/>
<text xml:space="preserve" text-anchor="middle" x="276.04" y="-66.95" font-family="Times New Roman,serif" font-size="14.00">Parameter List</text>
</g>
<!-- 0&#45;&gt;11 -->
<g id="edge11" class="edge">
<title>0&#45;&gt;11</title>
<path fill="none" stroke="black" d="M104.9,-188.91C127.17,-165.65 168.61,-125.15 210.36,-99 214.83,-96.2 219.64,-93.57 224.54,-91.14"/>
<polygon fill="black" stroke="black" points="225.71,-94.46 233.3,-87.07 222.76,-88.11 225.71,-94.46"/>
</g>
<!-- 2 -->
<!-- name: &quot;enum TextPacketType&quot;, typeName: &quot;&quot;, id: 2, branchId: 0, recurseId: &#45;1, attributes: 512, notes: &quot;&quot; -->
<g id="node3" class="node">
<title>2</title>
<ellipse fill="none" stroke="black" cx="656.83" cy="-342" rx="93.32" ry="18"/>
<text xml:space="preserve" text-anchor="middle" x="656.83" y="-336.95" font-family="Times New Roman,serif" font-size="14.00">enum TextPacketType</text>
</g>
<!-- 1&#45;&gt;2 -->
<g id="edge2" class="edge">
<title>1&#45;&gt;2</title>
<path fill="none" stroke="black" d="M495.02,-340.41C511.62,-340.57 531.55,-340.77 551.65,-340.97"/>
<polygon fill="black" stroke="black" points="551.6,-344.47 561.63,-341.07 551.67,-337.47 551.6,-344.47"/>
</g>
<!-- 4 -->
<!-- name: &quot;enum TextPacketType&quot;, typeName: &quot;&quot;, id: 4, branchId: 0, recurseId: &#45;1, attributes: 512, notes: &quot;&quot; -->
<g id="node5" class="node">
<title>4</title>
<ellipse fill="none" stroke="black" cx="656.83" cy="-288" rx="93.32" ry="18"/>
<text xml:space="preserve" text-anchor="middle" x="656.83" y="-282.95" font-family="Times New Roman,serif" font-size="14.00">enum TextPacketType</text>
</g>
<!-- 3&#45;&gt;4 -->
<g id="edge4" class="edge">
<title>3&#45;&gt;4</title>
<path fill="none" stroke="black" d="M487.01,-284.66C505.12,-285.02 528.59,-285.48 552.24,-285.95"/>
<polygon fill="black" stroke="black" points="551.89,-289.44 561.96,-286.14 552.03,-282.45 551.89,-289.44"/>
</g>
<!-- 6 -->
<!-- name: &quot;enum TextPacketType&quot;, typeName: &quot;&quot;, id: 6, branchId: 0, recurseId: &#45;1, attributes: 512, notes: &quot;&quot; -->
<g id="node7" class="node">
<title>6</title>
<ellipse fill="none" stroke="black" cx="656.83" cy="-234" rx="93.32" ry="18"/>
<text xml:space="preserve" text-anchor="middle" x="656.83" y="-228.95" font-family="Times New Roman,serif" font-size="14.00">enum TextPacketType</text>
</g>
<!-- 5&#45;&gt;6 -->
<g id="edge6" class="edge">
<title>5&#45;&gt;6</title>
<path fill="none" stroke="black" d="M340.44,-234C398.1,-234 484.26,-234 551.97,-234"/>
<polygon fill="black" stroke="black" points="551.58,-237.5 561.58,-234 551.58,-230.5 551.58,-237.5"/>
</g>
<!-- 8 -->
<!-- name: &quot;enum TextPacketType&quot;, typeName: &quot;&quot;, id: 8, branchId: 0, recurseId: &#45;1, attributes: 512, notes: &quot;&quot; -->
<g id="node9" class="node">
<title>8</title>
<ellipse fill="none" stroke="black" cx="656.83" cy="-180" rx="93.32" ry="18"/>
<text xml:space="preserve" text-anchor="middle" x="656.83" y="-174.95" font-family="Times New Roman,serif" font-size="14.00">enum TextPacketType</text>
</g>
<!-- 7&#45;&gt;8 -->
<g id="edge8" class="edge">
<title>7&#45;&gt;8</title>
<path fill="none" stroke="black" d="M340.44,-180C398.1,-180 484.26,-180 551.97,-180"/>
<polygon fill="black" stroke="black" points="551.58,-183.5 561.58,-180 551.58,-176.5 551.58,-183.5"/>
</g>
<!-- 10 -->
<!-- name: &quot;string&quot;, typeName: &quot;&quot;, id: 10, branchId: 0, recurseId: &#45;1, attributes: 512, notes: &quot;&quot; -->
<g id="node11" class="node">
<title>10</title>
<ellipse fill="none" stroke="black" cx="656.83" cy="-126" rx="31.9" ry="18"/>
<text xml:space="preserve" text-anchor="middle" x="656.83" y="-120.95" font-family="Times New Roman,serif" font-size="14.00">string</text>
</g>
<!-- 9&#45;&gt;10 -->
<g id="edge10" class="edge">
<title>9&#45;&gt;10</title>
<path fill="none" stroke="black" d="M320.12,-126C393.14,-126 540.32,-126 613.1,-126"/>
<polygon fill="black" stroke="black" points="613.02,-129.5 623.02,-126 613.02,-122.5 613.02,-129.5"/>
</g>
<!-- 12 -->
<!-- name: &quot;List Size&quot;, typeName: &quot;&quot;, id: 12, branchId: 0, recurseId: &#45;1, attributes: 0, notes: &quot;&quot; -->
<g id="node13" class="node">
<title>12</title>
<ellipse fill="none" stroke="black" cx="452.61" cy="-72" rx="43.67" ry="18"/>
<text xml:space="preserve" text-anchor="middle" x="452.61" y="-66.95" font-family="Times New Roman,serif" font-size="14.00">List Size</text>
</g>
<!-- 11&#45;&gt;12 -->
<g id="edge12" class="edge">
<title>11&#45;&gt;12</title>
<path fill="none" stroke="black" d="M342.04,-72C360.25,-72 379.85,-72 397.37,-72"/>
<polygon fill="black" stroke="black" points="397.03,-75.5 407.03,-72 397.03,-68.5 397.03,-75.5"/>
</g>
<!-- 14 -->
<!-- name: &quot;example element&quot;, typeName: &quot;&quot;, id: 14, branchId: 0, recurseId: &#45;1, attributes: 16, notes: &quot;&quot; -->
<g id="node15" class="node">
<title>14</title>
<ellipse fill="none" stroke="black" stroke-dasharray="1,5" cx="452.61" cy="-18" rx="74.89" ry="18"/>
<text xml:space="preserve" text-anchor="middle" x="452.61" y="-12.95" font-family="Times New Roman,serif" font-size="14.00">example element</text>
</g>
<!-- 11&#45;&gt;14 -->
<g id="edge14" class="edge">
<title>11&#45;&gt;14</title>
<path fill="none" stroke="black" d="M320.64,-58.51C342.97,-51.6 370.45,-43.11 394.45,-35.68"/>
<polygon fill="black" stroke="black" points="395.24,-39.1 403.76,-32.8 393.18,-32.41 395.24,-39.1"/>
</g>
<!-- 13 -->
<!-- name: &quot;unsigned varint&quot;, typeName: &quot;&quot;, id: 13, branchId: 0, recurseId: &#45;1, attributes: 0, notes: &quot;&quot; -->
<g id="node14" class="node">
<title>13</title>
<ellipse fill="none" stroke="black" cx="656.83" cy="-72" rx="68.24" ry="18"/>
<text xml:space="preserve" text-anchor="middle" x="656.83" y="-66.95" font-family="Times New Roman,serif" font-size="14.00">unsigned varint</text>
</g>
<!-- 12&#45;&gt;13 -->
<g id="edge13" class="edge">
<title>12&#45;&gt;13</title>
<path fill="none" stroke="black" d="M496.5,-72C519.93,-72 549.7,-72 577.15,-72"/>
<polygon fill="black" stroke="black" points="576.82,-75.5 586.82,-72 576.82,-68.5 576.82,-75.5"/>
</g>
<!-- 15 -->
<!-- name: &quot;string&quot;, typeName: &quot;&quot;, id: 15, branchId: 0, recurseId: &#45;1, attributes: 512, notes: &quot;&quot; -->
<g id="node16" class="node">
<title>15</title>
<ellipse fill="none" stroke="black" cx="656.83" cy="-18" rx="31.9" ry="18"/>
<text xml:space="preserve" text-anchor="middle" x="656.83" y="-12.95" font-family="Times New Roman,serif" font-size="14.00">string</text>
</g>
<!-- 14&#45;&gt;15 -->
<g id="edge15" class="edge">
<title>14&#45;&gt;15</title>
<path fill="none" stroke="black" d="M527.76,-18C556.57,-18 588.52,-18 613.3,-18"/>
<polygon fill="black" stroke="black" points="612.98,-21.5 622.98,-18 612.98,-14.5 612.98,-21.5"/>
</g>
</g>
</svg>
