<?xml version="1.0" encoding="UTF-8" standalone="no"?>
<!DOCTYPE svg PUBLIC "-//W3C//DTD SVG 1.1//EN"
 "http://www.w3.org/Graphics/SVG/1.1/DTD/svg11.dtd">
<!-- Generated by graphviz version 14.0.2 (20251019.1705)
 -->
<!-- Title: MessageOnly Pages: 1 -->
<svg width="603pt" height="422pt"
 viewBox="0.00 0.00 603.00 422.00" xmlns="http://www.w3.org/2000/svg" xmlns:xlink="http://www.w3.org/1999/xlink">
<g id="graph0" class="graph" transform="scale(1 1) rotate(0) translate(4 418)">
<title>MessageOnly</title>
<polygon fill="white" stroke="none" points="-4,4 -4,-418 599.07,-418 599.07,4 -4,4"/>
<!-- 0 -->
<!-- name: &quot;MessageOnly&quot;, typeName: &quot;&quot;, id: 0, branchId: 0, recurseId: &#45;1, attributes: 0, notes: &quot;&quot; -->
<g id="node1" class="node">
<title>0</title>
<ellipse fill="none" stroke="black" cx="62.1" cy="-207" rx="62.1" ry="18"/>
<text xml:space="preserve" text-anchor="middle" x="62.1" y="-201.95" font-family="Times New Roman,serif" font-size="14.00">MessageOnly</text>
</g>
<!-- 1 -->
<!-- name: &quot;raw&quot;, typeName: &quot;&quot;, id: 1, branchId: 0, recurseId: &#45;1, attributes: 0, notes: &quot;&quot; -->
<g id="node2" class="node">
<title>1</title>
<ellipse fill="none" stroke="black" cx="266.31" cy="-396" rx="27" ry="18"/>
<text xml:space="preserve" text-anchor="middle" x="266.31" y="-390.95" font-family="Times New Roman,serif" font-size="14.00">raw</text>
</g>
<!-- 0&#45;&gt;1 -->
<g id="edge1" class="edge">
<title>0&#45;&gt;1</title>
<path fill="none" stroke="black" d="M68.81,-225.25C80.35,-259.05 109.74,-331.35 160.2,-369 179.69,-383.55 206.26,-390.29 227.8,-393.4"/>
<polygon fill="black" stroke="black" points="227.33,-396.87 237.68,-394.6 228.17,-389.92 227.33,-396.87"/>
</g>
<!-- 3 -->
<!-- name: &quot;tip&quot;, typeName: &quot;&quot;, id: 3, branchId: 0, recurseId: &#45;1, attributes: 0, notes: &quot;&quot; -->
<g id="node4" class="node">
<title>3</title>
<ellipse fill="none" stroke="black" cx="266.31" cy="-342" rx="27" ry="18"/>
<text xml:space="preserve" text-anchor="middle" x="266.31" y="-336.95" font-family="Times New Roman,serif" font-size="14.00">tip</text>
</g>
<!-- 0&#45;&gt;3 -->
<g id="edge3" class="edge">
<title>0&#45;&gt;3</title>
<path fill="none" stroke="black" d="M74.23,-224.9C90.23,-249.09 122.03,-291.87 160.2,-315 180.86,-327.53 207.2,-334.28 228.35,-337.9"/>
<polygon fill="black" stroke="black" points="227.58,-341.32 237.99,-339.37 228.64,-334.4 227.58,-341.32"/>
</g>
<!-- 5 -->
<!-- name: &quot;systemMessage&quot;, typeName: &quot;&quot;, id: 5, branchId: 0, recurseId: &#45;1, attributes: 0, notes: &quot;&quot; -->
<g id="node6" class="node">
<title>5</title>
<ellipse fill="none" stroke="black" cx="266.31" cy="-288" rx="69.78" ry="18"/>
<text xml:space="preserve" text-anchor="middle" x="266.31" y="-282.95" font-family="Times New Roman,serif" font-size="14.00">systemMessage</text>
</g>
<!-- 0&#45;&gt;5 -->
<g id="edge5" class="edge">
<title>0&#45;&gt;5</title>
<path fill="none" stroke="black" d="M88.58,-223.55C107.66,-235.35 134.76,-250.85 160.2,-261 172.71,-265.99 186.43,-270.3 199.71,-273.92"/>
<polygon fill="black" stroke="black" points="198.7,-277.27 209.26,-276.41 200.47,-270.5 198.7,-277.27"/>
</g>
<!-- 7 -->
<!-- name: &quot;textObjectWhisper&quot;, typeName: &quot;&quot;, id: 7, branchId: 0, recurseId: &#45;1, attributes: 0, notes: &quot;&quot; -->
<g id="node8" class="node">
<title>7</title>
<ellipse fill="none" stroke="black" cx="266.31" cy="-234" rx="81.04" ry="18"/>
<text xml:space="preserve" text-anchor="middle" x="266.31" y="-228.95" font-family="Times New Roman,serif" font-size="14.00">textObjectWhisper</text>
</g>
<!-- 0&#45;&gt;7 -->
<g id="edge7" class="edge">
<title>0&#45;&gt;7</title>
<path fill="none" stroke="black" d="M119.16,-214.49C139.36,-217.18 162.59,-220.28 184.49,-223.21"/>
<polygon fill="black" stroke="black" points="183.92,-226.66 194.29,-224.52 184.84,-219.72 183.92,-226.66"/>
</g>
<!-- 9 -->
<!-- name: &quot;textObjectAnnouncement&quot;, typeName: &quot;&quot;, id: 9, branchId: 0, recurseId: &#45;1, attributes: 0, notes: &quot;&quot; -->
<g id="node10" class="node">
<title>9</title>
<ellipse fill="none" stroke="black" cx="266.31" cy="-180" rx="106.11" ry="18"/>
<text xml:space="preserve" text-anchor="middle" x="266.31" y="-174.95" font-family="Times New Roman,serif" font-size="14.00">textObjectAnnouncement</text>
</g>
<!-- 0&#45;&gt;9 -->
<g id="edge9" class="edge">
<title>0&#45;&gt;9</title>
<path fill="none" stroke="black" d="M119.16,-199.51C134.98,-197.4 152.65,-195.04 170.09,-192.72"/>
<polygon fill="black" stroke="black" points="170.54,-196.19 179.99,-191.39 169.61,-189.25 170.54,-196.19"/>
</g>
<!-- 11 -->
<!-- name: &quot;textObject&quot;, typeName: &quot;&quot;, id: 11, branchId: 0, recurseId: &#45;1, attributes: 0, notes: &quot;&quot; -->
<g id="node12" class="node">
<title>11</title>
<ellipse fill="none" stroke="black" cx="266.31" cy="-126" rx="49.3" ry="18"/>
<text xml:space="preserve" text-anchor="middle" x="266.31" y="-120.95" font-family="Times New Roman,serif" font-size="14.00">textObject</text>
</g>
<!-- 0&#45;&gt;11 -->
<g id="edge11" class="edge">
<title>0&#45;&gt;11</title>
<path fill="none" stroke="black" d="M88.58,-190.45C107.66,-178.65 134.76,-163.15 160.2,-153 176.27,-146.59 194.33,-141.31 210.89,-137.16"/>
<polygon fill="black" stroke="black" points="211.69,-140.57 220.6,-134.83 210.06,-133.76 211.69,-140.57"/>
</g>
<!-- 13 -->
<!-- name: &quot;Message Type&quot;, typeName: &quot;&quot;, id: 13, branchId: 0, recurseId: &#45;1, attributes: 0, notes: &quot;&quot; -->
<g id="node14" class="node">
<title>13</title>
<ellipse fill="none" stroke="black" cx="266.31" cy="-72" rx="64.15" ry="18"/>
<text xml:space="preserve" text-anchor="middle" x="266.31" y="-66.95" font-family="Times New Roman,serif" font-size="14.00">Message Type</text>
</g>
<!-- 0&#45;&gt;13 -->
<g id="edge13" class="edge">
<title>0&#45;&gt;13</title>
<path fill="none" stroke="black" d="M74.23,-189.1C90.23,-164.91 122.03,-122.13 160.2,-99 171.59,-92.09 184.71,-86.94 197.73,-83.11"/>
<polygon fill="black" stroke="black" points="198.39,-86.55 207.14,-80.57 196.58,-79.79 198.39,-86.55"/>
</g>
<!-- 15 -->
<!-- name: &quot;Message&quot;, typeName: &quot;&quot;, id: 15, branchId: 0, recurseId: &#45;1, attributes: 0, notes: &quot;&quot; -->
<g id="node16" class="node">
<title>15</title>
<ellipse fill="none" stroke="black" cx="266.31" cy="-18" rx="43.67" ry="18"/>
<text xml:space="preserve" text-anchor="middle" x="266.31" y="-12.95" font-family="Times New Roman,serif" font-size="14.00">Message</text>
</g>
<!-- 0&#45;&gt;15 -->
<g id="edge15" class="edge">
<title>0&#45;&gt;15</title>
<path fill="none" stroke="black" d="M68.81,-188.75C80.35,-154.95 109.74,-82.65 160.2,-45 175.07,-33.9 194.06,-27.35 211.79,-23.48"/>
<polygon fill="black" stroke="black" points="212.27,-26.95 221.43,-21.64 210.95,-20.08 212.27,-26.95"/>
</g>
<!-- 2 -->
<!-- name: &quot;enum TextPacketType&quot;, typeName: &quot;&quot;, id: 2, branchId: 0, recurseId: &#45;1, attributes: 512, notes: &quot;&quot; -->
<g id="node3" class="node">
<title>2</title>
<ellipse fill="none" stroke="black" cx="501.75" cy="-396" rx="93.32" ry="18"/>
<text xml:space="preserve" text-anchor="middle" x="501.75" y="-390.95" font-family="Times New Roman,serif" font-size="14.00">enum TextPacketType</text>
</g>
<!-- 1&#45;&gt;2 -->
<g id="edge2" class="edge">
<title>1&#45;&gt;2</title>
<path fill="none" stroke="black" d="M293.64,-396C318.92,-396 358.79,-396 396.83,-396"/>
<polygon fill="black" stroke="black" points="396.51,-399.5 406.51,-396 396.51,-392.5 396.51,-399.5"/>
</g>
<!-- 4 -->
<!-- name: &quot;enum TextPacketType&quot;, typeName: &quot;&quot;, id: 4, branchId: 0, recurseId: &#45;1, attributes: 512, notes: &quot;&quot; -->
<g id="node5" class="node">
<title>4</title>
<ellipse fill="none" stroke="black" cx="501.75" cy="-342" rx="93.32" ry="18"/>
<text xml:space="preserve" text-anchor="middle" x="501.75" y="-336.95" font-family="Times New Roman,serif" font-size="14.00">enum TextPacketType</text>
</g>
<!-- 3&#45;&gt;4 -->
<g id="edge4" class="edge">
<title>3&#45;&gt;4</title>
<path fill="none" stroke="black" d="M293.64,-342C318.92,-342 358.79,-342 396.83,-342"/>
<polygon fill="black" stroke="black" points="396.51,-345.5 406.51,-342 396.51,-338.5 396.51,-345.5"/>
</g>
<!-- 6 -->
<!-- name: &quot;enum TextPacketType&quot;, typeName: &quot;&quot;, id: 6, branchId: 0, recurseId: &#45;1, attributes: 512, notes: &quot;&quot; -->
<g id="node7" class="node">
<title>6</title>
<ellipse fill="none" stroke="black" cx="501.75" cy="-288" rx="93.32" ry="18"/>
<text xml:space="preserve" text-anchor="middle" x="501.75" y="-282.95" font-family="Times New Roman,serif" font-size="14.00">enum TextPacketType</text>
</g>
<!-- 5&#45;&gt;6 -->
<g id="edge6" class="edge">
<title>5&#45;&gt;6</title>
<path fill="none" stroke="black" d="M336.4,-288C355.35,-288 376.31,-288 396.75,-288"/>
<polygon fill="black" stroke="black" points="396.52,-291.5 406.52,-288 396.52,-284.5 396.52,-291.5"/>
</g>
<!-- 8 -->
<!-- name: &quot;enum TextPacketType&quot;, typeName: &quot;&quot;, id: 8, branchId: 0, recurseId: &#45;1, attributes: 512, notes: &quot;&quot; -->
<g id="node9" class="node">
<title>8</title>
<ellipse fill="none" stroke="black" cx="501.75" cy="-234" rx="93.32" ry="18"/>
<text xml:space="preserve" text-anchor="middle" x="501.75" y="-228.95" font-family="Times New Roman,serif" font-size="14.00">enum TextPacketType</text>
</g>
<!-- 7&#45;&gt;8 -->
<g id="edge8" class="edge">
<title>7&#45;&gt;8</title>
<path fill="none" stroke="black" d="M347.65,-234C363.51,-234 380.36,-234 396.87,-234"/>
<polygon fill="black" stroke="black" points="396.71,-237.5 406.71,-234 396.71,-230.5 396.71,-237.5"/>
</g>
<!-- 10 -->
<!-- name: &quot;enum TextPacketType&quot;, typeName: &quot;&quot;, id: 10, branchId: 0, recurseId: &#45;1, attributes: 512, notes: &quot;&quot; -->
<g id="node11" class="node">
<title>10</title>
<ellipse fill="none" stroke="black" cx="501.75" cy="-180" rx="93.32" ry="18"/>
<text xml:space="preserve" text-anchor="middle" x="501.75" y="-174.95" font-family="Times New Roman,serif" font-size="14.00">enum TextPacketType</text>
</g>
<!-- 9&#45;&gt;10 -->
<g id="edge10" class="edge">
<title>9&#45;&gt;10</title>
<path fill="none" stroke="black" d="M372.76,-180C380.81,-180 388.93,-180 396.97,-180"/>
<polygon fill="black" stroke="black" points="396.75,-183.5 406.75,-180 396.75,-176.5 396.75,-183.5"/>
</g>
<!-- 12 -->
<!-- name: &quot;enum TextPacketType&quot;, typeName: &quot;&quot;, id: 12, branchId: 0, recurseId: &#45;1, attributes: 512, notes: &quot;&quot; -->
<g id="node13" class="node">
<title>12</title>
<ellipse fill="none" stroke="black" cx="501.75" cy="-126" rx="93.32" ry="18"/>
<text xml:space="preserve" text-anchor="middle" x="501.75" y="-120.95" font-family="Times New Roman,serif" font-size="14.00">enum TextPacketType</text>
</g>
<!-- 11&#45;&gt;12 -->
<g id="edge12" class="edge">
<title>11&#45;&gt;12</title>
<path fill="none" stroke="black" d="M315.97,-126C339.56,-126 368.85,-126 397.11,-126"/>
<polygon fill="black" stroke="black" points="396.78,-129.5 406.78,-126 396.78,-122.5 396.78,-129.5"/>
</g>
<!-- 14 -->
<!-- name: &quot;enum TextPacketType&quot;, typeName: &quot;&quot;, id: 14, branchId: 0, recurseId: &#45;1, attributes: 512, notes: &quot;&quot; -->
<g id="node15" class="node">
<title>14</title>
<ellipse fill="none" stroke="black" cx="501.75" cy="-72" rx="93.32" ry="18"/>
<text xml:space="preserve" text-anchor="middle" x="501.75" y="-66.95" font-family="Times New Roman,serif" font-size="14.00">enum TextPacketType</text>
</g>
<!-- 13&#45;&gt;14 -->
<g id="edge14" class="edge">
<title>13&#45;&gt;14</title>
<path fill="none" stroke="black" d="M330.79,-72C351.12,-72 374.19,-72 396.63,-72"/>
<polygon fill="black" stroke="black" points="396.42,-75.5 406.42,-72 396.42,-68.5 396.42,-75.5"/>
</g>
<!-- 16 -->
<!-- name: &quot;string&quot;, typeName: &quot;&quot;, id: 16, branchId: 0, recurseId: &#45;1, attributes: 512, notes: &quot;&quot; -->
<g id="node17" class="node">
<title>16</title>
<ellipse fill="none" stroke="black" cx="501.75" cy="-18" rx="31.9" ry="18"/>
<text xml:space="preserve" text-anchor="middle" x="501.75" y="-12.95" font-family="Times New Roman,serif" font-size="14.00">string</text>
</g>
<!-- 15&#45;&gt;16 -->
<g id="edge16" class="edge">
<title>15&#45;&gt;16</title>
<path fill="none" stroke="black" d="M310.4,-18C352.46,-18 416.07,-18 458.01,-18"/>
<polygon fill="black" stroke="black" points="457.97,-21.5 467.97,-18 457.97,-14.5 457.97,-21.5"/>
</g>
</g>
</svg>
