<?xml version="1.0" encoding="UTF-8" standalone="no"?>
<!DOCTYPE svg PUBLIC "-//W3C//DTD SVG 1.1//EN"
 "http://www.w3.org/Graphics/SVG/1.1/DTD/svg11.dtd">
<!-- Generated by graphviz version 13.1.0 (20250701.0955)
 -->
<!-- Title: NetworkChunkPublisherUpdatePacket Pages: 1 -->
<svg width="1128pt" height="360pt"
 viewBox="0.00 0.00 1128.00 360.00" xmlns="http://www.w3.org/2000/svg" xmlns:xlink="http://www.w3.org/1999/xlink">
<g id="graph0" class="graph" transform="scale(1 1) rotate(0) translate(4 356)">
<title>NetworkChunkPublisherUpdatePacket</title>
<polygon fill="white" stroke="none" points="-4,4 -4,-356 1124.19,-356 1124.19,4 -4,4"/>
<!-- 0 -->
<!-- name: &quot;NetworkChunkPublisherUpdatePacket&quot;, typeName: &quot;&quot;, id: 0, branchId: 0, recurseId: &#45;1, attributes: 0, notes: &quot;Tells clients to update the chunk view for the local player. &quot; -->
<g id="node1" class="node">
<title>0</title>
<ellipse fill="none" stroke="black" cx="153.71" cy="-176" rx="153.71" ry="18"/>
<text xml:space="preserve" text-anchor="middle" x="153.71" y="-170.95" font-family="Times New Roman,serif" font-size="14.00">NetworkChunkPublisherUpdatePacket</text>
</g>
<!-- 1 -->
<!-- name: &quot;New position for view&quot;, typeName: &quot;&quot;, id: 1, branchId: 0, recurseId: &#45;1, attributes: 0, notes: &quot;&quot; -->
<g id="node2" class="node">
<title>1</title>
<ellipse fill="none" stroke="black" cx="680.88" cy="-253" rx="94.34" ry="18"/>
<text xml:space="preserve" text-anchor="middle" x="680.88" y="-247.95" font-family="Times New Roman,serif" font-size="14.00">New position for view</text>
</g>
<!-- 0&#45;&gt;1 -->
<g id="edge1" class="edge">
<title>0&#45;&gt;1</title>
<path fill="none" stroke="black" d="M251.96,-190.26C349.97,-204.63 499.8,-226.6 593.68,-240.36"/>
<polygon fill="black" stroke="black" points="592.94,-243.79 603.34,-241.78 593.96,-236.86 592.94,-243.79"/>
</g>
<!-- 8 -->
<!-- name: &quot;New radius for view&quot;, typeName: &quot;&quot;, id: 8, branchId: 0, recurseId: &#45;1, attributes: 0, notes: &quot;&quot; -->
<g id="node9" class="node">
<title>8</title>
<ellipse fill="none" stroke="black" cx="446.98" cy="-176" rx="87.18" ry="18"/>
<text xml:space="preserve" text-anchor="middle" x="446.98" y="-170.95" font-family="Times New Roman,serif" font-size="14.00">New radius for view</text>
</g>
<!-- 0&#45;&gt;8 -->
<g id="edge8" class="edge">
<title>0&#45;&gt;8</title>
<path fill="none" stroke="black" d="M307.6,-176C321.41,-176 335.13,-176 348.27,-176"/>
<polygon fill="black" stroke="black" points="348.14,-179.5 358.14,-176 348.14,-172.5 348.14,-179.5"/>
</g>
<!-- 10 -->
<!-- name: &quot;Server Built Chunks List&quot;, typeName: &quot;&quot;, id: 10, branchId: 0, recurseId: &#45;1, attributes: 0, notes: &quot;&quot; -->
<g id="node11" class="node">
<title>10</title>
<ellipse fill="none" stroke="black" cx="446.98" cy="-122" rx="103.56" ry="18"/>
<text xml:space="preserve" text-anchor="middle" x="446.98" y="-116.95" font-family="Times New Roman,serif" font-size="14.00">Server Built Chunks List</text>
</g>
<!-- 0&#45;&gt;10 -->
<g id="edge10" class="edge">
<title>0&#45;&gt;10</title>
<path fill="none" stroke="black" d="M238.18,-160.53C277.58,-153.22 324.47,-144.53 363.72,-137.25"/>
<polygon fill="black" stroke="black" points="364.16,-140.73 373.35,-135.47 362.88,-133.85 364.16,-140.73"/>
</g>
<!-- 2 -->
<!-- name: &quot;X&quot;, typeName: &quot;&quot;, id: 2, branchId: 0, recurseId: &#45;1, attributes: 0, notes: &quot;&quot; -->
<g id="node3" class="node">
<title>2</title>
<ellipse fill="none" stroke="black" cx="879.47" cy="-334" rx="27" ry="18"/>
<text xml:space="preserve" text-anchor="middle" x="879.47" y="-328.95" font-family="Times New Roman,serif" font-size="14.00">X</text>
</g>
<!-- 1&#45;&gt;2 -->
<g id="edge2" class="edge">
<title>1&#45;&gt;2</title>
<path fill="none" stroke="black" d="M721.45,-269.68C747.03,-280.43 781.05,-294.64 811.22,-307 822.31,-311.54 834.46,-316.44 845.34,-320.8"/>
<polygon fill="black" stroke="black" points="843.72,-323.93 854.31,-324.39 846.32,-317.43 843.72,-323.93"/>
</g>
<!-- 4 -->
<!-- name: &quot;Y&quot;, typeName: &quot;&quot;, id: 4, branchId: 0, recurseId: &#45;1, attributes: 0, notes: &quot;&quot; -->
<g id="node5" class="node">
<title>4</title>
<ellipse fill="none" stroke="black" cx="879.47" cy="-280" rx="27" ry="18"/>
<text xml:space="preserve" text-anchor="middle" x="879.47" y="-274.95" font-family="Times New Roman,serif" font-size="14.00">Y</text>
</g>
<!-- 1&#45;&gt;4 -->
<g id="edge4" class="edge">
<title>1&#45;&gt;4</title>
<path fill="none" stroke="black" d="M758.73,-263.55C787.29,-267.48 818.39,-271.75 841.73,-274.95"/>
<polygon fill="black" stroke="black" points="840.97,-278.38 851.35,-276.28 841.92,-271.45 840.97,-278.38"/>
</g>
<!-- 6 -->
<!-- name: &quot;Z&quot;, typeName: &quot;&quot;, id: 6, branchId: 0, recurseId: &#45;1, attributes: 0, notes: &quot;&quot; -->
<g id="node7" class="node">
<title>6</title>
<ellipse fill="none" stroke="black" cx="879.47" cy="-226" rx="27" ry="18"/>
<text xml:space="preserve" text-anchor="middle" x="879.47" y="-220.95" font-family="Times New Roman,serif" font-size="14.00">Z</text>
</g>
<!-- 1&#45;&gt;6 -->
<g id="edge6" class="edge">
<title>1&#45;&gt;6</title>
<path fill="none" stroke="black" d="M758.73,-242.45C787.29,-238.52 818.39,-234.25 841.73,-231.05"/>
<polygon fill="black" stroke="black" points="841.92,-234.55 851.35,-229.72 840.97,-227.62 841.92,-234.55"/>
</g>
<!-- 3 -->
<!-- name: &quot;varint&quot;, typeName: &quot;&quot;, id: 3, branchId: 0, recurseId: &#45;1, attributes: 512, notes: &quot;&quot; -->
<g id="node4" class="node">
<title>3</title>
<ellipse fill="none" stroke="black" cx="1051.95" cy="-334" rx="32.41" ry="18"/>
<text xml:space="preserve" text-anchor="middle" x="1051.95" y="-328.95" font-family="Times New Roman,serif" font-size="14.00">varint</text>
</g>
<!-- 2&#45;&gt;3 -->
<g id="edge3" class="edge">
<title>2&#45;&gt;3</title>
<path fill="none" stroke="black" d="M906.73,-334C933.68,-334 976.06,-334 1007.92,-334"/>
<polygon fill="black" stroke="black" points="1007.62,-337.5 1017.62,-334 1007.62,-330.5 1007.62,-337.5"/>
</g>
<!-- 5 -->
<!-- name: &quot;varint&quot;, typeName: &quot;&quot;, id: 5, branchId: 0, recurseId: &#45;1, attributes: 512, notes: &quot;&quot; -->
<g id="node6" class="node">
<title>5</title>
<ellipse fill="none" stroke="black" cx="1051.95" cy="-280" rx="32.41" ry="18"/>
<text xml:space="preserve" text-anchor="middle" x="1051.95" y="-274.95" font-family="Times New Roman,serif" font-size="14.00">varint</text>
</g>
<!-- 4&#45;&gt;5 -->
<g id="edge5" class="edge">
<title>4&#45;&gt;5</title>
<path fill="none" stroke="black" d="M906.73,-280C933.68,-280 976.06,-280 1007.92,-280"/>
<polygon fill="black" stroke="black" points="1007.62,-283.5 1017.62,-280 1007.62,-276.5 1007.62,-283.5"/>
</g>
<!-- 7 -->
<!-- name: &quot;varint&quot;, typeName: &quot;&quot;, id: 7, branchId: 0, recurseId: &#45;1, attributes: 512, notes: &quot;&quot; -->
<g id="node8" class="node">
<title>7</title>
<ellipse fill="none" stroke="black" cx="1051.95" cy="-226" rx="32.41" ry="18"/>
<text xml:space="preserve" text-anchor="middle" x="1051.95" y="-220.95" font-family="Times New Roman,serif" font-size="14.00">varint</text>
</g>
<!-- 6&#45;&gt;7 -->
<g id="edge7" class="edge">
<title>6&#45;&gt;7</title>
<path fill="none" stroke="black" d="M906.73,-226C933.68,-226 976.06,-226 1007.92,-226"/>
<polygon fill="black" stroke="black" points="1007.62,-229.5 1017.62,-226 1007.62,-222.5 1007.62,-229.5"/>
</g>
<!-- 9 -->
<!-- name: &quot;unsigned varint&quot;, typeName: &quot;&quot;, id: 9, branchId: 0, recurseId: &#45;1, attributes: 512, notes: &quot;&quot; -->
<g id="node10" class="node">
<title>9</title>
<ellipse fill="none" stroke="black" cx="1051.95" cy="-172" rx="68.24" ry="18"/>
<text xml:space="preserve" text-anchor="middle" x="1051.95" y="-166.95" font-family="Times New Roman,serif" font-size="14.00">unsigned varint</text>
</g>
<!-- 8&#45;&gt;9 -->
<g id="edge9" class="edge">
<title>8&#45;&gt;9</title>
<path fill="none" stroke="black" d="M534.37,-175.43C651.49,-174.65 858.96,-173.27 972.06,-172.52"/>
<polygon fill="black" stroke="black" points="971.88,-176.02 981.86,-172.46 971.83,-169.02 971.88,-176.02"/>
</g>
<!-- 11 -->
<!-- name: &quot;List Size&quot;, typeName: &quot;&quot;, id: 11, branchId: 0, recurseId: &#45;1, attributes: 0, notes: &quot;&quot; -->
<g id="node12" class="node">
<title>11</title>
<ellipse fill="none" stroke="black" cx="680.88" cy="-126" rx="43.67" ry="18"/>
<text xml:space="preserve" text-anchor="middle" x="680.88" y="-120.95" font-family="Times New Roman,serif" font-size="14.00">List Size</text>
</g>
<!-- 10&#45;&gt;11 -->
<g id="edge11" class="edge">
<title>10&#45;&gt;11</title>
<path fill="none" stroke="black" d="M550.37,-123.77C576.31,-124.21 603.16,-124.68 625.64,-125.06"/>
<polygon fill="black" stroke="black" points="625.4,-128.56 635.46,-125.23 625.52,-121.56 625.4,-128.56"/>
</g>
<!-- 13 -->
<!-- name: &quot;example element&quot;, typeName: &quot;&quot;, id: 13, branchId: 0, recurseId: &#45;1, attributes: 16, notes: &quot;&quot; -->
<g id="node14" class="node">
<title>13</title>
<ellipse fill="none" stroke="black" stroke-dasharray="1,5" cx="680.88" cy="-72" rx="74.89" ry="18"/>
<text xml:space="preserve" text-anchor="middle" x="680.88" y="-66.95" font-family="Times New Roman,serif" font-size="14.00">example element</text>
</g>
<!-- 10&#45;&gt;13 -->
<g id="edge13" class="edge">
<title>10&#45;&gt;13</title>
<path fill="none" stroke="black" d="M513.51,-107.87C544.52,-101.19 581.51,-93.21 612.73,-86.48"/>
<polygon fill="black" stroke="black" points="613.43,-89.91 622.47,-84.38 611.96,-83.06 613.43,-89.91"/>
</g>
<!-- 12 -->
<!-- name: &quot;unsigned varint&quot;, typeName: &quot;&quot;, id: 12, branchId: 0, recurseId: &#45;1, attributes: 0, notes: &quot;&quot; -->
<g id="node13" class="node">
<title>12</title>
<ellipse fill="none" stroke="black" cx="879.47" cy="-126" rx="68.24" ry="18"/>
<text xml:space="preserve" text-anchor="middle" x="879.47" y="-120.95" font-family="Times New Roman,serif" font-size="14.00">unsigned varint</text>
</g>
<!-- 11&#45;&gt;12 -->
<g id="edge12" class="edge">
<title>11&#45;&gt;12</title>
<path fill="none" stroke="black" d="M725.02,-126C746.98,-126 774.36,-126 799.89,-126"/>
<polygon fill="black" stroke="black" points="799.57,-129.5 809.57,-126 799.57,-122.5 799.57,-129.5"/>
</g>
<!-- 14 -->
<!-- name: &quot;X&quot;, typeName: &quot;&quot;, id: 14, branchId: 0, recurseId: &#45;1, attributes: 0, notes: &quot;&quot; -->
<g id="node15" class="node">
<title>14</title>
<ellipse fill="none" stroke="black" cx="879.47" cy="-72" rx="27" ry="18"/>
<text xml:space="preserve" text-anchor="middle" x="879.47" y="-66.95" font-family="Times New Roman,serif" font-size="14.00">X</text>
</g>
<!-- 13&#45;&gt;14 -->
<g id="edge14" class="edge">
<title>13&#45;&gt;14</title>
<path fill="none" stroke="black" d="M756.2,-72C785.04,-72 816.8,-72 840.73,-72"/>
<polygon fill="black" stroke="black" points="840.61,-75.5 850.61,-72 840.61,-68.5 840.61,-75.5"/>
</g>
<!-- 16 -->
<!-- name: &quot;Z&quot;, typeName: &quot;&quot;, id: 16, branchId: 0, recurseId: &#45;1, attributes: 0, notes: &quot;&quot; -->
<g id="node17" class="node">
<title>16</title>
<ellipse fill="none" stroke="black" cx="879.47" cy="-18" rx="27" ry="18"/>
<text xml:space="preserve" text-anchor="middle" x="879.47" y="-12.95" font-family="Times New Roman,serif" font-size="14.00">Z</text>
</g>
<!-- 13&#45;&gt;16 -->
<g id="edge16" class="edge">
<title>13&#45;&gt;16</title>
<path fill="none" stroke="black" d="M731.49,-58.37C766.34,-48.8 812.11,-36.23 843.25,-27.67"/>
<polygon fill="black" stroke="black" points="843.84,-31.14 852.56,-25.12 841.99,-24.39 843.84,-31.14"/>
</g>
<!-- 15 -->
<!-- name: &quot;varint&quot;, typeName: &quot;&quot;, id: 15, branchId: 0, recurseId: &#45;1, attributes: 512, notes: &quot;&quot; -->
<g id="node16" class="node">
<title>15</title>
<ellipse fill="none" stroke="black" cx="1051.95" cy="-72" rx="32.41" ry="18"/>
<text xml:space="preserve" text-anchor="middle" x="1051.95" y="-66.95" font-family="Times New Roman,serif" font-size="14.00">varint</text>
</g>
<!-- 14&#45;&gt;15 -->
<g id="edge15" class="edge">
<title>14&#45;&gt;15</title>
<path fill="none" stroke="black" d="M906.73,-72C933.68,-72 976.06,-72 1007.92,-72"/>
<polygon fill="black" stroke="black" points="1007.62,-75.5 1017.62,-72 1007.62,-68.5 1007.62,-75.5"/>
</g>
<!-- 17 -->
<!-- name: &quot;varint&quot;, typeName: &quot;&quot;, id: 17, branchId: 0, recurseId: &#45;1, attributes: 512, notes: &quot;&quot; -->
<g id="node18" class="node">
<title>17</title>
<ellipse fill="none" stroke="black" cx="1051.95" cy="-18" rx="32.41" ry="18"/>
<text xml:space="preserve" text-anchor="middle" x="1051.95" y="-12.95" font-family="Times New Roman,serif" font-size="14.00">varint</text>
</g>
<!-- 16&#45;&gt;17 -->
<g id="edge17" class="edge">
<title>16&#45;&gt;17</title>
<path fill="none" stroke="black" d="M906.73,-18C933.68,-18 976.06,-18 1007.92,-18"/>
<polygon fill="black" stroke="black" points="1007.62,-21.5 1017.62,-18 1007.62,-14.5 1007.62,-21.5"/>
</g>
</g>
</svg>
