<?xml version="1.0" encoding="UTF-8" standalone="no"?>
<!DOCTYPE svg PUBLIC "-//W3C//DTD SVG 1.1//EN"
 "http://www.w3.org/Graphics/SVG/1.1/DTD/svg11.dtd">
<!-- Generated by graphviz version 13.1.0 (20250701.0955)
 -->
<!-- Title: NpcRequestPacket Pages: 1 -->
<svg width="956pt" height="260pt"
 viewBox="0.00 0.00 956.00 260.00" xmlns="http://www.w3.org/2000/svg" xmlns:xlink="http://www.w3.org/1999/xlink">
<g id="graph0" class="graph" transform="scale(1 1) rotate(0) translate(4 256)">
<title>NpcRequestPacket</title>
<polygon fill="white" stroke="none" points="-4,4 -4,-256 951.71,-256 951.71,4 -4,4"/>
<!-- 0 -->
<!-- name: &quot;NpcRequestPacket&quot;, typeName: &quot;&quot;, id: 0, branchId: 0, recurseId: &#45;1, attributes: 0, notes: &quot;Used for a number of interactions with the NPC Component&quot; -->
<g id="node1" class="node">
<title>0</title>
<ellipse fill="none" stroke="black" cx="80.52" cy="-126" rx="80.52" ry="18"/>
<text xml:space="preserve" text-anchor="middle" x="80.52" y="-120.95" font-family="Times New Roman,serif" font-size="14.00">NpcRequestPacket</text>
</g>
<!-- 1 -->
<!-- name: &quot;NPC Runtime ID&quot;, typeName: &quot;&quot;, id: 1, branchId: 0, recurseId: &#45;1, attributes: 0, notes: &quot;&quot; -->
<g id="node2" class="node">
<title>1</title>
<ellipse fill="none" stroke="black" cx="272.97" cy="-234" rx="75.92" ry="18"/>
<text xml:space="preserve" text-anchor="middle" x="272.97" y="-228.95" font-family="Times New Roman,serif" font-size="14.00">NPC Runtime ID</text>
</g>
<!-- 0&#45;&gt;1 -->
<g id="edge1" class="edge">
<title>0&#45;&gt;1</title>
<path fill="none" stroke="black" d="M102.98,-143.68C125.38,-161.48 162.04,-188.83 197.05,-207 202.87,-210.02 209.1,-212.85 215.39,-215.45"/>
<polygon fill="black" stroke="black" points="213.98,-218.65 224.57,-219.06 216.54,-212.14 213.98,-218.65"/>
</g>
<!-- 4 -->
<!-- name: &quot;Request Type&quot;, typeName: &quot;&quot;, id: 4, branchId: 0, recurseId: &#45;1, attributes: 0, notes: &quot;&quot; -->
<g id="node5" class="node">
<title>4</title>
<ellipse fill="none" stroke="black" cx="272.97" cy="-180" rx="61.08" ry="18"/>
<text xml:space="preserve" text-anchor="middle" x="272.97" y="-174.95" font-family="Times New Roman,serif" font-size="14.00">Request Type</text>
</g>
<!-- 0&#45;&gt;4 -->
<g id="edge4" class="edge">
<title>0&#45;&gt;4</title>
<path fill="none" stroke="black" d="M131.56,-140.19C157.81,-147.63 190.02,-156.76 216.97,-164.41"/>
<polygon fill="black" stroke="black" points="215.75,-167.7 226.32,-167.06 217.66,-160.96 215.75,-167.7"/>
</g>
<!-- 6 -->
<!-- name: &quot;Actions&quot;, typeName: &quot;&quot;, id: 6, branchId: 0, recurseId: &#45;1, attributes: 0, notes: &quot;&quot; -->
<g id="node7" class="node">
<title>6</title>
<ellipse fill="none" stroke="black" cx="272.97" cy="-126" rx="39.58" ry="18"/>
<text xml:space="preserve" text-anchor="middle" x="272.97" y="-120.95" font-family="Times New Roman,serif" font-size="14.00">Actions</text>
</g>
<!-- 0&#45;&gt;6 -->
<g id="edge6" class="edge">
<title>0&#45;&gt;6</title>
<path fill="none" stroke="black" d="M161.46,-126C181.85,-126 203.2,-126 221.63,-126"/>
<polygon fill="black" stroke="black" points="221.48,-129.5 231.48,-126 221.48,-122.5 221.48,-129.5"/>
</g>
<!-- 8 -->
<!-- name: &quot;Action Index&quot;, typeName: &quot;&quot;, id: 8, branchId: 0, recurseId: &#45;1, attributes: 0, notes: &quot;&quot; -->
<g id="node9" class="node">
<title>8</title>
<ellipse fill="none" stroke="black" cx="463.87" cy="-78" rx="59.54" ry="18"/>
<text xml:space="preserve" text-anchor="middle" x="463.87" y="-72.95" font-family="Times New Roman,serif" font-size="14.00">Action Index</text>
</g>
<!-- 0&#45;&gt;8 -->
<g id="edge8" class="edge">
<title>0&#45;&gt;8</title>
<path fill="none" stroke="black" d="M133.53,-112.09C153.29,-107.27 176.09,-102.26 197.05,-99 263,-88.75 338.98,-83.38 392.77,-80.65"/>
<polygon fill="black" stroke="black" points="392.91,-84.15 402.73,-80.17 392.57,-77.16 392.91,-84.15"/>
</g>
<!-- 10 -->
<!-- name: &quot;Scene Name&quot;, typeName: &quot;&quot;, id: 10, branchId: 0, recurseId: &#45;1, attributes: 0, notes: &quot;&quot; -->
<g id="node11" class="node">
<title>10</title>
<ellipse fill="none" stroke="black" cx="463.87" cy="-20" rx="58" ry="18"/>
<text xml:space="preserve" text-anchor="middle" x="463.87" y="-14.95" font-family="Times New Roman,serif" font-size="14.00">Scene Name</text>
</g>
<!-- 0&#45;&gt;10 -->
<g id="edge10" class="edge">
<title>0&#45;&gt;10</title>
<path fill="none" stroke="black" d="M117.38,-109.59C139.9,-99.74 169.76,-87.51 197.05,-79 265.72,-57.58 346.68,-40.77 401.06,-30.67"/>
<polygon fill="black" stroke="black" points="401.55,-34.14 410.75,-28.89 400.29,-27.25 401.55,-34.14"/>
</g>
<!-- 2 -->
<!-- name: &quot;Actor Runtime ID&quot;, typeName: &quot;&quot;, id: 2, branchId: 0, recurseId: &#45;1, attributes: 0, notes: &quot;&quot; -->
<g id="node3" class="node">
<title>2</title>
<ellipse fill="none" stroke="black" cx="463.87" cy="-234" rx="78.99" ry="18"/>
<text xml:space="preserve" text-anchor="middle" x="463.87" y="-228.95" font-family="Times New Roman,serif" font-size="14.00">Actor Runtime ID</text>
</g>
<!-- 1&#45;&gt;2 -->
<g id="edge2" class="edge">
<title>1&#45;&gt;2</title>
<path fill="none" stroke="black" d="M349.17,-234C357.07,-234 365.16,-234 373.21,-234"/>
<polygon fill="black" stroke="black" points="373.01,-237.5 383.01,-234 373.01,-230.5 373.01,-237.5"/>
</g>
<!-- 3 -->
<!-- name: &quot;unsigned varint64&quot;, typeName: &quot;&quot;, id: 3, branchId: 0, recurseId: &#45;1, attributes: 512, notes: &quot;&quot; -->
<g id="node4" class="node">
<title>3</title>
<ellipse fill="none" stroke="black" cx="763.28" cy="-234" rx="77.45" ry="18"/>
<text xml:space="preserve" text-anchor="middle" x="763.28" y="-228.95" font-family="Times New Roman,serif" font-size="14.00">unsigned varint64</text>
</g>
<!-- 2&#45;&gt;3 -->
<g id="edge3" class="edge">
<title>2&#45;&gt;3</title>
<path fill="none" stroke="black" d="M543.02,-234C583.21,-234 632.36,-234 673.93,-234"/>
<polygon fill="black" stroke="black" points="673.92,-237.5 683.92,-234 673.92,-230.5 673.92,-237.5"/>
</g>
<!-- 5 -->
<!-- name: &quot;enum NpcRequestPacketPayload RequestType&quot;, typeName: &quot;&quot;, id: 5, branchId: 0, recurseId: &#45;1, attributes: 512, notes: &quot;&quot; -->
<g id="node6" class="node">
<title>5</title>
<ellipse fill="none" stroke="black" cx="763.28" cy="-180" rx="184.42" ry="18"/>
<text xml:space="preserve" text-anchor="middle" x="763.28" y="-174.95" font-family="Times New Roman,serif" font-size="14.00">enum NpcRequestPacketPayload RequestType</text>
</g>
<!-- 4&#45;&gt;5 -->
<g id="edge5" class="edge">
<title>4&#45;&gt;5</title>
<path fill="none" stroke="black" d="M334.33,-180C392.52,-180 483.76,-180 567.07,-180"/>
<polygon fill="black" stroke="black" points="566.99,-183.5 576.99,-180 566.99,-176.5 566.99,-183.5"/>
</g>
<!-- 7 -->
<!-- name: &quot;string&quot;, typeName: &quot;&quot;, id: 7, branchId: 0, recurseId: &#45;1, attributes: 512, notes: &quot;&quot; -->
<g id="node8" class="node">
<title>7</title>
<ellipse fill="none" stroke="black" cx="763.28" cy="-126" rx="31.9" ry="18"/>
<text xml:space="preserve" text-anchor="middle" x="763.28" y="-120.95" font-family="Times New Roman,serif" font-size="14.00">string</text>
</g>
<!-- 6&#45;&gt;7 -->
<g id="edge7" class="edge">
<title>6&#45;&gt;7</title>
<path fill="none" stroke="black" d="M312.69,-126C402.79,-126 625.93,-126 719.7,-126"/>
<polygon fill="black" stroke="black" points="719.49,-129.5 729.49,-126 719.49,-122.5 719.49,-129.5"/>
</g>
<!-- 9 -->
<!-- name: &quot;unsigned byte&quot;, typeName: &quot;&quot;, id: 9, branchId: 0, recurseId: &#45;1, attributes: 512, notes: &quot;&quot; -->
<g id="node10" class="node">
<title>9</title>
<ellipse fill="none" stroke="black" cx="763.28" cy="-72" rx="62.61" ry="18"/>
<text xml:space="preserve" text-anchor="middle" x="763.28" y="-66.95" font-family="Times New Roman,serif" font-size="14.00">unsigned byte</text>
</g>
<!-- 8&#45;&gt;9 -->
<g id="edge9" class="edge">
<title>8&#45;&gt;9</title>
<path fill="none" stroke="black" d="M523.63,-76.81C571.08,-75.86 638.11,-74.51 689.05,-73.48"/>
<polygon fill="black" stroke="black" points="688.88,-76.98 698.81,-73.28 688.74,-69.98 688.88,-76.98"/>
</g>
<!-- 11 -->
<!-- name: &quot;string&quot;, typeName: &quot;&quot;, id: 11, branchId: 0, recurseId: &#45;1, attributes: 512, notes: &quot;&quot; -->
<g id="node12" class="node">
<title>11</title>
<ellipse fill="none" stroke="black" cx="763.28" cy="-18" rx="31.9" ry="18"/>
<text xml:space="preserve" text-anchor="middle" x="763.28" y="-12.95" font-family="Times New Roman,serif" font-size="14.00">string</text>
</g>
<!-- 10&#45;&gt;11 -->
<g id="edge11" class="edge">
<title>10&#45;&gt;11</title>
<path fill="none" stroke="black" d="M522.22,-19.61C580,-19.23 667.84,-18.64 719.71,-18.29"/>
<polygon fill="black" stroke="black" points="719.65,-21.79 729.63,-18.22 719.6,-14.79 719.65,-21.79"/>
</g>
</g>
</svg>
