<?xml version="1.0" encoding="UTF-8" standalone="no"?>
<!DOCTYPE svg PUBLIC "-//W3C//DTD SVG 1.1//EN"
 "http://www.w3.org/Graphics/SVG/1.1/DTD/svg11.dtd">
<!-- Generated by graphviz version 13.1.0 (20250701.0955)
 -->
<!-- Title: PlaySoundPacket Pages: 1 -->
<svg width="552pt" height="314pt"
 viewBox="0.00 0.00 552.00 314.00" xmlns="http://www.w3.org/2000/svg" xmlns:xlink="http://www.w3.org/1999/xlink">
<g id="graph0" class="graph" transform="scale(1 1) rotate(0) translate(4 310)">
<title>PlaySoundPacket</title>
<polygon fill="white" stroke="none" points="-4,4 -4,-310 548.4,-310 548.4,4 -4,4"/>
<!-- 0 -->
<!-- name: &quot;PlaySoundPacket&quot;, typeName: &quot;&quot;, id: 0, branchId: 0, recurseId: &#45;1, attributes: 0, notes: &quot;This packet is only used via command or script event. This is for 3rd party content.&quot; -->
<g id="node1" class="node">
<title>0</title>
<ellipse fill="none" stroke="black" cx="75.41" cy="-112" rx="75.41" ry="18"/>
<text xml:space="preserve" text-anchor="middle" x="75.41" y="-106.95" font-family="Times New Roman,serif" font-size="14.00">PlaySoundPacket</text>
</g>
<!-- 1 -->
<!-- name: &quot;Name&quot;, typeName: &quot;&quot;, id: 1, branchId: 0, recurseId: &#45;1, attributes: 0, notes: &quot;&quot; -->
<g id="node2" class="node">
<title>1</title>
<ellipse fill="none" stroke="black" cx="338.48" cy="-288" rx="33.44" ry="18"/>
<text xml:space="preserve" text-anchor="middle" x="338.48" y="-282.95" font-family="Times New Roman,serif" font-size="14.00">Name</text>
</g>
<!-- 0&#45;&gt;1 -->
<g id="edge1" class="edge">
<title>0&#45;&gt;1</title>
<path fill="none" stroke="black" d="M99.33,-129.55C121.43,-146.29 155.96,-171.99 186.81,-193 227,-220.36 274.66,-249.95 305.45,-268.71"/>
<polygon fill="black" stroke="black" points="303.55,-271.65 313.92,-273.85 307.19,-265.67 303.55,-271.65"/>
</g>
<!-- 3 -->
<!-- name: &quot;Position&quot;, typeName: &quot;&quot;, id: 3, branchId: 0, recurseId: &#45;1, attributes: 0, notes: &quot;&quot; -->
<g id="node4" class="node">
<title>3</title>
<ellipse fill="none" stroke="black" cx="227.93" cy="-166" rx="41.12" ry="18"/>
<text xml:space="preserve" text-anchor="middle" x="227.93" y="-160.95" font-family="Times New Roman,serif" font-size="14.00">Position</text>
</g>
<!-- 0&#45;&gt;3 -->
<g id="edge3" class="edge">
<title>0&#45;&gt;3</title>
<path fill="none" stroke="black" d="M118.74,-127.19C139.37,-134.59 164.13,-143.47 184.75,-150.87"/>
<polygon fill="black" stroke="black" points="183.39,-154.1 193.99,-154.18 185.76,-147.51 183.39,-154.1"/>
</g>
<!-- 10 -->
<!-- name: &quot;Volume&quot;, typeName: &quot;&quot;, id: 10, branchId: 0, recurseId: &#45;1, attributes: 0, notes: &quot;&quot; -->
<g id="node11" class="node">
<title>10</title>
<ellipse fill="none" stroke="black" cx="227.93" cy="-85" rx="40.09" ry="18"/>
<text xml:space="preserve" text-anchor="middle" x="227.93" y="-79.95" font-family="Times New Roman,serif" font-size="14.00">Volume</text>
</g>
<!-- 0&#45;&gt;10 -->
<g id="edge10" class="edge">
<title>0&#45;&gt;10</title>
<path fill="none" stroke="black" d="M136.76,-101.17C150.95,-98.63 165.87,-95.95 179.4,-93.53"/>
<polygon fill="black" stroke="black" points="179.68,-97.03 188.9,-91.82 178.44,-90.14 179.68,-97.03"/>
</g>
<!-- 12 -->
<!-- name: &quot;Pitch&quot;, typeName: &quot;&quot;, id: 12, branchId: 0, recurseId: &#45;1, attributes: 0, notes: &quot;&quot; -->
<g id="node13" class="node">
<title>12</title>
<ellipse fill="none" stroke="black" cx="227.93" cy="-31" rx="29.86" ry="18"/>
<text xml:space="preserve" text-anchor="middle" x="227.93" y="-25.95" font-family="Times New Roman,serif" font-size="14.00">Pitch</text>
</g>
<!-- 0&#45;&gt;12 -->
<g id="edge12" class="edge">
<title>0&#45;&gt;12</title>
<path fill="none" stroke="black" d="M107.23,-95.41C132.78,-81.66 168.98,-62.18 194.87,-48.25"/>
<polygon fill="black" stroke="black" points="196.44,-51.38 203.59,-43.56 193.13,-45.22 196.44,-51.38"/>
</g>
<!-- 2 -->
<!-- name: &quot;string&quot;, typeName: &quot;&quot;, id: 2, branchId: 0, recurseId: &#45;1, attributes: 512, notes: &quot;&quot; -->
<g id="node3" class="node">
<title>2</title>
<ellipse fill="none" stroke="black" cx="476.16" cy="-288" rx="31.9" ry="18"/>
<text xml:space="preserve" text-anchor="middle" x="476.16" y="-282.95" font-family="Times New Roman,serif" font-size="14.00">string</text>
</g>
<!-- 1&#45;&gt;2 -->
<g id="edge2" class="edge">
<title>1&#45;&gt;2</title>
<path fill="none" stroke="black" d="M372.33,-288C390.47,-288 413.2,-288 432.68,-288"/>
<polygon fill="black" stroke="black" points="432.5,-291.5 442.5,-288 432.5,-284.5 432.5,-291.5"/>
</g>
<!-- 4 -->
<!-- name: &quot;X&quot;, typeName: &quot;&quot;, id: 4, branchId: 0, recurseId: &#45;1, attributes: 0, notes: &quot;&quot; -->
<g id="node5" class="node">
<title>4</title>
<ellipse fill="none" stroke="black" cx="338.48" cy="-234" rx="27" ry="18"/>
<text xml:space="preserve" text-anchor="middle" x="338.48" y="-228.95" font-family="Times New Roman,serif" font-size="14.00">X</text>
</g>
<!-- 3&#45;&gt;4 -->
<g id="edge4" class="edge">
<title>3&#45;&gt;4</title>
<path fill="none" stroke="black" d="M252.48,-180.75C268.85,-191.01 290.78,-204.74 308.26,-215.69"/>
<polygon fill="black" stroke="black" points="306.35,-218.63 316.68,-220.97 310.06,-212.69 306.35,-218.63"/>
</g>
<!-- 6 -->
<!-- name: &quot;Y&quot;, typeName: &quot;&quot;, id: 6, branchId: 0, recurseId: &#45;1, attributes: 0, notes: &quot;&quot; -->
<g id="node7" class="node">
<title>6</title>
<ellipse fill="none" stroke="black" cx="338.48" cy="-180" rx="27" ry="18"/>
<text xml:space="preserve" text-anchor="middle" x="338.48" y="-174.95" font-family="Times New Roman,serif" font-size="14.00">Y</text>
</g>
<!-- 3&#45;&gt;6 -->
<g id="edge6" class="edge">
<title>3&#45;&gt;6</title>
<path fill="none" stroke="black" d="M267.81,-171.01C278.42,-172.38 289.88,-173.86 300.39,-175.22"/>
<polygon fill="black" stroke="black" points="299.88,-178.68 310.25,-176.49 300.78,-171.74 299.88,-178.68"/>
</g>
<!-- 8 -->
<!-- name: &quot;Z&quot;, typeName: &quot;&quot;, id: 8, branchId: 0, recurseId: &#45;1, attributes: 0, notes: &quot;&quot; -->
<g id="node9" class="node">
<title>8</title>
<ellipse fill="none" stroke="black" cx="338.48" cy="-126" rx="27" ry="18"/>
<text xml:space="preserve" text-anchor="middle" x="338.48" y="-120.95" font-family="Times New Roman,serif" font-size="14.00">Z</text>
</g>
<!-- 3&#45;&gt;8 -->
<g id="edge8" class="edge">
<title>3&#45;&gt;8</title>
<path fill="none" stroke="black" d="M260.33,-154.43C273.96,-149.41 289.96,-143.51 303.84,-138.4"/>
<polygon fill="black" stroke="black" points="304.84,-141.76 313.01,-135.02 302.42,-135.19 304.84,-141.76"/>
</g>
<!-- 5 -->
<!-- name: &quot;varint&quot;, typeName: &quot;&quot;, id: 5, branchId: 0, recurseId: &#45;1, attributes: 512, notes: &quot;&quot; -->
<g id="node6" class="node">
<title>5</title>
<ellipse fill="none" stroke="black" cx="476.16" cy="-234" rx="32.41" ry="18"/>
<text xml:space="preserve" text-anchor="middle" x="476.16" y="-228.95" font-family="Times New Roman,serif" font-size="14.00">varint</text>
</g>
<!-- 4&#45;&gt;5 -->
<g id="edge5" class="edge">
<title>4&#45;&gt;5</title>
<path fill="none" stroke="black" d="M365.96,-234C384.79,-234 410.49,-234 432.23,-234"/>
<polygon fill="black" stroke="black" points="431.99,-237.5 441.99,-234 431.99,-230.5 431.99,-237.5"/>
</g>
<!-- 7 -->
<!-- name: &quot;unsigned varint&quot;, typeName: &quot;&quot;, id: 7, branchId: 0, recurseId: &#45;1, attributes: 512, notes: &quot;&quot; -->
<g id="node8" class="node">
<title>7</title>
<ellipse fill="none" stroke="black" cx="476.16" cy="-180" rx="68.24" ry="18"/>
<text xml:space="preserve" text-anchor="middle" x="476.16" y="-174.95" font-family="Times New Roman,serif" font-size="14.00">unsigned varint</text>
</g>
<!-- 6&#45;&gt;7 -->
<g id="edge7" class="edge">
<title>6&#45;&gt;7</title>
<path fill="none" stroke="black" d="M365.96,-180C374.89,-180 385.37,-180 396.23,-180"/>
<polygon fill="black" stroke="black" points="396.13,-183.5 406.13,-180 396.13,-176.5 396.13,-183.5"/>
</g>
<!-- 9 -->
<!-- name: &quot;varint&quot;, typeName: &quot;&quot;, id: 9, branchId: 0, recurseId: &#45;1, attributes: 512, notes: &quot;&quot; -->
<g id="node10" class="node">
<title>9</title>
<ellipse fill="none" stroke="black" cx="476.16" cy="-126" rx="32.41" ry="18"/>
<text xml:space="preserve" text-anchor="middle" x="476.16" y="-120.95" font-family="Times New Roman,serif" font-size="14.00">varint</text>
</g>
<!-- 8&#45;&gt;9 -->
<g id="edge9" class="edge">
<title>8&#45;&gt;9</title>
<path fill="none" stroke="black" d="M365.96,-126C384.79,-126 410.49,-126 432.23,-126"/>
<polygon fill="black" stroke="black" points="431.99,-129.5 441.99,-126 431.99,-122.5 431.99,-129.5"/>
</g>
<!-- 11 -->
<!-- name: &quot;float&quot;, typeName: &quot;&quot;, id: 11, branchId: 0, recurseId: &#45;1, attributes: 512, notes: &quot;&quot; -->
<g id="node12" class="node">
<title>11</title>
<ellipse fill="none" stroke="black" cx="476.16" cy="-72" rx="27.81" ry="18"/>
<text xml:space="preserve" text-anchor="middle" x="476.16" y="-66.95" font-family="Times New Roman,serif" font-size="14.00">float</text>
</g>
<!-- 10&#45;&gt;11 -->
<g id="edge11" class="edge">
<title>10&#45;&gt;11</title>
<path fill="none" stroke="black" d="M268.22,-82.93C314.56,-80.48 391.07,-76.44 436.94,-74.02"/>
<polygon fill="black" stroke="black" points="436.87,-77.53 446.67,-73.5 436.5,-70.54 436.87,-77.53"/>
</g>
<!-- 13 -->
<!-- name: &quot;float&quot;, typeName: &quot;&quot;, id: 13, branchId: 0, recurseId: &#45;1, attributes: 512, notes: &quot;&quot; -->
<g id="node14" class="node">
<title>13</title>
<ellipse fill="none" stroke="black" cx="476.16" cy="-18" rx="27.81" ry="18"/>
<text xml:space="preserve" text-anchor="middle" x="476.16" y="-12.95" font-family="Times New Roman,serif" font-size="14.00">float</text>
</g>
<!-- 12&#45;&gt;13 -->
<g id="edge13" class="edge">
<title>12&#45;&gt;13</title>
<path fill="none" stroke="black" d="M258.14,-29.46C302.63,-27.11 387.38,-22.63 436.79,-20.03"/>
<polygon fill="black" stroke="black" points="436.93,-23.52 446.73,-19.5 436.56,-16.53 436.93,-23.52"/>
</g>
</g>
</svg>
