<?xml version="1.0" encoding="UTF-8" standalone="no"?>
<!DOCTYPE svg PUBLIC "-//W3C//DTD SVG 1.1//EN"
 "http://www.w3.org/Graphics/SVG/1.1/DTD/svg11.dtd">
<!-- Generated by graphviz version 13.1.0 (20250701.0955)
 -->
<!-- Title: std::optional&lt;struct CameraInstruction::FovInstruction&gt; Pages: 1 -->
<svg width="895pt" height="98pt"
 viewBox="0.00 0.00 895.00 98.00" xmlns="http://www.w3.org/2000/svg" xmlns:xlink="http://www.w3.org/1999/xlink">
<g id="graph0" class="graph" transform="scale(1 1) rotate(0) translate(4 94)">
<title>std::optional&lt;struct CameraInstruction::FovInstruction&gt;</title>
<polygon fill="white" stroke="none" points="-4,4 -4,-94 890.8,-94 890.8,4 -4,4"/>
<!-- 146 -->
<!-- name: &quot;std::optional&lt;struct CameraInstruction::FovInstruction&gt;&quot;, typeName: &quot;&quot;, id: 146, branchId: 0, recurseId: &#45;1, attributes: 0, notes: &quot;&quot; -->
<g id="node1" class="node">
<title>146</title>
<ellipse fill="none" stroke="black" cx="219.74" cy="-45" rx="219.74" ry="18"/>
<text xml:space="preserve" text-anchor="middle" x="219.74" y="-39.95" font-family="Times New Roman,serif" font-size="14.00">std::optional&lt;struct CameraInstruction::FovInstruction&gt;</text>
</g>
<!-- 147 -->
<!-- name: &quot;Has Value&quot;, typeName: &quot;&quot;, id: 147, branchId: 0, recurseId: &#45;1, attributes: 0, notes: &quot;If true, follow with appropriate data type, otherwise nothing&quot; -->
<g id="node2" class="node">
<title>147</title>
<ellipse fill="none" stroke="black" cx="523.75" cy="-72" rx="48.28" ry="18"/>
<text xml:space="preserve" text-anchor="middle" x="523.75" y="-66.95" font-family="Times New Roman,serif" font-size="14.00">Has Value</text>
</g>
<!-- 146&#45;&gt;147 -->
<g id="edge1" class="edge">
<title>146&#45;&gt;147</title>
<path fill="none" stroke="black" d="M370.86,-58.42C404.41,-61.42 438.02,-64.42 465.06,-66.84"/>
<polygon fill="black" stroke="black" points="464.45,-70.3 474.72,-67.71 465.07,-63.33 464.45,-70.3"/>
</g>
<!-- 149 -->
<!-- name: &quot;Value&quot;, typeName: &quot;CameraInstruction::FovInstruction&quot;, id: 149, branchId: 0, recurseId: &#45;1, attributes: 256, notes: &quot;&quot; -->
<g id="node4" class="node">
<title>149</title>
<ellipse fill="none" stroke="black" cx="523.75" cy="-18" rx="31.9" ry="18"/>
<text xml:space="preserve" text-anchor="middle" x="523.75" y="-12.95" font-family="Times New Roman,serif" font-size="14.00">Value</text>
</g>
<!-- 146&#45;&gt;149 -->
<g id="edge3" class="edge">
<title>146&#45;&gt;149</title>
<path fill="none" stroke="black" d="M370.86,-31.58C411.2,-27.97 451.62,-24.36 480.61,-21.77"/>
<polygon fill="black" stroke="black" points="480.75,-25.27 490.4,-20.89 480.13,-18.3 480.75,-25.27"/>
</g>
<!-- 148 -->
<!-- name: &quot;bool&quot;, typeName: &quot;&quot;, id: 148, branchId: 0, recurseId: &#45;1, attributes: 512, notes: &quot;&quot; -->
<g id="node3" class="node">
<title>148</title>
<ellipse fill="none" stroke="black" cx="747.42" cy="-72" rx="27.3" ry="18"/>
<text xml:space="preserve" text-anchor="middle" x="747.42" y="-66.95" font-family="Times New Roman,serif" font-size="14.00">bool</text>
</g>
<!-- 147&#45;&gt;148 -->
<g id="edge2" class="edge">
<title>147&#45;&gt;148</title>
<path fill="none" stroke="black" d="M572.31,-72C612.94,-72 670.64,-72 708.3,-72"/>
<polygon fill="black" stroke="black" points="708.26,-75.5 718.26,-72 708.26,-68.5 708.26,-75.5"/>
</g>
<!-- 159 -->
<!-- name: &quot;CameraInstruction::FovInstruction&quot;, typeName: &quot;&quot;, id: 159, branchId: 0, recurseId: &#45;1, attributes: 512, notes: &quot;&quot; -->
<g id="node5" class="node">
<title>159</title>
<ellipse fill="none" stroke="black" cx="747.42" cy="-18" rx="139.38" ry="18"/>
<text xml:space="preserve" text-anchor="middle" x="747.42" y="-12.95" font-family="Times New Roman,serif" font-size="14.00">CameraInstruction::FovInstruction</text>
</g>
<!-- 149&#45;&gt;159 -->
<g id="edge4" class="edge">
<title>149&#45;&gt;159</title>
<path fill="none" stroke="black" d="M556.04,-18C567.57,-18 581.51,-18 596.56,-18"/>
<polygon fill="black" stroke="black" points="596.18,-21.5 606.18,-18 596.18,-14.5 596.18,-21.5"/>
</g>
</g>
</svg>
