<?xml version="1.0" encoding="UTF-8" standalone="no"?>
<!DOCTYPE svg PUBLIC "-//W3C//DTD SVG 1.1//EN"
 "http://www.w3.org/Graphics/SVG/1.1/DTD/svg11.dtd">
<!-- Generated by graphviz version 13.1.0 (20250701.0955)
 -->
<!-- Title: std::optional&lt;struct CameraInstruction::FovInstruction&gt; Pages: 1 -->
<svg width="671pt" height="44pt"
 viewBox="0.00 0.00 671.00 44.00" xmlns="http://www.w3.org/2000/svg" xmlns:xlink="http://www.w3.org/1999/xlink">
<g id="graph0" class="graph" transform="scale(1 1) rotate(0) translate(4 40)">
<title>std::optional&lt;struct CameraInstruction::FovInstruction&gt;</title>
<polygon fill="white" stroke="none" points="-4,4 -4,-40 666.63,-40 666.63,4 -4,4"/>
<!-- 146 -->
<!-- name: &quot;std::optional&lt;struct CameraInstruction::FovInstruction&gt;&quot;, typeName: &quot;&quot;, id: 146, branchId: 0, recurseId: &#45;1, attributes: 0, notes: &quot;&quot; -->
<g id="node1" class="node">
<title>146</title>
<ellipse fill="none" stroke="black" cx="219.74" cy="-18" rx="219.74" ry="18"/>
<text xml:space="preserve" text-anchor="middle" x="219.74" y="-12.95" font-family="Times New Roman,serif" font-size="14.00">std::optional&lt;struct CameraInstruction::FovInstruction&gt;</text>
</g>
<!-- 147 -->
<!-- name: &quot;Has Value&quot;, typeName: &quot;&quot;, id: 147, branchId: 0, recurseId: &#45;1, attributes: 0, notes: &quot;If true, follow with appropriate data type, otherwise nothing&quot; -->
<g id="node2" class="node">
<title>147</title>
<ellipse fill="none" stroke="black" cx="523.75" cy="-18" rx="48.28" ry="18"/>
<text xml:space="preserve" text-anchor="middle" x="523.75" y="-12.95" font-family="Times New Roman,serif" font-size="14.00">Has Value</text>
</g>
<!-- 146&#45;&gt;147 -->
<g id="edge1" class="edge">
<title>146&#45;&gt;147</title>
<path fill="none" stroke="black" d="M439.83,-18C448.27,-18 456.35,-18 463.93,-18"/>
<polygon fill="black" stroke="black" points="463.89,-21.5 473.89,-18 463.89,-14.5 463.89,-21.5"/>
</g>
<!-- 148 -->
<!-- name: &quot;bool&quot;, typeName: &quot;&quot;, id: 148, branchId: 0, recurseId: &#45;1, attributes: 512, notes: &quot;&quot; -->
<g id="node3" class="node">
<title>148</title>
<ellipse fill="none" stroke="black" cx="635.33" cy="-18" rx="27.3" ry="18"/>
<text xml:space="preserve" text-anchor="middle" x="635.33" y="-12.95" font-family="Times New Roman,serif" font-size="14.00">bool</text>
</g>
<!-- 147&#45;&gt;148 -->
<g id="edge2" class="edge">
<title>147&#45;&gt;148</title>
<path fill="none" stroke="black" d="M572.5,-18C580.54,-18 588.79,-18 596.53,-18"/>
<polygon fill="black" stroke="black" points="596.3,-21.5 606.3,-18 596.3,-14.5 596.3,-21.5"/>
</g>
</g>
</svg>
