<?xml version="1.0" encoding="UTF-8" standalone="no"?>
<!DOCTYPE svg PUBLIC "-//W3C//DTD SVG 1.1//EN"
 "http://www.w3.org/Graphics/SVG/1.1/DTD/svg11.dtd">
<!-- Generated by graphviz version 14.0.2 (20251019.1705)
 -->
<!-- Title: Store Update Pages: 1 -->
<svg width="463pt" height="260pt"
 viewBox="0.00 0.00 463.00 260.00" xmlns="http://www.w3.org/2000/svg" xmlns:xlink="http://www.w3.org/1999/xlink">
<g id="graph0" class="graph" transform="scale(1 1) rotate(0) translate(4 256)">
<title>Store Update</title>
<polygon fill="white" stroke="none" points="-4,4 -4,-256 458.83,-256 458.83,4 -4,4"/>
<!-- 0 -->
<!-- name: &quot;Store Update&quot;, typeName: &quot;&quot;, id: 0, branchId: 0, recurseId: &#45;1, attributes: 0, notes: &quot;&quot; -->
<g id="node1" class="node">
<title>0</title>
<ellipse fill="none" stroke="black" cx="59.54" cy="-126" rx="59.54" ry="18"/>
<text xml:space="preserve" text-anchor="middle" x="59.54" y="-120.95" font-family="Times New Roman,serif" font-size="14.00">Store Update</text>
</g>
<!-- 1 -->
<!-- name: &quot;Data Store Name&quot;, typeName: &quot;&quot;, id: 1, branchId: 0, recurseId: &#45;1, attributes: 0, notes: &quot;&quot; -->
<g id="node2" class="node">
<title>1</title>
<ellipse fill="none" stroke="black" cx="230.49" cy="-234" rx="75.41" ry="18"/>
<text xml:space="preserve" text-anchor="middle" x="230.49" y="-228.95" font-family="Times New Roman,serif" font-size="14.00">Data Store Name</text>
</g>
<!-- 0&#45;&gt;1 -->
<g id="edge1" class="edge">
<title>0&#45;&gt;1</title>
<path fill="none" stroke="black" d="M77.19,-143.6C95.01,-161.6 124.84,-189.35 155.08,-207 160.35,-210.07 166.02,-212.89 171.81,-215.45"/>
<polygon fill="black" stroke="black" points="170.3,-218.62 180.88,-219.2 172.98,-212.15 170.3,-218.62"/>
</g>
<!-- 3 -->
<!-- name: &quot;Property&quot;, typeName: &quot;&quot;, id: 3, branchId: 0, recurseId: &#45;1, attributes: 0, notes: &quot;The name of the property in the data store that has changed&quot; -->
<g id="node4" class="node">
<title>3</title>
<ellipse fill="none" stroke="black" cx="230.49" cy="-180" rx="42.65" ry="18"/>
<text xml:space="preserve" text-anchor="middle" x="230.49" y="-174.95" font-family="Times New Roman,serif" font-size="14.00">Property</text>
</g>
<!-- 0&#45;&gt;3 -->
<g id="edge3" class="edge">
<title>0&#45;&gt;3</title>
<path fill="none" stroke="black" d="M101.44,-139.07C126.73,-147.16 159.2,-157.53 185.12,-165.82"/>
<polygon fill="black" stroke="black" points="183.75,-169.05 194.34,-168.77 185.88,-162.39 183.75,-169.05"/>
</g>
<!-- 5 -->
<!-- name: &quot;Path&quot;, typeName: &quot;&quot;, id: 5, branchId: 0, recurseId: &#45;1, attributes: 0, notes: &quot;The path through the property that needs updating&quot; -->
<g id="node6" class="node">
<title>5</title>
<ellipse fill="none" stroke="black" cx="230.49" cy="-126" rx="27.3" ry="18"/>
<text xml:space="preserve" text-anchor="middle" x="230.49" y="-120.95" font-family="Times New Roman,serif" font-size="14.00">Path</text>
</g>
<!-- 0&#45;&gt;5 -->
<g id="edge5" class="edge">
<title>0&#45;&gt;5</title>
<path fill="none" stroke="black" d="M119.16,-126C143.17,-126 170.27,-126 191.6,-126"/>
<polygon fill="black" stroke="black" points="191.6,-129.5 201.6,-126 191.6,-122.5 191.6,-129.5"/>
</g>
<!-- 7 -->
<!-- name: &quot;Data&quot;, typeName: &quot;&quot;, id: 7, branchId: 0, recurseId: &#45;1, attributes: 0, notes: &quot;The value that is updating&quot; -->
<g id="node8" class="node">
<title>7</title>
<ellipse fill="none" stroke="black" cx="230.49" cy="-72" rx="28.32" ry="18"/>
<text xml:space="preserve" text-anchor="middle" x="230.49" y="-66.95" font-family="Times New Roman,serif" font-size="14.00">Data</text>
</g>
<!-- 0&#45;&gt;7 -->
<g id="edge7" class="edge">
<title>0&#45;&gt;7</title>
<path fill="none" stroke="black" d="M101.44,-112.93C129.64,-103.92 166.76,-92.05 193.77,-83.42"/>
<polygon fill="black" stroke="black" points="194.76,-86.77 203.22,-80.39 192.63,-80.1 194.76,-86.77"/>
</g>
<!-- 9 -->
<!-- name: &quot;Update Count&quot;, typeName: &quot;&quot;, id: 9, branchId: 0, recurseId: &#45;1, attributes: 0, notes: &quot;The number of times this property has updated&quot; -->
<g id="node10" class="node">
<title>9</title>
<ellipse fill="none" stroke="black" cx="230.49" cy="-18" rx="62.61" ry="18"/>
<text xml:space="preserve" text-anchor="middle" x="230.49" y="-12.95" font-family="Times New Roman,serif" font-size="14.00">Update Count</text>
</g>
<!-- 0&#45;&gt;9 -->
<g id="edge9" class="edge">
<title>0&#45;&gt;9</title>
<path fill="none" stroke="black" d="M77.19,-108.4C95.01,-90.4 124.84,-62.65 155.08,-45 161.46,-41.28 168.44,-37.93 175.49,-34.96"/>
<polygon fill="black" stroke="black" points="176.38,-38.37 184.39,-31.44 173.81,-31.86 176.38,-38.37"/>
</g>
<!-- 2 -->
<!-- name: &quot;string&quot;, typeName: &quot;&quot;, id: 2, branchId: 0, recurseId: &#45;1, attributes: 512, notes: &quot;&quot; -->
<g id="node3" class="node">
<title>2</title>
<ellipse fill="none" stroke="black" cx="398.36" cy="-234" rx="31.9" ry="18"/>
<text xml:space="preserve" text-anchor="middle" x="398.36" y="-228.95" font-family="Times New Roman,serif" font-size="14.00">string</text>
</g>
<!-- 1&#45;&gt;2 -->
<g id="edge2" class="edge">
<title>1&#45;&gt;2</title>
<path fill="none" stroke="black" d="M306.18,-234C322.87,-234 340.01,-234 354.86,-234"/>
<polygon fill="black" stroke="black" points="354.71,-237.5 364.71,-234 354.71,-230.5 354.71,-237.5"/>
</g>
<!-- 4 -->
<!-- name: &quot;string&quot;, typeName: &quot;&quot;, id: 4, branchId: 0, recurseId: &#45;1, attributes: 512, notes: &quot;The name of the property in the data store that has changed&quot; -->
<g id="node5" class="node">
<title>4</title>
<ellipse fill="none" stroke="black" cx="398.36" cy="-180" rx="31.9" ry="18"/>
<text xml:space="preserve" text-anchor="middle" x="398.36" y="-174.95" font-family="Times New Roman,serif" font-size="14.00">string</text>
</g>
<!-- 3&#45;&gt;4 -->
<g id="edge4" class="edge">
<title>3&#45;&gt;4</title>
<path fill="none" stroke="black" d="M273.34,-180C298.2,-180 329.64,-180 354.65,-180"/>
<polygon fill="black" stroke="black" points="354.48,-183.5 364.48,-180 354.48,-176.5 354.48,-183.5"/>
</g>
<!-- 6 -->
<!-- name: &quot;string&quot;, typeName: &quot;&quot;, id: 6, branchId: 0, recurseId: &#45;1, attributes: 512, notes: &quot;The path through the property that needs updating&quot; -->
<g id="node7" class="node">
<title>6</title>
<ellipse fill="none" stroke="black" cx="398.36" cy="-126" rx="31.9" ry="18"/>
<text xml:space="preserve" text-anchor="middle" x="398.36" y="-120.95" font-family="Times New Roman,serif" font-size="14.00">string</text>
</g>
<!-- 5&#45;&gt;6 -->
<g id="edge6" class="edge">
<title>5&#45;&gt;6</title>
<path fill="none" stroke="black" d="M258.14,-126C284.21,-126 324.32,-126 354.8,-126"/>
<polygon fill="black" stroke="black" points="354.45,-129.5 364.45,-126 354.45,-122.5 354.45,-129.5"/>
</g>
<!-- 8 -->
<!-- name: &quot;&quot;, typeName: &quot;&quot;, id: 8, branchId: 0, recurseId: &#45;1, attributes: 512, notes: &quot;The value that is updating&quot; -->
<g id="node9" class="node">
<title>8</title>
<ellipse fill="none" stroke="black" cx="398.36" cy="-72" rx="27" ry="18"/>
</g>
<!-- 7&#45;&gt;8 -->
<g id="edge8" class="edge">
<title>7&#45;&gt;8</title>
<path fill="none" stroke="black" d="M259.25,-72C286.69,-72 328.87,-72 359.4,-72"/>
<polygon fill="black" stroke="black" points="359.37,-75.5 369.37,-72 359.37,-68.5 359.37,-75.5"/>
</g>
<!-- 10 -->
<!-- name: &quot;unsigned int&quot;, typeName: &quot;&quot;, id: 10, branchId: 0, recurseId: &#45;1, attributes: 512, notes: &quot;The number of times this property has updated&quot; -->
<g id="node11" class="node">
<title>10</title>
<ellipse fill="none" stroke="black" cx="398.36" cy="-18" rx="56.47" ry="18"/>
<text xml:space="preserve" text-anchor="middle" x="398.36" y="-12.95" font-family="Times New Roman,serif" font-size="14.00">unsigned int</text>
</g>
<!-- 9&#45;&gt;10 -->
<g id="edge10" class="edge">
<title>9&#45;&gt;10</title>
<path fill="none" stroke="black" d="M293.25,-18C305.26,-18 317.9,-18 330.07,-18"/>
<polygon fill="black" stroke="black" points="330.05,-21.5 340.05,-18 330.05,-14.5 330.05,-21.5"/>
</g>
</g>
</svg>
